<?xml version="1.0" encoding="UTF-8" standalone="no"?>
<!-- Created with Inkscape (http://www.inkscape.org/) -->

<svg
   xmlns:dc="http://purl.org/dc/elements/1.1/"
   xmlns:cc="http://creativecommons.org/ns#"
   xmlns:rdf="http://www.w3.org/1999/02/22-rdf-syntax-ns#"
   xmlns:svg="http://www.w3.org/2000/svg"
   xmlns="http://www.w3.org/2000/svg"
   xmlns:sodipodi="http://sodipodi.sourceforge.net/DTD/sodipodi-0.dtd"
   xmlns:inkscape="http://www.inkscape.org/namespaces/inkscape"
   id="svg3953"
   version="1.1"
   inkscape:version="0.48.4 r9943 custom"
   width="708.66125"
   height="531.49625"
   xml:space="preserve"
   sodipodi:docname="battery-view.svg"><metadata
     id="metadata3959"><rdf:RDF><cc:Work
         rdf:about=""><dc:format>image/svg+xml</dc:format><dc:type
           rdf:resource="http://purl.org/dc/dcmitype/StillImage" /><dc:title /></cc:Work></rdf:RDF></metadata><defs
     id="defs3957"><marker
       inkscape:stockid="TriangleInM"
       orient="auto"
       refY="0.0"
       refX="0.0"
       id="TriangleInM"
       style="overflow:visible"><path
         id="path4286"
         d="M 5.77,0.0 L -2.88,5.0 L -2.88,-5.0 L 5.77,0.0 z "
         style="fill-rule:evenodd;stroke:#000000;stroke-width:1.0pt"
         transform="scale(-0.4)" /></marker><marker
       inkscape:stockid="TriangleOutM"
       orient="auto"
       refY="0"
       refX="0"
       id="TriangleOutM"
       style="overflow:visible"><path
         inkscape:connector-curvature="0"
         id="path4295"
         d="m 5.77,0 -8.65,5 0,-10 8.65,5 z"
         style="fill-rule:evenodd;stroke:#000000;stroke-width:1pt"
         transform="scale(0.4,0.4)" /></marker></defs><sodipodi:namedview
     pagecolor="#ffffff"
     bordercolor="#666666"
     borderopacity="1"
     objecttolerance="10"
     gridtolerance="10"
     guidetolerance="10"
     inkscape:pageopacity="0"
     inkscape:pageshadow="2"
     inkscape:window-width="1145"
     inkscape:window-height="532"
     id="namedview3955"
     showgrid="false"
     inkscape:zoom="1.5"
     inkscape:cx="221.59133"
     inkscape:cy="345.87564"
     inkscape:window-x="0"
     inkscape:window-y="22"
     inkscape:window-maximized="0"
     inkscape:current-layer="g3961" /><g
     id="g3961"
     inkscape:groupmode="layer"
     inkscape:label="jackal-battery-view"
     transform="matrix(1.25,0,0,-1.25,0,531.49625)"><g
   id="g3963"
   transform="translate(207,316.1)"><path
     d="m 0,0 10.5,-11.8 m 28.3,-31.7 30.4,-34 m 0.6,-0.3 91.6,-26.6 m 50.3,6 0.3,0 m 1,1 0.1,0.2 m -0.1,0.4 -0.6,0.6 m -1.6,-1.6 0.5,-0.6 m 0.9,2.4 0,0.1 m -1.8,-1.5 0.2,-0.1 m -45.4,-4.9 0.2,0 m 1.1,1.1 0.1,0.2 m -0.1,0.4 -0.6,0.6 m -1.7,-1.6 0.6,-0.6 m 1.8,2.8 -0.2,0.2 m -3,-2.8 0.2,-0.2 m 49.5,6.7 -0.2,0.2 m -3,-2.8 0.2,-0.2 m -63.1,54.1 1.6,2.2 m -3.7,2.9 -1.7,-2.2 m -29.8,32.3 1.2,1.6 m -3.2,3.3 -1.6,-2.1 m 69.1,-48.8 1.6,2.1 m -4.5,1.5 -0.7,-0.8 m -64.9,51 -0.7,-0.9 m 73.3,-51.7 0.8,0.9 M 126.6,4.3 2.9,50.9 m 211,-136.5 -30.8,31.8 M 144.2,-13.7 127.1,4 M -56,-86.5 l -0.1,0.1 -0.4,0.3 -0.4,0.1 -0.4,0 -0.3,-0.2 -0.4,-0.3 -0.3,-0.4 -0.1,-0.4 m 97.8,-115.8 -0.1,0.3 -0.2,0.4 -0.4,0.3 -0.4,0.1 -0.5,0 -0.4,-0.2 -0.4,-0.3 -0.3,-0.5 -0.2,-0.5 0,-0.1 m 179,91.2 0,0 -0.1,0.2 -0.2,0.3 -0.3,0.3 -0.3,0.3 -0.1,0.1 -0.2,0.2 -0.4,0.3 -0.4,0.2 -0.3,0.2 -0.3,0.1 -0.2,0 M 79,-24.1 l -0.2,0.1 -0.4,0.3 -0.4,0.2 -0.4,0.2 -0.3,0 -0.1,0 m 3.1,-2.3 0,0 -0.1,0.2 -0.2,0.3 -0.1,0.1 m -0.5,0.5 -0.1,0.1 -0.3,0.3 m 1,-1.5 0,0 -0.2,0 m -45,49.2 -0.1,0.1 -0.2,0.3 -0.3,0.3 -0.4,0.4 -0.1,0.1 m -0.7,0.4 -0.1,0.1 -0.4,0.2 -0.4,0.2 -0.3,0 m 186.6,-174.1 0.2,1.2 0,2.1 -0.1,2.1 -0.2,2 -0.4,1.9 -0.6,1.8 -0.6,1.7 -0.9,1.6 -0.9,1.5 -1,1.5 -1.2,1.3 -1.3,1.2 -1.3,1 -1.5,1 -0.4,0.3 m -70.6,-51.4 0,-0.7 0,-2.1 0.2,-2 0.4,-1.9 0.5,-1.9 0.7,-1.7 0.8,-1.7 0.9,-1.5 1,-1.5 1.1,-1.3 1.2,-1.2 1.4,-1.1 1.4,-1 1.5,-0.9 1.5,-0.8 1.7,-0.6 1.7,-0.5 1.8,-0.4 1.8,-0.3 2,-0.1 2,0 2,0.1 2.2,0.3 2.2,0.4 2.2,0.5 2.2,0.6 2.2,0.8 2.3,0.9 2.2,1 2.2,1.1 2.1,1.1 2.2,1.3 2.1,1.3 2.1,1.5 2.1,1.4 2,1.6 2,1.6 1.9,1.7 1.9,1.8 1.8,1.8 1.7,1.8 1.7,1.9 1.7,1.9 1.5,2 1.5,2 1.4,2.1 1.3,2 1.2,2.1 1.1,2.2 1,2.1 0.9,2.2 0.8,2.2 0.6,2.2 0.5,2.2 0.4,2 0,0.7 m -56.4,-27.4 0,0 0.4,1 0.4,1.1 0.6,1.1 0.6,1.3 0.8,1.3 0.8,1.3 1,1.4 1,1.5 1.2,1.4 1.2,1.4 1.3,1.5 1.4,1.4 1.4,1.4 1.5,1.3 1.5,1.3 1.6,1.2 1.6,1.2 1.5,1 1.6,1 1.5,0.9 1.5,0.8 1.4,0.7 1.4,0.6 1.3,0.5 1.2,0.5 1.1,0.3 0.6,0.1 m -75.9,-54.4 0.1,1.3 -0.1,2.1 -0.3,2 -0.4,1.9 -0.6,1.9 -0.7,1.8 -0.8,1.6 -1,1.6 -1.1,1.5 -1.2,1.3 -1.3,1.3 -1.4,1.1 -1.5,1.1 -1.4,0.8 m -66.6,-31.7 -0.2,-0.4 -1.3,-2.3 -1.2,-2.2 -1,-2.3 -0.9,-2.4 -0.8,-2.3 -0.6,-2.3 -0.4,-2.3 -0.3,-2.3 -0.1,-2.2 0.1,-2.2 0.2,-2.1 0.4,-2 0.5,-1.8 0.7,-1.8 0.8,-1.8 1,-1.6 1,-1.4 1.2,-1.4 1.3,-1.3 1.4,-1.2 1.5,-1 1.5,-0.9 1.7,-0.8 1.7,-0.7 1.8,-0.6 1.9,-0.4 1.9,-0.3 2.1,-0.2 2.1,0 2.2,0.1 2.2,0.2 2.3,0.4 2.4,0.5 2.3,0.6 2.3,0.8 2.4,0.8 2.3,1 2.3,1 2.3,1.2 2.3,1.3 2.2,1.3 2.2,1.4 2.2,1.5 2.1,1.6 2.1,1.6 2,1.7 2,1.8 1.9,1.8 1.9,1.8 1.8,2 1.7,1.9 1.6,2 1.6,2.1 1.4,2 1.4,2.2 1.3,2.1 1.1,2.2 1.1,2.2 0.9,2.2 0.8,2.3 0.7,2.2 0.5,2.3 0.3,2.2 0.2,2 0,0.6 m -59.5,-27.8 0.3,0.6 0.5,1.1 0.6,1.2 0.8,1.3 0.8,1.3 1,1.4 1.1,1.4 1.1,1.5 1.3,1.4 1.3,1.4 1.5,1.5 1.5,1.4 1.5,1.3 1.6,1.3 1.6,1.2 1.7,1.2 1.6,1.1 1.7,1 1.6,0.9 1.6,0.8 1.6,0.7 1.4,0.7 1.5,0.5 1.3,0.4 1.2,0.3 0.8,0.2 m -18.5,-26.2 1,-1.2 m -134.4,111.6 0.2,-1.3 0.3,-1.9 0.5,-2 0.7,-1.8 0.7,-1.7 0.9,-1.7 1,-1.5 1.2,-1.5 1.2,-1.3 1.3,-1.3 1.4,-1.1 1.5,-1.1 1.6,-0.9 1.7,-0.8 1.8,-0.7 1.8,-0.6 1.9,-0.4 1.7,-0.3 m -18.6,38.5 -0.4,-0.8 -0.8,-2.3 -0.6,-2.2 -0.5,-2.3 -0.4,-2.2 -0.2,-2.2 0,-2.2 0.1,-1.9 0,-0.5 m 227.8,26.3 0,0.1 m 10.2,-1.5 0,0.1 m 3.8,-0.1 0.2,0.2 0.2,0.4 0.1,0.4 0.1,0.5 0,0.5 -0.1,0.5 0,0.2 m -12.5,-14.9 -0.1,0 -0.3,-0.3 -0.1,-0.3 -0.1,-0.4 0,-0.5 0.1,-0.6 0.2,-0.5 0,-0.1 m 5.6,5.5 -5.4,-2.8 m 6.1,2.9 0,0 -0.1,-0.1 -0.1,0 m 3.1,-0.3 -0.2,0.2 m -0.3,0.3 -0.1,0.1 m -11.9,13.6 -1,1.1 m 11.8,-14.7 0.2,-0.1 m -0.8,3.1 -0.2,-0.2 m 0.9,-1.4 0.2,-0.1 m -1.2,-0.5 0.1,-0.3 m -13.7,15.1 -0.1,0.3 -0.2,0.5 -0.3,0.6 -0.3,0.5 -0.4,0.5 -0.4,0.4 -0.4,0.3 -0.4,0.1 -0.4,0 -0.1,-0.1 m 16.7,-16 -0.6,-0.3 m 2.2,-1.5 0,0.4 m 0.3,-0.3 0,0.1 m -1.6,-1.9 3.5,1.8 m -3.1,-1.4 0,0.1 m 1.2,0.6 0.1,0 m -0.1,9 1,-1 m -3.6,-7 -0.2,0.5 -0.4,0.7 -0.2,0.2 -0.3,0.4 -0.3,0.4 -0.3,0.3 -0.4,0.3 -0.3,0.3 -0.4,0.2 -0.3,0.1 -0.4,0 -0.1,0 m 9.2,3.5 2.1,1 m -4.1,-0.7 0.1,-0.1 m -10.5,5.3 0.1,0 m -0.2,0.4 0,0 0,-0.1 m 11.5,-11.8 0,-0.6 m -0.1,-0.5 0,-0.3 m -18.6,18.1 0.2,-0.2 m 8.4,-4.9 0,0 0,-0.1 0.1,0 m -0.2,0.5 0,0 -0.1,-0.1 m 4.8,-6.6 0,0 m -5,5.6 0,0 m -0.4,0.2 0.1,-0.1 0.2,-0.1 0.1,0 m -0.5,0.2 0,0 0.1,0 m -0.3,1.3 -0.1,-0.1 -0.1,-0.2 0,-0.2 0.1,-0.2 0.1,-0.2 0.1,-0.2 0.1,-0.2 m -0.1,1.4 -0.1,-0.1 m 0.7,-1.5 0.2,0.1 m -1.1,2.2 0,0 0,-0.1 m 0.1,-0.3 0,0 0.1,0 0.1,0 m 0,0 0,0 m -0.2,0.5 -0.1,-0.1 m 1.2,0.9 -1.2,-0.6 m 1.1,-2.8 0,0 0,-0.1 m 0,0.1 0,0 m -0.4,3.3 0,-0.1 m -86.9,-67.4 -49.3,57.1 m -6.7,-90.3 -0.1,0 m 0.5,0 -0.1,0 m -1.9,-1.3 -0.1,-0.2 m 1.8,1.5 -0.6,0.7 m -1.8,-1.5 0.6,-0.7 m -1.2,0.3 0,0.4 m -1.1,1.2 0.1,-1.6 m -70.5,90.5 -0.1,0.2 -0.1,0.4 -0.2,0.4 -0.2,0.3 0,0.1 m -0.8,-0.7 0.1,-0.1 0.1,-0.1 0.1,-0.2 0,-0.2 0.1,-0.1 m 1.2,-3.3 -0.2,3.3 m -1,0 0.3,-3.4 m -3.3,6.4 0.2,-0.3 m 1.7,1.4 -0.2,0.3 m -1.6,-1.6 0,0 m -1,0.6 0.1,-0.1 m -0.4,0.5 0,-0.1 m 2.6,1.8 -0.1,0 m 0.4,-0.4 -0.1,0 m 79.7,-100.9 0.3,0 m 0.8,0.7 0.1,0.3 m 0,0.4 -1.2,1.5 m -1.6,-1.3 1.2,-1.5 m -84.4,103.2 0.4,-0.5 m 1.8,0.9 -0.7,0.8 m -0.5,0.1 -0.2,0 m -0.7,-0.6 -0.1,-0.2 m 238,-80.8 0.3,-0.3 m 5.1,4.7 -0.3,0.3 m -4.2,-5.6 0.3,-0.3 m -104.6,-54.2 0.3,-0.3 m 5.5,4.6 -0.3,0.3 m -4.3,-5.6 0.3,-0.3 m 0.8,0.2 0.3,0 m 3.4,2.9 0.1,0.2 m -5.3,-2 0.6,-0.8 m 4.5,3.8 -0.6,0.7 m 100.3,50.7 0.3,0 m 3.2,3 0,0.2 m -5,-2.2 0.7,-0.7 m 4.2,3.8 -0.7,0.7 m -134.3,72.7 -0.4,0.4 m -9.6,16.1 0,0 m 1.9,0 0,0 m -5.7,-9.3 0,0 m 19.3,9.5 0,0 m 59.3,-10.1 -0.5,-0.7 m -1,-102 20,10.7 m 2,1 0.5,0.3 m -179.6,40.3 8.4,-10.4 m 20,-24.8 46.2,-57.4 m 128.7,131.3 0.3,0.5 0.4,0.5 m -122.4,60.1 7.3,9.8 m -6.2,-11 -1.1,1.2 m -1.9,-5.2 3,4 M 10.2,-12.3 37.7,-43.1 M 19.3,0.1 10.2,-12.3 m 32.5,-26.6 6.5,8.7 m -9.6,-7.7 3.1,-1 m -5,-4.2 3.1,-1 m -0.1,5 3.1,-1 m -3,-4 3,4 m 0,0 -1.1,1.2 m 74.7,-41 -12.2,13.3 m -59.7,31.4 6.1,-6.8 m 7.6,-8.4 6.9,-7.7 m 9.7,-10.7 0.4,-0.4 m -31.2,33.4 6.2,-6.9 m 7.9,-8.7 6.3,-7 m 9.9,-11 0.4,-0.4 m 53.7,-13.6 5.9,7.5 m 1.3,-9.7 5.8,7.5 m -73,1.7 0.5,-0.2 m 19.9,27.1 -0.1,-0.2 M 79.8,-62.6 69.4,-76.4 m 21.4,27.4 -0.1,-0.2 m -9.9,-13 -10.9,-14.4 M 9.1,13.4 0.1,1 m 42.5,-42.7 5.1,-5.6 m 0,0 8.1,10.8 m 13.3,-19.2 3,3.9 m -9.3,8.7 -2.3,-3.1 m 0,0 -0.6,-1 -0.6,-1.1 -0.4,-1.1 -0.2,-1.2 -0.1,-1.2 0,-1.2 0.2,-1.1 0.4,-1.1 0.5,-0.9 0.6,-0.8 0.7,-0.7 0.8,-0.5 0.9,-0.3 1,-0.2 0.9,0.1 1,0.2 1,0.4 0.9,0.6 0.9,0.7 0.7,0.9 M 13.6,7.5 12.8,6.5 m 0,0 -0.6,-1 -0.5,-1 L 11.3,3.3 11.1,2.2 11,1 l 0,-1.1 0.2,-1.1 0.3,-1 0.5,-0.9 0.6,-0.8 0.6,-0.6 0.8,-0.5 0.9,-0.3 0.4,0 m 62,-62.5 -7,-9.1 m 7.4,8.6 -0.4,0.5 m 0.4,-0.5 -6.9,-9.1 m -0.5,0.5 0.5,-0.5 m 94,-17 -87.1,26.1 m 41.2,-16.9 0.2,0 0.2,0.1 0.3,0.2 0.2,0.2 0.1,0.2 0.1,0.2 -0.1,0.2 -0.1,0.1 m 0,0 -1.7,0.5 m 0,0 -0.2,0 -0.3,-0.1 -0.2,-0.1 -0.2,-0.2 -0.2,-0.3 0,-0.2 0,-0.2 0.2,-0.1 m 0,0 1.7,-0.5 m -2.7,-3.4 0.2,0 0.3,0 0.2,0.2 0.2,0.2 0.1,0.2 0.1,0.3 -0.1,0.1 -0.1,0.1 m 0,0 -1.7,0.5 m 0,0 -0.2,0 -0.3,0 -0.2,-0.2 -0.2,-0.2 -0.1,-0.3 -0.1,-0.2 0,-0.1 0.2,-0.1 m 0,0 1.7,-0.5 m 35,-10.3 0.2,0 0.2,0.1 0.2,0.2 0.2,0.2 0.2,0.2 0,0.2 0,0.2 -0.1,0.1 m 0,0 -1.7,0.4 m 0,0 -0.2,0 -0.2,0 -0.2,-0.2 -0.2,-0.2 -0.1,-0.2 -0.1,-0.2 0,-0.2 0.2,-0.1 m 0,0 1.6,-0.5 m 2.6,3.4 0.2,0 0.2,0.1 0.3,0.1 0.2,0.2 0.1,0.3 0,0.2 0,0.1 -0.1,0.1 m 0,0 -1.6,0.5 m 0,0 -0.2,0 -0.3,-0.1 -0.2,-0.1 -0.2,-0.2 -0.1,-0.3 -0.1,-0.2 0.1,-0.1 0.1,-0.1 m 0,0 1.6,-0.5 m 11.3,1.3 -87.8,26.4 m -7.9,-8.6 -0.1,-0.2 -0.1,-0.2 -0.1,-0.2 0,-0.1 0,-0.2 0.1,-0.1 0.1,-0.1 0.1,-0.1 M 0.1,1 0,0.8 -0.1,0.6 l 0,-0.1 0,-0.2 0,-0.2 L 0,0 m 69.9,-76.6 -0.1,0 0,-0.1 0,-0.1 0,-0.1 0.1,0 m 0,0 -0.5,-0.7 m 0,0 0.2,-0.1 0.1,-0.1 0.2,0 0.2,0 0.2,0 0.2,0.1 0.2,0.1 0.1,0.2 m -0.9,0.5 0,-0.1 0.1,0 0.1,0 0.1,0 0.1,0.1 m 91.6,-27.5 0,0 -0.2,0 -0.2,0 -0.1,0 m -45.2,16.4 -0.1,-0.1 m -55.1,41.8 -0.5,0.1 m 0.5,-0.1 -0.7,-1 -0.5,-1.1 -0.4,-1.2 -0.2,-1.2 -0.1,-1.1 0,-1.2 0.2,-1.2 0.4,-1 0.5,-1 0.6,-0.8 0.7,-0.6 0.8,-0.6 0.7,-0.2 m 0.2,15.1 -2.2,-2.9 m -18.2,4.8 5,-5.6 M 13.3,6.3 12.8,6.5 M 13.3,6.3 12.7,5.4 12.2,4.3 11.8,3.2 11.6,2 11.5,0.9 l 0,-1.2 0.2,-1.1 0.3,-1 0.5,-0.9 0.6,-0.7 0.6,-0.7 0.8,-0.4 0.5,-0.2 m 103.4,-79.4 0.5,-0.5 m -0.5,0.5 -1.4,0.5 M 13.9,7.1 13.3,6.3 m 102.5,-94.4 0.4,-0.5 m -0.4,0.5 -1.5,0.4 m 5.2,3.8 0,-0.1 -0.2,-0.2 -0.2,-0.2 -0.2,-0.2 -0.3,-0.1 -0.2,0 M 18.4,1.3 17.8,1.6 17.1,2.3 16.5,3.1 16,4 15.8,4.6 M 9,13.5 0.2,1.5 m 116.6,-88.9 0,-0.1 -0.2,-0.2 -0.2,-0.2 -0.2,-0.2 -0.2,0 -0.2,0 M 18.1,1.7 17.4,2.1 16.7,2.8 M 0,0.7 0,0.8 0,1.1 0.1,1.3 0.2,1.5 m 153.2,-96.5 0.4,-0.5 m -0.4,0.5 -1.3,0.4 m -1.4,-3.8 0.5,-0.5 m -0.5,0.5 -1.3,0.4 m 5,3.7 -0.1,-0.1 -0.1,-0.2 -0.2,-0.2 -0.2,-0.1 -0.2,-0.1 -0.2,0 m -1.7,-2.6 0,-0.1 -0.1,-0.2 -0.2,-0.2 -0.2,-0.2 -0.3,-0.1 -0.2,0 m 15.6,5.8 -9.6,10.1 m 9.7,-10 -9.3,9.9 m 54.2,-15.4 0.1,0.3 0.2,0.3 0.3,0.3 0.4,0.3 0.3,0.1 0.3,0 0.1,-0.1 0.1,-0.3 0,-0.1 m -1.4,-1.2 -0.2,0 -0.2,0.1 0,0.3 m 0.3,-0.1 0,-0.2 0.2,-0.1 0.2,0 0.3,0.1 0.2,0.2 0.3,0.2 0.2,0.3 0,0.3 0,0.2 -0.1,0.1 -0.3,0 -0.2,-0.1 -0.3,-0.2 -0.3,-0.3 -0.1,-0.2 -0.1,-0.3 m -0.9,0.6 0.1,0.4 0.2,0.3 0.3,0.3 0.4,0.3 0.3,0.1 0.3,0 0.1,-0.1 m -1.6,-1.6 -0.1,0.1 0,0.2 m 1.5,1.6 0.1,-0.1 0,-0.1 m -1.7,-1.4 -0.1,0 0,0.2 m 0.2,0.2 0.1,0.2 0.1,0.3 0.1,0.1 m -0.3,-0.8 0,0 0,0.2 m -46,-4.8 0.1,0.3 0.2,0.3 0.4,0.4 0.3,0.2 0.4,0.1 0.3,0 0.1,-0.2 0.1,-0.2 0,-0.1 m -1.4,-1.3 0,0 -0.3,0 -0.2,0.2 0,0.3 m 0.3,-0.1 0.1,-0.2 0.1,-0.1 0.2,-0.1 0.3,0.1 0.3,0.2 0.3,0.3 0.1,0.3 0.1,0.2 0,0.2 -0.1,0.2 -0.3,0 -0.3,-0.1 -0.2,-0.2 -0.3,-0.3 -0.2,-0.2 -0.1,-0.3 m -0.8,0.7 0.1,0.3 0.2,0.3 0.3,0.4 0.4,0.2 0.3,0.1 0.3,0 0.1,-0.1 m -1.7,-1.6 0,0.1 0,0.3 m 1.5,1.4 0.1,-0.1 m -1.7,-1 0.1,0.2 0.2,0.3 0.1,0.1 m -0.3,-0.8 0,0 -0.1,0.2 m 1.8,1.3 0.1,-0.1 0.1,0 0.1,-0.1 0,-0.1 0.1,-0.1 0,-0.2 -0.1,-0.1 m -0.5,0.5 0,0 0,0.1 0.1,0 0.1,0.1 m -0.3,-0.3 0.1,0.1 m -1.1,-0.5 0.1,0 m -0.3,-0.1 0,0.1 0.1,0 0.1,0 m -0.7,-1.3 0,0.1 0,0.2 0,0.1 0.1,0.2 0,0.1 0.1,0.2 0.2,0.2 0.1,0.1 m -0.4,-1.2 0,0 -0.1,0 m 0.3,0.1 -0.2,-0.1 m 0.2,-0.6 0.2,0.5 m -0.4,-0.7 0,0 0.1,0.1 0.1,0 0,0.1 m -0.2,-0.2 -0.4,0.1 -0.2,0.3 0,0.3 0.1,0.5 0.2,0.4 0.4,0.5 0.4,0.4 0.5,0.4 0.5,0.2 0.4,0.1 0.4,0 0.3,-0.2 0.1,-0.3 0,-0.3 -0.1,-0.5 -0.1,-0.1 m -3.1,-1.4 -0.1,0.2 -0.1,0.3 0.1,0.5 0.2,0.4 0.4,0.5 0.4,0.4 0.5,0.4 0.5,0.2 0.4,0.1 0.4,0 0.3,-0.2 m -1.8,-1.1 0.1,-0.1 m 1.4,0.7 0,0 0,-0.2 0,-0.1 0,-0.1 m -2,-1.2 -0.2,-0.1 m 46.6,3 -0.3,0.1 -0.2,0.2 0,0.3 0,0.4 0.3,0.5 0.3,0.5 0.4,0.4 0.5,0.3 0.5,0.3 0.4,0.1 0.4,0 0.3,-0.1 0.1,-0.3 0,-0.4 -0.1,-0.4 -0.1,-0.2 m -3.1,-1.4 -0.1,0.2 0,0.3 0.1,0.4 0.2,0.5 0.3,0.5 0.4,0.4 0.5,0.3 0.5,0.3 0.4,0.1 0.4,0 0.3,-0.2 m -0.5,-0.4 0.1,-0.1 0.1,0 0.1,-0.1 0,-0.1 0.1,-0.1 0,-0.1 -0.1,-0.2 m -0.5,0.5 0,0 0,0.1 0.1,0 0,0.1 0.1,0 m -0.3,-0.3 0.1,0.1 m -1,-0.5 0,-0.1 m -0.3,0 0.1,0 0,0.1 0.1,0 0.1,0 m -0.8,-1.3 0,0.1 0,0.1 0.1,0.2 0,0.1 0.1,0.2 0.1,0.2 0.1,0.1 0.1,0.2 m -0.3,-1.2 0,0 -0.1,0 -0.1,0 m 0.4,0.1 -0.2,-0.1 m 0.2,-0.5 0.1,0.4 m -0.4,-0.6 0.1,0 0.1,0 0,0.1 0.1,0 0,0.1 m 0.4,1.8 0,-0.1 m 1.3,0.7 0.1,0 0,-0.1 0,-0.1 0,-0.2 m -1.9,-1.2 -0.3,-0.1 m -66.6,55.2 0.4,-0.4 0.5,-0.4 0.5,-0.4 0.5,-0.3 0.5,-0.2 0.3,-0.2 0.3,0 0.2,0 m -3.8,2.9 0,-0.1 0.1,-0.2 0.2,-0.3 0.3,-0.4 m -34,36.1 0,-0.2 0.1,-0.2 0.2,-0.4 0.4,-0.3 0.4,-0.4 0.5,-0.4 0.5,-0.4 0.5,-0.3 0.4,-0.2 0.3,-0.1 0.3,0 0,0.1 m 62.5,-44.2 0.4,-0.4 0.4,-0.4 0.5,-0.4 0.5,-0.3 0.5,-0.2 0.3,-0.2 0.3,0 0.1,0.1 m -3.6,2.8 0,-0.1 0,-0.3 0.2,-0.3 0.4,-0.3 m -16.6,-50.3 -0.9,1 m 12.4,15.8 -12.4,-15.8 m 13.8,15.4 -12.9,-16.4 m 0,0 5.3,-1.6 m 12.8,16.3 -12.8,-16.3 m -0.6,4 0,-0.2 0,-0.1 m 1.8,1.5 0,0.1 -0.1,0 m 14.9,49.4 -0.3,0.4 -0.4,0.3 -0.4,0.2 -0.3,0.2 -0.3,0.1 -0.2,0 0,-0.1 0.1,-0.2 0.3,-0.3 0.3,-0.3 0.4,-0.3 0.4,-0.3 0.4,-0.2 0.2,-0.1 0.2,0 0,0.1 -0.1,0.3 -0.3,0.2 m -33.2,34.3 0.2,-0.3 0.1,-0.2 0,-0.1 -0.1,0 -0.3,0.1 -0.4,0.2 -0.4,0.3 -0.3,0.3 -0.4,0.3 -0.2,0.2 -0.1,0.3 0,0.1 0.2,0 0.2,-0.1 0.4,-0.2 0.4,-0.3 0.4,-0.3 0.3,-0.3 m -0.3,-22.7 -0.2,0.3 -0.2,0.2 0.1,0.2 0.1,0 0.3,-0.1 0.4,-0.2 0.4,-0.3 0.4,-0.3 0.3,-0.3 0.3,-0.3 0.1,-0.3 0,-0.1 -0.2,0 -0.3,0.1 -0.3,0.2 -0.5,0.3 -0.4,0.3 -0.3,0.3 m -0.8,24.5 0,-0.1 0.1,0 0.1,0 0,-0.1 0.1,0 0.1,-0.1 0.1,-0.1 m 0,0 36.8,-38 m 0.1,-0.2 0,0 0.1,0 0,0.1 -0.1,0 0,0.1 -0.1,0 m 0.1,-0.2 -35.4,12.2 m 0,0 -0.1,0 0,0.1 -0.1,0 -0.1,0.1 -0.1,0 0,0.1 -0.1,0 -0.1,0.1 m -37.2,38.9 37.2,-38.9 m -37.2,39.1 -0.1,0 0,-0.1 0.1,-0.1 m 35.8,-12.9 -35.8,13.1 m 3,-2.5 0.3,-0.3 0.4,-0.3 0.4,-0.3 0.4,-0.2 0.3,-0.1 0.2,0 0,0.1 -0.1,0.2 -0.2,0.3 -0.4,0.3 -0.4,0.3 -0.4,0.3 -0.3,0.2 -0.3,0.1 -0.2,0 0,-0.1 0.1,-0.2 0.2,-0.3 m 34.2,-36.6 -0.7,-1 m 0.5,-0.3 0.8,0.9 m -1.3,-0.6 0,0 0.1,-0.1 0.1,0 0.1,-0.1 0.1,-0.1 0.1,0 m -37.7,39.3 37.2,-39 m -36.5,39.9 -0.7,-0.9 m 73.1,-51.5 0.8,0.9 m -0.8,-0.9 -35.4,12.2 m -37.7,39.3 -0.1,0 0,0.1 0,0.1 m 73.3,-51.7 0,0 -0.1,0 M 41.7,16.9 41.6,17 l -0.4,0.4 -0.4,0.3 -0.5,0.3 -0.4,0.3 m 1.5,-1.2 -0.3,0.3 -0.4,0.3 -0.4,0.3 -0.2,0 M 78,3.8 77.7,4.2 77.2,4.5 76.8,4.8 76.4,5.1 76.3,5.1 M 77.8,4 77.5,4.2 77.1,4.5 76.7,4.8 76.6,4.9 m -0.8,-24.8 -0.1,0.1 -0.3,0.4 -0.5,0.3 -0.4,0.4 -0.5,0.2 m 1.6,-1.3 -0.1,0.1 -0.3,0.3 -0.4,0.3 -0.4,0.3 -0.2,0.1 m 37.6,-13.4 -0.1,0.1 -0.4,0.4 -0.4,0.3 -0.5,0.3 -0.3,0.2 m 1.5,-1.2 -0.1,0.1 -0.3,0.3 -0.4,0.3 -0.4,0.2 -0.1,0.1 M 28.2,-9.6 22.6,-3.4 M -13.5,44 22.6,-3.4 M 0.8,50.6 -13.5,44 M 1.9,50.7 0.8,50.6 M 92,-47.1 1.9,50.7 M 92,-47.1 91.4,-47.8 m 0,0 -14.8,-7.4 m 0,0 -48.4,45.6 M 85.5,-52 77.4,-56 m 8.1,3 0,1 m 6.6,2.3 -6.6,-3.3 m 6.6,3.3 122.2,-39 m 0,0 -0.4,-4.7 m 0,0 1,0.5 m 0,0 -0.5,-5.6 m -2.1,-1.1 2.1,1.1 M 84.7,-60.2 212.3,-99.6 m -132.7,36.8 5.1,2.6 m -7.2,-1.9 2.1,-0.7 m -2.1,0.7 -0.1,6.1 m 5.6,-1.8 0.3,0 0.4,0.2 0.4,0.2 0.3,0.3 0.2,0.4 0,0.3 0,0.3 -0.2,0.1 m 0,0 -1.5,0.5 m 0,0 -0.3,0 -0.4,-0.1 -0.4,-0.3 -0.3,-0.3 -0.2,-0.3 -0.1,-0.4 0.1,-0.2 0.2,-0.2 m 0,0 1.5,-0.5 m 8.4,9.1 0,0.9 m -14.8,-8.3 0,0.9 m 14.8,6.5 -6.2,-3.1 m -8.5,-4.3 -0.1,0 m -48.3,45.6 -0.1,0.9 m 48.4,-46.5 -48.3,45.6 m 48.4,-44.7 0.7,-0.8 m 7.3,4.8 0.8,-0.8 m -0.8,0.8 -8,-4 m 0,-6.1 0.8,-0.8 m -0.8,0.8 0,6.1 m 15.4,5.5 -0.7,0.9 m 0,0 -6.1,-3.1 m -3,-5 0.7,-0.9 m -1.7,1.2 1,-0.3 m 9.1,8.1 0.4,0.3 0.3,0.4 0.2,0.4 0,0.2 m 0.8,1.1 -0.8,-1.1 m -0.2,-2.2 0.7,0.8 0.4,0.9 0.1,0.9 -0.2,0.7 m 121.2,-42.3 0.2,0.8 0,1 -0.3,0.9 -0.7,0.7 m 0,0 -120.4,38.9 m -10.8,-10.5 0.3,0 0.3,0.1 0.4,0.2 0.3,0.3 0.2,0.4 0.1,0.1 m 8.1,8.7 0,-0.9 m 0,0 -0.6,-0.7 m 0.9,1.2 0,0 -0.1,-0.2 L 92,-48 m 1.1,1.6 -0.4,-0.2 L 92.1,-47 92,-47.1 M 3.7,50.5 2.9,50.7 2,50.7 1.9,50.7 M 93.1,-46.4 3.7,50.5 M 76.4,5 l -0.2,0.3 -0.1,0.2 0,0.1 0.2,0 L 76.6,5.5 77,5.3 77.5,5 77.9,4.7 78.3,4.3 78.5,4 78.6,3.8 78.6,3.7 78.4,3.7 78.1,3.8 77.6,4 77.2,4.3 76.8,4.7 76.4,5 M 40,18.2 l -0.3,0.3 -0.1,0.2 0.1,0.1 0.2,0 0.4,-0.1 0.4,-0.2 0.5,-0.3 0.4,-0.4 0.4,-0.3 0.2,-0.4 0.1,-0.2 0,-0.1 -0.3,0 -0.3,0.1 -0.4,0.3 -0.5,0.3 -0.5,0.3 -0.3,0.4 m 77.6,-17.9 -0.2,0.3 -0.1,0.2 0.1,0 0.2,0 0.3,-0.2 0.4,-0.2 0.3,-0.3 0.3,-0.3 0.2,-0.2 0.1,-0.2 -0.1,0 -0.2,0 -0.3,0.1 -0.3,0.3 -0.4,0.3 -0.3,0.2 m -85.1,24.6 -0.2,0.2 -0.1,0.2 0.1,0.1 0.3,-0.1 0.3,-0.1 0.4,-0.3 0.4,-0.3 0.3,-0.3 0.2,-0.3 0.1,-0.1 -0.1,-0.1 -0.3,0 -0.3,0.2 -0.4,0.3 -0.4,0.3 -0.3,0.3 m 76.8,-19.7 -0.2,0.3 -0.1,0.2 0,0.1 0.2,0 0.2,-0.1 0.4,-0.1 0.4,-0.3 0.4,-0.3 0.3,-0.3 0.3,-0.3 0.2,-0.3 0,-0.1 0,-0.1 -0.3,0 -0.3,0.2 -0.3,0.2 -0.5,0.3 -0.3,0.3 -0.4,0.3 M 126.9,4 3.7,50.5 m 106.5,-81.4 0.4,-0.4 0.4,-0.3 0.5,-0.3 0.4,-0.3 0.3,-0.1 0.2,0 0.1,0.2 -0.2,0.2 -0.2,0.3 -0.4,0.4 -0.4,0.3 -0.5,0.3 -0.4,0.3 -0.3,0.1 -0.2,0 -0.1,-0.2 0.2,-0.2 0.2,-0.3 m -36.1,12.3 0.4,-0.4 0.4,-0.3 0.5,-0.3 0.4,-0.3 0.4,-0.1 0.2,0 0,0.2 -0.1,0.2 -0.2,0.3 -0.4,0.4 -0.5,0.3 -0.4,0.4 -0.5,0.2 -0.3,0.1 -0.2,0 -0.1,-0.1 0.1,-0.3 0.3,-0.3 m 107.9,-48 0.3,-0.3 0.4,-0.3 0.3,-0.2 0.3,-0.1 0.2,-0.1 0.1,0.1 -0.1,0.2 -0.2,0.3 -0.3,0.3 -0.4,0.3 -0.4,0.2 -0.3,0.2 -0.2,0 0,-0.1 0,-0.2 0.3,-0.3 m -104.1,42.4 0.4,-0.4 0.4,-0.3 0.4,-0.2 0.3,-0.2 0.3,0 0.1,0.1 -0.1,0.2 -0.2,0.2 -0.3,0.4 -0.4,0.3 -0.5,0.2 -0.3,0.2 -0.3,0 0,-0.1 0,-0.2 0.2,-0.2 m 101.5,-43.6 0.3,-0.3 0.4,-0.3 0.5,-0.3 0.3,-0.2 0.4,-0.2 0.2,0 0,0.1 -0.1,0.2 -0.2,0.3 -0.3,0.3 -0.3,0.4 -0.5,0.3 -0.4,0.2 -0.3,0.2 -0.3,0.1 -0.1,-0.1 0,-0.1 0.1,-0.3 0.3,-0.3 m 15.2,-5 0.5,-0.4 0.5,-0.4 0.5,-0.4 0.5,-0.3 0.5,-0.3 0.3,-0.1 0.3,0 0.1,0 0,0.2 -0.1,0.3 -0.3,0.4 -0.4,0.4 -0.5,0.4 -0.5,0.4 -0.5,0.4 -0.5,0.3 -0.4,0.2 -0.4,0 -0.2,0 0,-0.1 0.1,-0.3 0.2,-0.3 0.3,-0.4 m -172,68.5 0,0.9 m 5.7,-7.1 -5.7,6.2 m -36.1,47.4 0,0.9 m 0,-0.9 36.1,-47.4 m -33.6,41.4 1.5,0.7 m -3.7,0.1 2.2,-0.8 m -2.2,0.8 -0.4,6.1 m 7.8,3.6 -7.8,-3.6 m 7.8,3.6 0,0 m -7.8,-3.6 -0.6,0.8 m 8.4,2.8 -0.7,0.7 m 0,0 -7.7,-3.5 m 1,-6.9 -0.6,0.7 m 0,0 -0.4,6.2 m 14.2,5.5 0.1,0 m -0.1,0 -5.8,-2.7 m 5.8,2.7 0.9,0.6 1,0.2 L 2.8,51 3.7,50.5 M 126.6,4.3 126.9,4 m 86.6,-89.3 0.5,-0.4 0.3,-0.6 0.1,-0.2 M 126.9,4 127.1,3.9 m 87.4,-91.9 -0.4,-4.2 m 0.1,0.1 0.7,-0.8 m -0.9,0.7 0.2,0.1 m -57.5,-61.1 -17.1,18.8 m 17.1,-18.8 -20.6,-25.7 m 0,0 -16.7,19 m 20.2,25.5 -20.2,-25.5 m 37.3,6.7 0.4,-0.1 m 0,0 -20.6,-25.7 m -0.4,0.1 0.4,-0.1 m 20.9,26.3 -0.1,0 -0.1,-0.1 -0.1,0 -0.1,-0.1 -0.1,-0.1 -0.1,-0.1 -0.1,-0.1 m 0.6,0 0.1,0.5 m -0.1,-0.5 0,0 -0.1,0 0,-0.1 -0.1,0 m 0.3,0.6 -17.1,18.9 m 0,0 -0.1,-0.1 -0.1,0 -0.1,-0.1 -0.1,-0.1 -0.1,-0.1 -0.1,-0.1 -0.1,-0.1 m 79,14.1 -0.1,-0.5 m 0,0 -61.2,-32.4 m 61.3,32.9 -61.2,-32.4 m 39.3,48 0.7,-0.8 m 3.8,3.4 -4.4,-2.3 m 21.8,-15.9 -17.4,18.2 m -56,-29.2 -4.9,-2.5 m 5.7,1.5 -0.8,1 m 1.2,-0.8 -0.4,-0.2 m 0.1,0.4 0.3,-0.2 m 50.5,26.7 -50.8,-26.5 m 51,26.2 -0.2,0.3 m 0.5,-0.1 -0.3,-0.2 m -51.2,-25.7 50.8,26.5 m -50.4,-19.4 -0.4,-7.1 m 51.5,33.6 -51.1,-26.5 m 50.4,19.4 0.7,7.1 m -9.6,-7.5 0.3,0.1 0.2,0 0.1,-0.1 0,-0.2 -0.1,-0.2 -0.1,-0.2 -0.2,-0.2 -0.3,-0.2 -0.2,-0.1 -0.2,0 -0.1,0.1 0,0.2 0,0.2 0.2,0.2 0.2,0.3 0.2,0.1 m -31.7,-16.5 0.8,0.4 m -0.8,-1.3 -0.3,-0.1 -0.2,0 -0.1,0.1 0,0.1 0,0.2 0.2,0.3 0.2,0.2 0.2,0.1 m 0.7,-0.6 -0.7,-0.3 m 0.8,1.3 0.2,0.1 0.2,0 0.1,-0.1 0,-0.2 0,-0.2 -0.2,-0.2 -0.2,-0.2 -0.2,-0.2 m -10.9,-1.4 -0.4,-7.1 m 0.4,7.1 0.4,-0.5 m -0.4,-7.1 -0.4,0.5 m 51.4,33.6 -51,-26.5 m 51,26.5 0.5,-0.5 m -41.8,-24.5 0.5,-0.4 m 0.2,0.8 0.5,-0.5 m -0.5,0.5 0.3,0.2 0.2,0.2 0.1,0.1 m -10.8,-10.5 0,0.1 -0.1,0.1 0,0.1 -0.1,0.1 0,0.1 m 0.1,-0.8 -0.1,0.2 -0.2,0.2 -0.1,0.2 0,0.2 -0.1,0.2 0,0.1 0,0.2 m 51.2,26 0,-0.1 0,-0.1 0.1,-0.1 0,-0.1 0.1,-0.1 m -41.3,-16.9 0.7,0.4 m 62.9,1.7 -17.3,18.2 m 17.3,-18.2 0,0 -0.1,0 -0.1,0 -0.1,0 -0.1,0 -0.1,-0.1 -0.1,0 m -16.7,18.3 -0.1,0 -0.1,0 -0.1,0 -0.1,0 -0.1,0 -0.1,-0.1 -0.1,0 m 17.5,-18.7 0.5,0.6 m -0.5,-0.6 0,0.1 0,-0.1 -0.1,0 -0.1,0 m -15.8,18.5 -0.8,0.3 m 17.3,-17.6 0,-0.6 m -31.9,14.4 0.2,0.2 0.2,0.2 0.1,0.1 m -248.6,29.2 0.2,1.4 m 0,0 0.1,0.1 0,0.1 0.1,0.1 0.1,0.1 0.1,0 0.1,0.1 0.1,0 0.1,0.1 m 0,0 62.5,29.7 m 0,0 0.1,0.1 0.1,0 0.1,0 0.1,0 0.1,0 0.1,0 m 0,0 17.3,-5.5 m 12.7,-140.5 0.7,0.9 m 16.5,-20 -16.5,20 m 15.2,-20.3 1.3,0.3 m 0.5,-0.1 -0.5,0.1 m -1.1,-0.4 1.6,0.3 m 0.2,0.6 -16.5,20 m 15.8,-20.5 0,0.1 0.1,0 0.1,0.1 0.1,0.1 0.1,0.1 0.1,0 0.1,0.1 0.1,0 m -17.2,19.5 0.1,0.1 0.1,0.1 0.1,0.1 0.1,0.1 0.1,0 0.1,0.1 0.1,0 m 16.3,-20.6 0,0 0,0.1 0.1,0 0.1,0.1 m 0,0.4 0,-0.4 m -10.2,22.3 -0.2,0.2 m 0,0 53.9,28.1 m 0,0 0.3,-0.2 m 0,0 0.3,0.1 m 0,0 -0.8,0.9 m 0,0.2 4.9,2.5 m 16.8,-19.3 -16.8,19.3 m -48.2,-53.7 65,34.4 m -81.5,-14.4 5.2,2.7 m 0,0 0.8,-1 m 0,0 0.3,0.2 m 75.2,12 0,0.5 m -65,-34.8 65,34.3 m -75.7,-4.2 54.2,28.1 m 0,0 -0.2,-7.1 m 0,0 -53.9,-28.1 m 0,0 -0.1,7.1 m 10.1,2.6 -0.2,-0.2 -0.2,-0.2 -0.2,-0.2 0,-0.2 0,-0.2 0.2,-0.1 0.2,0 0.2,0.1 0.3,0.2 0.2,0.2 0.1,0.2 0.1,0.2 -0.1,0.2 -0.1,0.1 -0.2,0 -0.3,-0.1 m 32.9,16.1 0.8,0.4 m 0,0 0.2,0.2 0.2,0.2 0.2,0.2 0,0.2 0,0.2 -0.1,0.1 -0.3,0 -0.2,-0.1 m 0,0 -0.8,-0.4 m 0,0 -0.2,-0.2 -0.2,-0.2 -0.2,-0.2 0,-0.2 0,-0.2 0.2,-0.1 0.2,0 0.2,0.1 m -43.3,-25.3 -0.2,7.1 m 0,0 0.5,-0.5 m 0.1,-7.1 -0.4,0.5 m -0.2,7.1 54.2,28.1 m 0,0 0.5,-0.5 m -43.9,-25.5 -0.1,-0.1 -0.2,-0.2 -0.3,-0.2 -0.1,0 m -9.5,-9.2 0,0 0,-0.1 0.1,-0.1 0,-0.1 0,-0.1 0.1,0 0,-0.1 m 53.9,28.1 0,0.1 -0.1,0.1 0,0.1 -0.1,0.1 0,0.1 m -54.3,-27.6 0,-0.1 0,-0.2 0.1,-0.2 0.1,-0.2 0.1,-0.2 0.1,-0.2 0.1,-0.2 0.1,-0.1 m 76.1,12.9 -16.8,19.3 m 16.1,-19.5 0.1,0.1 0.1,0 0.1,0.1 0.1,0 0.1,0 0.1,0 0.1,0 m -17.5,19.1 0.1,0.1 0.1,0 0.1,0 0.1,0.1 0.1,0 0.1,0 0.1,0 m 16.1,-20 0,0.1 0.1,0 0.1,0 m 0.5,0.6 -0.5,-0.6 m 19.8,-4 -0.5,-0.5 m -19.3,4.5 19.3,-4.5 m -18.8,5.1 19.3,-4.6 m 0,0 -16.7,19 m -19.4,4.9 19.4,-4.9 M 83,-160 l 0.4,-0.5 m -0.4,0.5 -0.1,0 m 0.8,0.4 0.5,-0.5 m 0.1,1 -0.1,-0.1 -0.2,-0.2 -0.3,-0.2 m 0,0 -0.7,-0.4 m 11.5,1.5 0.4,-0.4 m -62.1,121.2 -7.3,-9.7 m -83.3,-41.9 0.4,0 0.4,0.1 0.4,0.2 0.3,0.4 0.3,0.5 0,0.6 0,0.5 -0.2,0.4 -0.3,0.3 -0.4,0.2 -0.4,0 -0.4,-0.2 -0.3,-0.3 -0.3,-0.5 -0.2,-0.5 0,-0.6 0.1,-0.4 0.3,-0.4 0.3,-0.3 m 0,0 0.4,0 0.4,0.1 0.4,0.2 0.3,0.4 0.3,0.5 0,0.6 0,0.5 -0.2,0.4 -0.3,0.3 -0.4,0.2 -0.4,0 -0.4,-0.2 -0.3,-0.3 -0.3,-0.5 -0.2,-0.5 0,-0.6 0.1,-0.4 0.3,-0.4 0.3,-0.3 m 0.1,0 0.3,0 0.4,0.1 0.4,0.2 0.3,0.4 0.3,0.5 0,0.6 0,0.5 -0.2,0.4 -0.3,0.3 -0.3,0.2 m 96,-117 -0.2,0.5 -0.3,0.3 -0.5,0.2 -0.4,0 -0.5,-0.2 -0.4,-0.4 -0.2,-0.5 -0.2,-0.6 0,-0.6 0.2,-0.5 0.3,-0.4 0.4,-0.2 0.5,-0.1 0.4,0.1 0.4,0.3 0.4,0.5 0.2,0.5 0,0.6 -0.1,0.5 m 0,0 -0.2,0.5 -0.3,0.3 -0.4,0.2 m -0.7,-3.5 0.3,0 0.4,0.1 0.4,0.3 0.4,0.5 0.2,0.5 0,0.6 -0.1,0.5 m 0,0 -0.2,0.5 -0.3,0.3 -0.5,0.2 -0.4,0 -0.5,-0.2 -0.4,-0.4 -0.2,-0.5 -0.2,-0.6 0,-0.6 0.2,-0.5 0.3,-0.4 0.4,-0.2 0.5,-0.1 0.4,0.1 0.4,0.3 0.4,0.5 0.2,0.5 0,0.6 -0.1,0.5 m 80.4,202.3 -0.1,0.2 -0.2,0.2 -0.3,0.4 -0.4,0.3 -0.5,0.3 -0.4,0.3 -0.4,0.1 -0.2,0.1 -0.1,0 M 116.9,1 117,0.9 l 0.1,-0.2 0.3,-0.3 0.4,-0.4 0.4,-0.3 0.4,-0.3 0.4,-0.2 0.3,-0.1 0.2,0 m 0,0 0.1,0 m -2.6,2 0,0 0,-0.2 0.1,-0.2 0.3,-0.3 0.4,-0.4 0.4,-0.3 0.4,-0.3 0.4,-0.2 0.3,-0.1 0.2,0 m 0,0 0.1,0 m 0,0.1 0,0 -0.1,0.2 -0.2,0.2 -0.3,0.4 -0.4,0.3 -0.5,0.3 -0.4,0.3 -0.4,0.1 -0.2,0.1 -0.1,0 0,-0.2 0.1,-0.2 0.3,-0.3 0.4,-0.4 0.4,-0.3 0.4,-0.3 0.4,-0.2 0.3,-0.1 0.2,0 m 63,-66.2 0.2,-0.2 0.4,-0.3 m 0,0 0.4,-0.2 0.3,-0.1 0.2,0.1 m -2.7,2.1 0,-0.1 0,-0.2 0.2,-0.3 0.3,-0.3 0.4,-0.4 0.5,-0.3 0.4,-0.3 m 0,0 0.4,-0.2 0.3,-0.1 0.2,0.1 0,0.1 -0.1,0.2 -0.3,0.3 -0.4,0.4 -0.4,0.3 -0.4,0.4 -0.4,0.2 -0.4,0.2 -0.2,0 -0.1,-0.1 0,-0.2 0.2,-0.3 0.3,-0.3 0.4,-0.3 0.5,-0.4 0.4,-0.3 m 29.7,-42.7 0,-0.1 0.1,-0.2 0.2,-0.3 0.4,-0.4 0.4,-0.3 0.4,-0.4 0.4,-0.2 0.4,-0.2 0.2,0 0.1,0 m -2.6,2.1 0,-0.1 0.1,-0.2 0.2,-0.3 0.4,-0.4 0.4,-0.3 0.4,-0.4 0.4,-0.2 0.4,-0.2 0.2,0 0.1,0 m -0.9,1.2 -0.4,0.4 -0.5,0.3 -0.3,0.2 -0.3,0.1 -0.2,-0.1 0,-0.1 0.1,-0.2 0.2,-0.3 0.4,-0.4 0.4,-0.3 0.4,-0.4 0.4,-0.2 0.4,-0.2 0.2,0 0.1,0.1 0,0.2 -0.2,0.2 -0.3,0.4 -0.4,0.3 m -136.7,86.9 0.2,-0.2 0.4,-0.4 m 0,0 0.5,-0.3 0.5,-0.3 0.4,-0.1 0.3,-0.1 0.1,0.1 m -3,2.2 0,-0.1 0.1,-0.3 0.3,-0.3 0.4,-0.4 0.4,-0.4 m 0,0 0.5,-0.3 0.5,-0.3 0.4,-0.1 0.3,-0.1 0.1,0.1 0,0.2 -0.2,0.3 -0.3,0.4 -0.5,0.4 -0.5,0.3 -0.4,0.3 -0.5,0.3 -0.3,0.1 -0.2,-0.1 -0.1,-0.1 0.1,-0.3 0.3,-0.3 0.4,-0.4 0.4,-0.4 m -46.6,50.5 0,0 0,-0.2 0.2,-0.3 0.4,-0.3 0.4,-0.4 0.5,-0.3 0.4,-0.3 0.4,-0.2 0.4,-0.1 0.1,0 m -2.8,2.1 0,0 0,-0.2 0.2,-0.3 0.4,-0.3 0.4,-0.4 0.5,-0.3 0.4,-0.3 0.4,-0.2 0.4,-0.1 0.2,0 m 0,0.2 -0.1,0.2 -0.3,0.3 -0.4,0.4 -0.4,0.3 -0.5,0.4 -0.5,0.2 -0.3,0.2 -0.3,0 -0.1,-0.1 0,-0.2 0.2,-0.3 0.4,-0.3 0.4,-0.4 0.5,-0.3 0.4,-0.3 0.4,-0.2 0.4,-0.1 0.2,0 0,0.2 M -57.8,-87 l 0.3,0.3 0.3,0.1 0.4,0 0.2,-0.2 0.2,-0.4 0.1,-0.4 -0.1,-0.4 -0.2,-0.4 -0.3,-0.3 -0.4,-0.2 -0.3,0.1 -0.3,0.2 -0.2,0.3 0,0.5 0.1,0.4 0.2,0.4 m 106.9,-123.2 -16.9,20.7 m 2.2,-23.3 14.7,2.6 m -71.7,44.7 57,-47.3 m -62,53.6 5,-6.3 m -5,6.3 -36,66.9 m 0,0 1.8,17 m 0,0 10.5,-12.8 m 8,-9.7 2,-2.4 m -0.3,-0.4 0.3,0.4 m -0.1,-0.7 -0.2,0.3 m 0.4,0 -0.2,-0.3 m 80,-103.8 0.2,0.4 0.1,0.5 0,0.5 -0.2,0.4 -0.4,0.2 -0.3,0.1 -0.4,-0.1 -0.4,-0.3 -0.2,-0.4 -0.1,-0.5 0.1,-0.5 0.2,-0.4 0.3,-0.2 0.4,-0.1 0.4,0.1 0.3,0.3 m 11,-5.6 -0.5,0.1 m -14.2,-2.7 14.7,2.6 m -14.7,-2.6 -0.5,0.1 m 15.2,2.5 -17.2,20.9 m -73.5,97 -0.6,-0.3 m 0.6,0.3 67.4,-81.6 m 0,0 -0.6,-0.3 m -67.4,81.6 67.4,-81.6 m 0,0 0.1,-3.7 m 0.5,4 0.2,-3.7 m -68.2,85 0.6,-7.6 m 61.5,-71.1 0.2,-0.2 0.1,0 0.1,0 0,0.2 0,0.2 -0.1,0.2 -0.2,0.3 -0.1,0.3 -0.2,0.1 -0.1,0.1 -0.1,-0.1 0,-0.1 0,-0.3 0.1,-0.2 0.1,-0.3 0.2,-0.2 m -38.2,46.3 0.5,-0.6 m 0,0 0.1,-0.1 0.2,-0.1 0,0.1 0.1,0.1 -0.1,0.3 -0.1,0.2 -0.1,0.3 -0.2,0.2 m 0,0 -0.4,0.6 m 0,0 -0.2,0.1 -0.1,0.1 -0.1,-0.1 0,-0.1 0,-0.2 0.1,-0.3 0.2,-0.3 0.1,-0.2 m 18.1,-21.9 0.5,-0.6 m 0,0 0.1,-0.2 0.2,0 0.1,0 0,0.2 -0.1,0.2 -0.1,0.3 -0.1,0.2 -0.2,0.3 m 0,0 -0.4,0.6 m 0,0 -0.2,0.1 -0.1,0.1 -0.1,-0.1 0,-0.1 0,-0.3 0.1,-0.2 0.1,-0.3 0.2,-0.2 m -37,44.8 0.5,-0.5 m 0,0 0.1,-0.2 0.1,0 0.1,0.1 0,0.1 0,0.2 -0.1,0.3 -0.1,0.3 -0.2,0.2 m 0,0 -0.5,0.5 m 0,0 -0.1,0.2 -0.1,0 -0.1,0 0,-0.2 0,-0.2 0.1,-0.3 0.2,-0.2 0.1,-0.3 m -4.5,1.6 0,0.1 0.1,0 0,0.1 0,0.1 m -0.5,-0.3 0.3,-0.1 m 0,0.5 0.2,-0.1 m -20.2,24.9 -0.5,0.1 m 0.5,-0.1 10.3,-12.5 m 8,-9.8 1.9,-2.2 m 255.9,-12.2 -0.3,0.2 -0.3,0.2 -0.4,0.3 -0.3,0.3 -0.3,0.3 -0.1,0.2 0.1,0.1 0.2,-0.1 0.3,-0.1 0.3,-0.2 0.4,-0.3 0.3,-0.3 0.2,-0.3 0.1,-0.2 0,-0.1 -0.2,0 m -7.6,12.8 13.2,-15.4 m 0,0 -0.1,-5 m 0,0 -18.6,19.6 m 18.2,-20.1 -18.3,19.1 m 18.3,-19.1 0.4,0.5 m -35.5,-43.9 0,0 0.1,0 0,0.1 0.1,0 m 0,0 0.1,0.2 m 0.2,0 0,0 -0.1,0 -0.1,0 m 0.2,0 0,-0.1 m 0,0 0.1,0 0.1,0.1 m 0,0 0.2,0.2 m 0.1,0 0,0 -0.1,0 m 0.1,0 0.1,-0.1 m 0,0 0,0 0.1,0 m 0,0 0.2,0.2 m 0.2,0 -0.1,0 -0.1,0 m 0.2,0 0,-0.1 m 0,0 0,0 0.1,0 m 0,0 0.2,0.2 m 0.2,0 -0.1,0 -0.1,0 m 0.2,0 -0.1,-0.2 m 0,0 0,0 0.1,0 0.1,0 m 0,0 0.2,0.2 m 0.1,0 0,0 -0.1,0 m 0.1,0 0,-0.2 m 0,0 0,0 0.1,0 m 0,0 0.2,0.2 m 0.1,0 0,0 -0.1,0 m 0.1,0 0,-0.2 m 0,0 0,0 0,-0.1 0.1,0 m 0,0 0.2,0.2 m 0.1,-0.1 0,0 0,0.1 -0.1,0 m 0.1,-0.1 -0.1,-0.2 m 0,0 0,0 0.1,0 m 0,0 0.2,0.1 m 0.1,0 0,0 -0.1,0 m 0.1,0 -0.1,-0.2 m 0,0 0,0 0.1,0 0,-0.1 m 0,0 0.2,0.1 m 0.1,0 0,0 -0.1,0 m 0.1,0 -0.1,-0.2 m 0,0 0,-0.1 0.1,0 m 0,0 0.2,0.1 m 0,-0.1 0,0 0,0.1 m 0,-0.1 -0.1,-0.2 m 0,0 0,0 0,-0.1 m 0,0 0.2,0.1 m 0.1,-0.1 0,0 0,0.1 -0.1,0 m 0.1,-0.1 -0.2,-0.2 m 0,0 0,0 0,-0.1 0.1,0 m 0,0 0.2,0 m 0,-0.1 0,0 0,0.1 m 0,-0.1 -0.2,-0.2 m 0,0 0,0 0,-0.1 m 0,0 0.2,0 m 0,-0.1 0,0 0,0.1 m 0,-0.1 -0.2,-0.2 m 0,0 0,0 0,-0.1 m 0,0 0.2,0 m 0,-0.1 0,0 0,0.1 m 0,-0.1 -0.2,-0.2 m 0,0 0,0 0,-0.1 0,-0.1 m 0,0 0.2,0.1 m -0.1,-0.2 0,0 0,0.1 0.1,0 0,0.1 m -0.1,-0.2 -0.2,-0.2 m 0,0 0,0 0,-0.1 m 0,0 0.1,0 m 0,-0.2 0,0 0,0.1 0,0.1 m 0,-0.2 -0.2,-0.2 m 0,0 0,0 -0.1,-0.1 m 0,0 0.2,0 m -0.1,-0.2 0,0 0,0.1 0.1,0 0,0.1 m -0.1,-0.2 -0.2,-0.2 m 0,0 0,0 -0.1,0 0,-0.1 m 0,0 0.1,-0.1 m -0.1,-0.2 0.1,0.1 0,0.1 m -0.1,-0.2 -0.2,-0.1 m 0,0 0,0 0,-0.1 -0.1,0 m 0,0 0.1,-0.1 m -0.1,-0.2 0,0 0.1,0 0,0.1 0,0.1 m -0.1,-0.2 -0.2,-0.1 m 0,0 0,0 0,-0.1 -0.1,0 0,-0.1 m 0,0 0.1,-0.1 m -0.1,-0.1 0,0 0.1,0.1 m -0.1,-0.1 -0.2,-0.1 m 0,0 0,0 -0.1,-0.1 0,-0.1 -0.1,0 m 0,0 0.1,-0.1 m -0.1,-0.2 0,0 0,0.1 0.1,0 0,0.1 m -0.1,-0.2 -0.2,0 m 0,0 0,-0.1 -0.1,0 0,-0.1 -0.1,0 m 0,0 0.1,-0.1 m -0.2,-0.2 0.1,0 0,0.1 0.1,0 0,0.1 m -0.2,-0.2 -0.2,-0.1 m 0,0 0,0 -0.1,-0.1 m 0,0 0,-0.2 m -0.1,-0.1 0,0 0.1,0.1 m -0.1,-0.1 -0.2,-0.1 m 0,0 0,0 -0.1,0 0,-0.1 -0.1,0 m 0,0 0,-0.2 m -0.2,-0.1 0.1,0 0.1,0.1 m -0.2,-0.1 -0.1,0 m 0,0 0,-0.1 -0.1,0 -0.1,-0.1 m 0,0 0,-0.2 m -0.2,-0.1 0,0 0.1,0 0,0.1 0.1,0 m -0.2,-0.1 -0.1,0 m 0,0 -0.1,0 0,-0.1 -0.1,0 m 0,0 -0.1,-0.2 m -0.2,-0.2 0.1,0.1 0.1,0 0,0.1 m -0.2,-0.2 -0.1,0.1 m 0,0 0,0 0,-0.1 -0.1,0 -0.1,-0.1 m 0,0 0,-0.1 m -0.2,-0.2 0,0 0,0.1 0.1,0 0.1,0.1 m -0.2,-0.2 -0.1,0.1 m 0,0 -0.1,0 0,-0.1 -0.1,0 m 0,0 -0.1,-0.2 m -0.2,-0.1 0,0 0.1,0 0.1,0.1 m -0.2,-0.1 -0.1,0 m 0,0 0,0 -0.1,0 -0.1,-0.1 m 0,0 -0.1,-0.2 m -0.2,-0.1 0,0 0.1,0.1 0.1,0 m -0.2,-0.1 -0.1,0.1 m 0,0 0,0 -0.1,0 0,-0.1 m 0,0 -0.2,-0.2 m -0.2,-0.1 0.1,0.1 0.1,0 m -0.2,-0.1 0,0.2 m 0,0 0,0 -0.1,-0.1 -0.1,0 m 0,0 -0.1,-0.2 m -0.2,-0.1 0,0 0.1,0 0,0.1 0.1,0 m -0.2,-0.1 0,0.2 m 0,0 -0.1,-0.1 -0.1,0 m 0,0 -0.2,-0.2 m -0.2,-0.1 0.1,0 0,0.1 0.1,0 m -0.2,-0.1 0,0.2 m 0,0 0,0 -0.1,0 0,-0.1 m 0,0 -0.2,-0.1 m -0.2,-0.1 0,0 0.1,0 0.1,0 0,0.1 m -0.2,-0.1 0,0.2 m 0,0 0,0 -0.1,0 m 0,0 -0.2,-0.2 m -0.2,0 0,0 0.1,0 0.1,0 m -0.2,0 0.1,0.1 m 0,0 -0.1,0 -0.1,0 m 0,0 -0.2,-0.2 m -0.1,0 0,0 0.1,0 m -0.1,0 0,0.2 m 0,0 0,0 -0.1,0 m 0,0 -0.2,-0.1 m -0.2,0 0.1,0 0.1,0 m -0.2,0 0.1,0.2 m 0,0 0,0 -0.1,0 m 0,0 -0.2,-0.1 m -0.1,0 0,0 0.1,0 m -0.1,0 0.1,0.2 m 0,0 -0.1,0 m 0,0 -0.3,-0.1 m -0.1,0.1 0,0 0.1,-0.1 m -0.1,0.1 0.2,0.2 m 0,0 -0.1,0 m 0,0 -0.3,-0.1 m 0,0.1 0,0 0,-0.1 m 0,0.1 0.1,0.2 m 0,0 0,0 -0.1,0 0,0.1 m 0,0 -0.2,-0.2 m -0.1,0.1 0,0 0.1,0 0,-0.1 m -0.1,0.1 0.2,0.2 m 0,0 0,0.1 -0.1,0 m 0,0 -0.2,-0.1 m 0,0.2 0,-0.1 0,-0.1 m 0,0.2 0.1,0.2 m 0,0 0,0 0,0.1 m 0,0 -0.2,-0.1 m 0,0.1 0,0 0,-0.1 m 0,0.1 0.1,0.2 m 0,0 0,0 0,0.1 m 0,0 -0.2,0 m 0,0.1 0,0 0,-0.1 m 0,0.1 0.2,0.2 m 0,0 0,0 0,0.1 m 0,0 -0.2,0 m 0,0.2 0,-0.1 0,-0.1 m 0,0.2 0.2,0.1 m 0,0 0,0.1 0.1,0 0,0.1 m 0,0 -0.2,0 m 0,0.1 0,0 0,-0.1 m 0,0.1 0.2,0.2 m 0,0 0,0 0,0.1 0.1,0 0,0.1 m 0,0 -0.2,0 m 0.1,0.1 -0.1,0 0,-0.1 m 0.1,0.1 0.2,0.2 m 0,0 0,0 0,0.1 m 0,0 -0.1,0.1 m 0.1,0.2 -0.1,-0.1 0,-0.1 m 0.1,0.2 0.2,0.1 m 0,0 0,0 0,0.1 0,0.1 m 0,0 -0.1,0 m 0.1,0.2 0,0 0,-0.1 -0.1,0 0,-0.1 m 0.1,0.2 0.2,0.1 m 0,0 0,0 0.1,0.1 0,0.1 m 0,0 -0.1,0 m 0.1,0.2 0,0 0,-0.1 -0.1,0 0,-0.1 m 0.1,0.2 0.2,0.1 m 0,0 0,0.1 0.1,0 0,0.1 m 0,0 -0.1,0.1 m 0.2,0.2 0,0 -0.1,-0.1 0,-0.1 -0.1,0 m 0.2,0.2 0.2,0.1 m 0,0 0,0 0,0.1 0.1,0 m 0,0 -0.1,0.1 m 0.2,0.2 0,0 -0.1,0 0,-0.1 -0.1,0 0,-0.1 m 0.2,0.2 0.2,0.1 m 0,0 0,0 0,0.1 0.1,0 0,0.1 m 0,0 0,0.1 m 0.1,0.2 0,-0.1 -0.1,0 0,-0.1 m 0.1,0.2 0.2,0 m 0,0 0,0 0,0.1 0.1,0 0,0.1 0.1,0 m 0,0 -0.1,0.1 m 0.2,0.2 0,0 0,-0.1 -0.1,0 0,-0.1 -0.1,0 m 0.2,0.2 0.2,0 m 0,0 0,0 0,0.1 0.1,0 0,0.1 m 0,0 0,0.1 m 0.2,0.2 0,0 -0.1,-0.1 -0.1,-0.1 m 0.2,0.2 0.2,0 m 0,0 0,0 0,0.1 0.1,0 0.1,0.1 m 0,0 0,0.1 m 0.2,0.2 -0.1,0 0,-0.1 -0.1,0 0,-0.1 m 0.2,0.2 0.1,0 m 0,0 0,0 0.1,0 0,0.1 0.1,0 m 0,0 0,0.2 m 0.2,0.1 0,0 -0.1,0 0,-0.1 -0.1,0 m 0.2,0.1 0.1,0 m 0,0 0.1,0 0.1,0.1 m 0,0 0.1,0.2 m 0.2,0.1 0,0 -0.1,0 -0.1,-0.1 m 0.2,0.1 0.1,0 m 0,0 0,0 0.1,0 0,0.1 0.1,0 m 0,0 0.1,0.2 m 0.2,0.1 -0.1,0 -0.1,-0.1 m 0.2,0.1 0.1,-0.1 m 0,0 0,0 0,0.1 0.1,0 0.1,0 m 0,0 0.1,0.2 m 0.2,0.1 -0.1,0 -0.1,0 0,-0.1 m 0.2,0.1 0,-0.1 m 0,0 0.1,0 0,0.1 0.1,0 m 0,0 0.1,0.2 m 0.2,0.1 0,0 -0.1,0 0,-0.1 -0.1,0 m 0.2,0.1 0.1,-0.1 m -0.1,-1.8 -1.6,-0.8 m 0,0 0,-0.2 m 1.5,0.9 0.1,0.1 m -0.4,-0.3 0,0.1 m -103,-53.5 0.1,0 0,0.1 0.1,0 m 0,0 0.2,0.2 m 0.2,0.1 -0.1,0 -0.1,0 0,-0.1 m 0.2,0.1 0,-0.1 m 0,0 0,0 0.1,0 0.1,0 m 0,0 0.2,0.2 m 0.2,0.1 -0.1,0 -0.1,0 0,-0.1 m 0.2,0.1 0,-0.2 m 0,0 0,0.1 0.1,0 0.1,0 m 0,0 0.1,0.2 m 0.2,0 0,0 -0.1,0 -0.1,0 m 0.2,0 0,-0.1 m 0,0 0.1,0 0.1,0 m 0,0 0.2,0.2 m 0.2,0 0,0 -0.1,0 -0.1,0 m 0.2,0 0,-0.2 m 0,0 0,0 0.1,0.1 m 0,0 0.2,0.1 m 0.2,0 0,0 -0.1,0 -0.1,0 m 0.2,0 -0.1,-0.1 m 0,0 0.1,0 0.1,0 0,-0.1 m 0,0 0.2,0.2 m 0.2,0 -0.1,0 -0.1,0 m 0.2,0 -0.1,-0.2 m 0,0 0,0 0.1,0 m 0,0 0.2,0.2 m 0.2,-0.1 0,0 -0.1,0 -0.1,0.1 m 0.2,-0.1 -0.1,-0.2 m 0,0 0,0 0.1,0 m 0,0 0.2,0.1 m 0.2,0 -0.1,0 -0.1,0 m 0.2,0 -0.2,-0.2 m 0,0 0.1,0 0,-0.1 m 0,0 0.3,0.1 m 0.1,0 0,0 -0.1,0 m 0.1,0 -0.2,-0.2 m 0,0 0.1,-0.1 m 0,0 0.3,0.1 m 0,-0.1 0,0 0,0.1 m 0,-0.1 -0.1,-0.2 m 0,0 0,0 0,-0.1 0.1,0 m 0,0 0.2,0.1 m 0,-0.1 0,0 0,0.1 m 0,-0.1 -0.1,-0.2 m 0,0 0,0 0,-0.1 m 0,0 0.2,0.1 m 0.1,-0.2 0,0.1 -0.1,0.1 m 0.1,-0.2 -0.2,-0.1 m 0,0 0,-0.1 0,-0.1 m 0,0 0.2,0.1 m 0.1,-0.1 0,0 0,0.1 -0.1,0 m 0.1,-0.1 -0.2,-0.2 m 0,0 0,-0.1 0,-0.1 m 0,0 0.2,0.1 m 0,-0.2 0,0 0,0.1 0,0.1 m 0,-0.2 -0.2,-0.2 m 0,0 0,0 0,-0.1 m 0,0 0.2,0 m -0.1,-0.1 0,0 0,0.1 0.1,0 m -0.1,-0.1 -0.2,-0.2 m 0,0 0,0 0,-0.1 0,-0.1 m 0,0 0.2,0 m -0.1,-0.1 0,0 0,0.1 0.1,0 m -0.1,-0.1 -0.2,-0.2 m 0,0 0,0 0,-0.1 -0.1,-0.1 m 0,0 0.2,0 m -0.1,-0.2 0.1,0.1 0,0.1 m -0.1,-0.2 -0.2,-0.1 m 0,0 0,0 0,-0.1 0,-0.1 m 0,0 0.1,0 m -0.1,-0.2 0,0 0,0.1 0.1,0 0,0.1 m -0.1,-0.2 -0.2,-0.1 m 0,0 0,0 0,-0.1 -0.1,0 0,-0.1 m 0,0 0.1,-0.1 m -0.1,-0.1 0,0 0.1,0 0,0.1 m -0.1,-0.1 -0.2,-0.1 m 0,0 0,-0.1 -0.1,0 0,-0.1 m 0,0 0.1,-0.1 m -0.1,-0.2 0,0 0,0.1 0.1,0 0,0.1 m -0.1,-0.2 -0.2,-0.1 m 0,0 -0.1,0 0,-0.1 -0.1,0 0,-0.1 m 0,0 0.1,-0.1 m -0.1,-0.1 0,0 0.1,0.1 m -0.1,-0.1 -0.2,-0.1 m 0,0 -0.1,0 0,-0.1 -0.1,-0.1 m 0,0 0.1,-0.1 m -0.2,-0.2 0.1,0 0,0.1 0.1,0.1 m -0.2,-0.2 -0.2,0 m 0,0 0,-0.1 -0.1,0 0,-0.1 m 0,0 0,-0.1 m -0.2,-0.2 0.1,0 0,0.1 0.1,0 0,0.1 m -0.2,-0.2 -0.2,0 m 0,0 0,-0.1 -0.1,-0.1 m 0,0 0,-0.2 m -0.2,-0.1 0,0 0.1,0 0,0.1 0.1,0 m -0.2,-0.1 -0.2,0 m 0,0 0,-0.1 -0.1,0 0,-0.1 m 0,0 0,-0.2 m -0.2,-0.1 0,0 0.1,0.1 0.1,0 m -0.2,-0.1 -0.2,0 m 0,0 0,0 0,-0.1 -0.1,0 -0.1,0 0,-0.1 m 0,0 0,-0.1 m -0.2,-0.2 0,0 0.1,0.1 0.1,0 0,0.1 m -0.2,-0.2 -0.2,0 m 0,0 0,0 -0.1,0 0,-0.1 -0.1,0 m 0,0 0,-0.2 m -0.2,-0.1 0,0 0.1,0 0,0.1 0.1,0 m -0.2,-0.1 -0.1,0 m 0,0 -0.1,0 -0.1,0 0,-0.1 m 0,0 -0.1,-0.2 m -0.2,-0.1 0,0 0.1,0 0,0.1 0.1,0 m -0.2,-0.1 -0.1,0.1 m 0,0 -0.1,0 0,-0.1 -0.1,0 m 0,0 -0.1,-0.2 m -0.2,-0.2 0,0.1 0.1,0 0.1,0 0,0.1 m -0.2,-0.2 -0.1,0.1 m 0,0 0,0 -0.1,0 -0.1,0 0,-0.1 m 0,0 -0.1,-0.2 m -0.2,0 0,0 0.1,0 0.1,0 m -0.2,0 -0.1,0.1 m 0,0 0,0 -0.1,-0.1 -0.1,0 m 0,0 -0.1,-0.2 m -0.2,-0.1 0,0 0.1,0 0,0.1 0.1,0 m -0.2,-0.1 -0.1,0.1 m 0,0 0,0 -0.1,0 -0.1,0 m 0,0 -0.1,-0.2 m -0.2,-0.1 0,0 0.1,0 0,0.1 0.1,0 m -0.2,-0.1 -0.1,0.2 m 0,0 0,-0.1 -0.1,0 m 0,0 -0.2,-0.2 m -0.2,0 0,0 0.1,0 0.1,0 m -0.2,0 0,0.1 m 0,0 0,0 -0.1,0 -0.1,0 m 0,0 -0.2,-0.2 m -0.1,0 0,0 0.1,0 m -0.1,0 0,0.2 m 0,0 0,0 -0.1,-0.1 -0.1,0 m 0,0 -0.2,-0.1 m -0.1,0 0,0 0.1,0 m -0.1,0 0,0.1 m 0,0 0,0 -0.1,0 -0.1,0 m 0,0 -0.2,-0.1 m -0.1,0 0,0 0.1,0 m -0.1,0 0,0.2 m 0,0 0,0 -0.1,0 m 0,0 -0.2,-0.2 m -0.1,0.1 0,0 0,-0.1 0.1,0 m -0.1,0.1 0,0.2 m 0,0 0,0 -0.1,0 m 0,0 -0.2,-0.1 m -0.1,0 0,0 0.1,0 m -0.1,0 0.1,0.2 m 0,0 0,0 -0.1,0 0,0.1 m 0,0 -0.2,-0.2 m -0.1,0.1 0,0 0.1,-0.1 m -0.1,0.1 0.1,0.2 m 0,0 0,0 -0.1,0 0,0.1 m 0,0 -0.2,-0.1 m -0.1,0.1 0,0 0,-0.1 0.1,0 m -0.1,0.1 0.1,0.2 m 0,0 0,0 0,0.1 m 0,0 -0.3,-0.1 m 0,0.1 0,0 0,-0.1 m 0,0.1 0.1,0.2 m 0,0 0,0 0,0.1 m 0,0 -0.2,-0.1 m -0.1,0.1 0,0 0,-0.1 0.1,0 m -0.1,0.1 0.2,0.2 m 0,0 0,0 0,0.1 m 0,0 -0.2,0 m -0.1,0.1 0,0 0,-0.1 0.1,0 m -0.1,0.1 0.2,0.2 m 0,0 0,0 0,0.1 m 0,0 -0.2,0 m 0,0.1 0,0 0,-0.1 m 0,0.1 0.2,0.2 m 0,0 0,0 0,0.1 0,0.1 m 0,0 -0.2,0 m 0.1,0.1 0,0 0,-0.1 -0.1,0 m 0.1,0.1 0.2,0.2 m 0,0 0,0 0,0.1 m 0,0 -0.2,0 m 0.1,0.2 0,0 0,-0.1 -0.1,0 0,-0.1 m 0.1,0.2 0.2,0.2 m 0,0 0,0 0,0.1 m 0,0 -0.1,0.1 m 0,0.1 0,0 0,-0.1 m 0,0.1 0.3,0.2 m 0,0 0,0 0,0.1 m 0,0 -0.1,0.1 m 0.1,0.2 0,-0.1 -0.1,0 0,-0.1 m 0.1,0.2 0.2,0.1 m 0,0 0,0 0,0.1 0.1,0 0,0.1 m 0,0 -0.1,0 m 0.1,0.2 0,0 -0.1,0 0,-0.1 0,-0.1 m 0.1,0.2 0.2,0.1 m 0,0 0,0 0,0.1 0.1,0 0,0.1 m 0,0 -0.1,0.1 m 0.1,0.2 0,-0.1 -0.1,0 0,-0.1 m 0.1,0.2 0.2,0.1 m 0,0 0.1,0 0,0.1 0.1,0 m 0,0 -0.1,0.1 m 0.1,0.2 0,0 -0.1,-0.1 0,-0.1 m 0.1,0.2 0.2,0.1 m 0,0 0,0 0.1,0 0,0.1 0.1,0 0,0.1 m 0,0 -0.1,0.1 m 0.2,0.2 -0.1,0 0,-0.1 -0.1,-0.1 m 0.2,0.2 0.2,0 m 0,0 0,0 0,0.1 0.1,0 0,0.1 m 0,0 0,0.1 m 0.1,0.2 0,0 0,-0.1 -0.1,0 0,-0.1 m 0.1,0.2 0.2,0 m 0,0 0.1,0.1 0.1,0 0,0.1 m 0,0 0,0.2 m 0.2,0.1 0,0 -0.1,0 0,-0.1 -0.1,0 m 0.2,0.1 0.2,0 m 0,0 0,0.1 0.1,0 0,0.1 m 0,0 0,0.2 m 0.2,0.1 0,0 -0.1,-0.1 -0.1,0 m 0.2,0.1 0.2,0 m 0,0 0,0 0.1,0.1 0.1,0 0,0.1 m 0,0 0,0.1 m 0.2,0.2 0,0 -0.1,-0.1 -0.1,0 0,-0.1 m 0.2,0.2 0.2,0 m 0,0 0,0 0.1,0 0,0.1 0.1,0 m 0,0 0,0.2 m 0.2,0.1 0,0 -0.1,0 0,-0.1 -0.1,0 m 0.2,0.1 0.2,0 m 0,0 0,0 0.1,0 0,0.1 m 0,0 0.1,0.2 m 0.2,0.1 0,0 -0.1,-0.1 -0.1,0 m 0.2,0.1 0.1,-0.1 m 0,0 0.1,0 0,0.1 0.1,0 m 0,0 0.1,0.2 m 0.2,0.2 0,-0.1 -0.1,0 -0.1,-0.1 m 0.2,0.2 0.1,-0.1 m 0,0 0.1,0 0.1,0 0,0.1 m 0,0 0.2,0.2 m 0.2,0.1 -0.1,-0.1 -0.1,0 m 0.2,0.1 0,-0.2 m 0,-1.7 -1.6,-0.9 m 0,0 0,-0.2 m 1.6,0.9 0,0.2 m -0.2,-0.3 -0.1,0.1 m 125,64.9 0.1,1.3 -0.1,1.2 -0.2,1.2 -0.3,1 -0.5,1 -0.6,0.9 -0.7,0.7 -0.8,0.7 -1,0.5 -1.1,0.4 -1.1,0.3 -1.3,0.1 -1.4,0 -1.4,-0.1 -1.6,-0.2 -0.6,-0.2 m -31.4,-28.6 -0.3,-0.8 -0.3,-1.5 -0.3,-1.4 0,-1.3 0,-1.3 0.2,-1.2 0.3,-1.1 0.4,-1 0.6,-0.8 0.7,-0.8 0.8,-0.7 1,-0.5 1,-0.4 1.2,-0.3 1.2,-0.2 1.4,0 1.4,0.1 1.5,0.2 1.5,0.4 1.6,0.4 1.6,0.6 1.7,0.7 1.7,0.8 1.7,0.9 1.8,1 1.7,1.1 1.7,1.2 1.7,1.3 1.6,1.3 1.6,1.4 1.5,1.5 1.5,1.5 1.4,1.5 1.4,1.6 1.2,1.6 1.2,1.6 1,1.7 1,1.6 0.8,1.6 0.7,1.6 0.6,1.5 0.5,1.5 0.3,1.5 0.2,1.4 m -17,-9.2 0,0.7 -0.1,0.5 -0.3,0.4 -0.4,0.4 -0.5,0.2 -0.7,0 -0.7,0 -0.8,-0.2 -0.8,-0.3 -0.9,-0.5 -0.8,-0.5 -0.9,-0.7 -0.8,-0.7 -0.7,-0.7 -0.7,-0.8 -0.6,-0.8 -0.4,-0.9 -0.3,-0.7 -0.2,-0.8 -0.1,-0.6 0.1,-0.6 0.2,-0.5 0.4,-0.4 0.4,-0.2 0.6,-0.2 0.7,0 0.8,0.2 0.8,0.2 0.8,0.4 0.9,0.5 0.8,0.6 0.9,0.7 0.7,0.7 0.7,0.8 0.6,0.8 0.5,0.8 0.4,0.8 0.3,0.7 0.1,0.7 m -1,4.4 -0.2,0 -0.2,0 -0.2,0.1 -0.1,0.1 -0.1,0.1 -0.1,0.1 0,0.2 0,0.2 m 0.9,-0.8 0.1,0 0.2,0 0.1,0 0.2,0 0.2,0 0.1,0 0.1,0 0.2,-0.1 m 1.8,0.7 -0.2,-0.1 -0.3,-0.2 -0.2,-0.1 -0.3,-0.1 -0.2,-0.1 -0.2,-0.1 -0.2,0 -0.2,0 m 1.8,0.7 7.6,5.8 m 1.2,2.9 0.1,-0.2 0.1,-0.3 0,-0.4 -0.1,-0.4 -0.3,-0.4 -0.3,-0.4 -0.3,-0.4 -0.4,-0.4 m 1.2,2.9 -0.9,0.4 -1,0.4 -1,0.2 -1.2,0.2 -1.2,-0.1 -1.4,-0.1 -1.4,-0.3 -1.4,-0.4 m -2.6,-2.7 0,0.4 0.2,0.4 0.3,0.4 0.3,0.4 0.4,0.4 0.5,0.3 0.4,0.3 0.5,0.1 m -2.6,-2.7 -0.6,-6.1 m -5.7,-3.1 0.5,6.1 m -2.4,0.1 0.4,0.3 0.5,0.2 0.4,0.2 0.4,0 0.3,-0.1 0.2,-0.1 0.1,-0.3 0.1,-0.3 m -2.4,0.1 -1.5,-1.2 -1.5,-1.3 -1.5,-1.3 -1.4,-1.4 -1.3,-1.5 -1.2,-1.5 -1.2,-1.4 -1,-1.6 m 0.8,-1.7 -0.4,-0.1 -0.3,0.1 -0.3,0.1 -0.1,0.2 -0.1,0.3 0,0.3 0.2,0.4 0.2,0.4 m 0.8,-1.7 7.3,2.1 m 1.9,1.3 -0.2,-0.2 -0.2,-0.2 -0.2,-0.2 -0.3,-0.2 -0.2,-0.1 -0.3,-0.2 -0.2,-0.1 -0.3,-0.1 m 1.9,1.3 0.2,0.2 0.1,0.2 0.2,0.2 0.2,0.2 0.2,0.1 0.1,0.2 0.2,0.2 0.2,0.2 m 1.1,1.8 -0.1,-0.2 0,-0.2 -0.1,-0.3 -0.2,-0.2 -0.1,-0.2 -0.2,-0.3 -0.2,-0.2 -0.2,-0.2 m -5.4,-8 -7.3,-2.1 m -2.6,-2.7 0.1,0.3 0.2,0.4 0.2,0.5 0.4,0.4 0.4,0.3 0.4,0.4 0.5,0.2 0.4,0.2 m -2.6,-2.7 -0.1,-1.2 0.1,-1.2 0.2,-1 0.3,-1 0.5,-0.8 0.6,-0.7 0.7,-0.6 0.9,-0.5 m 3,1.6 -0.3,-0.4 -0.4,-0.4 -0.4,-0.3 -0.4,-0.3 -0.5,-0.2 -0.4,-0.1 -0.3,0 -0.3,0.1 m 3,1.6 5,7.3 m 0.3,1.6 0.1,-0.1 0,-0.2 0,-0.2 0,-0.2 -0.1,-0.2 -0.1,-0.2 -0.1,-0.2 -0.1,-0.3 m 0.3,1.6 -0.1,0.1 0,0.1 -0.1,0.1 0,0.1 -0.1,0.1 0,0.2 -0.1,0.1 0,0.1 m -1.2,0.4 0.2,0.1 0.2,0 0.2,0 0.2,0 0.1,-0.1 0.2,-0.1 0,-0.1 0.1,-0.2 m 4.5,-2.6 -4.9,-7.2 m 0.7,-1.8 -0.4,0 -0.3,0 -0.3,0.1 -0.1,0.2 -0.1,0.3 0.1,0.4 0.1,0.4 0.3,0.4 m 0.7,-1.8 1.5,0.5 1.5,0.6 1.5,0.7 1.6,0.8 1.5,0.8 1.6,1 1.5,1.1 1.5,1.2 m 1.1,2.7 0.2,-0.2 0.1,-0.3 0,-0.3 -0.1,-0.4 -0.2,-0.4 -0.3,-0.4 -0.3,-0.4 -0.5,-0.3 m 1.1,2.7 -4,2.4 m -1.7,-0.4 0.2,0.2 0.3,0.1 0.2,0.1 0.2,0 0.3,0.1 0.1,-0.1 0.2,0 0.2,0 m -1.7,-0.4 -0.2,-0.1 -0.2,-0.1 -0.2,-0.1 -0.2,-0.1 -0.2,-0.1 -0.2,-0.1 -0.2,-0.1 -0.2,-0.1 m -1.8,-1.6 0.2,0.3 0.2,0.2 0.2,0.2 0.2,0.2 0.2,0.2 0.3,0.2 0.2,0.1 0.3,0.2 m 8.1,6.2 4.1,-2.4 m 3,1.6 -0.3,-0.4 -0.4,-0.4 -0.5,-0.3 -0.4,-0.3 -0.4,-0.1 -0.4,-0.1 -0.4,-0.1 -0.2,0.1 m 3,1.6 1,1.5 0.9,1.5 0.7,1.4 0.7,1.5 0.5,1.4 0.4,1.3 0.3,1.3 0.1,1.3 m -2.3,0 0.4,0.3 0.5,0.2 0.4,0.2 0.4,0 0.3,0 0.2,-0.2 0.1,-0.2 0,-0.3 m -2.3,0 -7.5,-5.8 m -1.4,-1.8 0.1,0.3 0.1,0.2 0.2,0.2 0.1,0.3 0.2,0.2 0.2,0.2 0.3,0.2 0.2,0.2 m -1.4,-1.8 0,-0.1 -0.1,-0.2 -0.1,-0.2 0,-0.2 -0.1,-0.1 -0.1,-0.2 -0.1,-0.2 -0.1,-0.2 m 0.1,-1.4 -0.1,0.1 -0.1,0.1 -0.1,0.2 0,0.2 0,0.1 0.1,0.3 0,0.2 0.1,0.2 m -86.2,-44 0,1.3 -0.2,1.2 -0.3,1.1 -0.5,1 -0.6,1 -0.7,0.8 -0.9,0.7 -1,0.6 -1.1,0.5 -1.2,0.3 -1.3,0.3 -1.5,0 -1.5,0 -1.6,-0.2 -1.2,-0.2 m -32.6,-27.1 -0.1,-0.3 -0.6,-1.6 -0.4,-1.5 -0.2,-1.5 -0.2,-1.4 0,-1.3 0.2,-1.3 0.3,-1.1 0.4,-1.1 0.6,-0.9 0.7,-0.9 0.9,-0.7 1,-0.6 1,-0.5 1.2,-0.3 1.3,-0.3 1.4,-0.1 1.5,0.1 1.6,0.1 1.6,0.3 1.7,0.4 1.7,0.5 1.8,0.6 1.8,0.8 1.8,0.8 1.8,1 1.9,1.1 1.8,1.1 1.7,1.3 1.8,1.3 1.7,1.4 1.6,1.4 1.6,1.5 1.5,1.6 1.5,1.6 1.3,1.6 1.2,1.6 1.2,1.6 1,1.7 0.9,1.6 0.8,1.6 0.6,1.6 0.6,1.5 0.3,1.5 0.3,1.5 0.1,1.4 m -18,-9.7 -0.1,0.6 -0.2,0.5 -0.3,0.4 -0.5,0.3 -0.6,0.2 -0.7,0.1 -0.8,-0.1 -0.9,-0.3 -0.9,-0.3 -0.9,-0.5 -0.9,-0.5 -0.9,-0.7 -0.8,-0.7 -0.8,-0.8 -0.6,-0.8 -0.6,-0.8 -0.4,-0.9 -0.3,-0.7 -0.2,-0.8 0,-0.6 0.2,-0.6 0.3,-0.5 0.4,-0.3 0.5,-0.3 0.7,-0.1 0.7,0.1 0.9,0.1 0.8,0.3 1,0.4 0.9,0.5 0.9,0.7 0.8,0.6 0.8,0.8 0.7,0.8 0.6,0.8 0.5,0.8 0.4,0.8 0.2,0.8 0.1,0.7 m -1.6,4.2 -0.2,0 -0.2,0 -0.2,0.1 -0.1,0.1 -0.1,0.1 -0.1,0.1 -0.1,0.2 0,0.1 m 1,-0.7 0.2,0 0.2,0 0.2,0.1 0.1,0 0.2,0 0.2,0 0.1,-0.1 0.2,0 m 2,0.8 -0.3,-0.2 -0.3,-0.2 -0.2,-0.1 -0.3,-0.1 -0.2,-0.1 -0.3,-0.1 -0.2,0 -0.2,0 m 2,0.8 7.8,6 m 1.1,2.8 0.2,-0.2 0.1,-0.2 0,-0.4 -0.1,-0.4 -0.2,-0.4 -0.3,-0.4 -0.4,-0.4 -0.4,-0.4 m 1.1,2.8 -1,0.5 -1.1,0.3 -1.2,0.2 -1.3,0 -1.4,0 -1.5,-0.2 -1.5,-0.3 -1.6,-0.5 m -2.6,-2.8 0,0.4 0.2,0.4 0.3,0.4 0.3,0.4 0.4,0.4 0.5,0.4 0.5,0.2 0.4,0.2 m -2.6,-2.8 -0.1,-6.1 m -6.1,-3.2 0,6 m -2.6,0 0.5,0.3 0.4,0.3 0.5,0.1 0.4,0.1 0.4,-0.1 0.2,-0.1 0.2,-0.3 0,-0.3 m -2.6,0 -1.6,-1.2 -1.6,-1.4 -1.5,-1.3 -1.4,-1.5 -1.3,-1.5 -1.2,-1.5 -1.2,-1.5 -1,-1.5 m 1.1,-1.7 -0.5,-0.1 -0.3,0 -0.3,0.1 -0.2,0.2 -0.1,0.3 0,0.4 0.1,0.4 0.2,0.4 m 1.1,-1.7 7.9,2.4 m 2,1.4 -0.2,-0.2 -0.3,-0.3 -0.2,-0.2 -0.3,-0.2 -0.2,-0.1 -0.3,-0.2 -0.3,-0.1 -0.2,-0.1 m 2,1.4 0.1,0.2 0.2,0.2 0.2,0.1 0.2,0.2 0.1,0.2 0.2,0.2 0.2,0.2 0.2,0.1 m 1,1.9 0,-0.2 -0.1,-0.2 -0.1,-0.3 -0.1,-0.2 -0.1,-0.3 -0.2,-0.2 -0.2,-0.2 -0.2,-0.3 m -5.3,-8 -7.9,-2.4 m -2.7,-2.8 0.1,0.4 0.2,0.4 0.2,0.4 0.4,0.4 0.4,0.4 0.5,0.3 0.4,0.3 0.5,0.2 m -2.7,-2.8 0.1,-1.2 0.1,-1.1 0.4,-1 0.4,-0.9 0.6,-0.8 0.8,-0.7 0.8,-0.6 1,-0.4 m 3.2,1.7 -0.3,-0.4 -0.4,-0.4 -0.4,-0.3 -0.5,-0.3 -0.5,-0.2 -0.4,-0.2 -0.4,0 -0.3,0.1 m 3.2,1.7 4.9,7.4 m 0.2,1.6 0.1,-0.2 0,-0.1 0.1,-0.2 -0.1,-0.2 0,-0.2 -0.1,-0.2 -0.1,-0.3 -0.1,-0.2 m 0.2,1.6 -0.1,0.1 -0.1,0.1 -0.1,0.1 0,0.1 -0.1,0.1 0,0.1 -0.1,0.1 0,0.1 m -1.4,0.4 0.2,0.1 0.3,0 0.2,0 0.2,0 0.1,-0.1 0.2,-0.1 0.1,-0.1 0.1,-0.2 m 5.2,-2.3 -4.9,-7.3 m 1,-1.7 -0.4,-0.1 -0.4,0 -0.3,0.1 -0.2,0.2 0,0.3 0,0.4 0.1,0.3 0.2,0.5 m 1,-1.7 1.6,0.5 1.6,0.6 1.6,0.8 1.7,0.8 1.7,1 1.6,1 1.6,1.1 1.6,1.2 m 1,2.7 0.2,-0.1 0.1,-0.3 0,-0.3 0,-0.4 -0.2,-0.4 -0.3,-0.4 -0.4,-0.4 -0.4,-0.4 m 1,2.7 -4.8,2.2 m -1.8,-0.4 0.3,0.1 0.2,0.2 0.3,0.1 0.2,0 0.3,0.1 0.2,0 0.2,-0.1 0.1,0 m -1.8,-0.4 -0.2,-0.1 -0.2,-0.2 -0.2,-0.1 -0.2,-0.1 -0.2,-0.1 -0.3,-0.1 -0.2,-0.1 -0.2,-0.1 m -1.8,-1.6 0.1,0.2 0.2,0.3 0.3,0.2 0.2,0.2 0.2,0.2 0.3,0.2 0.3,0.1 0.2,0.2 m 8.5,6.5 4.7,-2.2 m 3.2,1.7 -0.3,-0.4 -0.4,-0.4 -0.5,-0.3 -0.4,-0.3 -0.5,-0.2 -0.4,-0.2 -0.4,0 -0.3,0.1 m 3.2,1.7 0.9,1.5 0.9,1.5 0.7,1.4 0.6,1.5 0.5,1.4 0.3,1.3 0.2,1.3 0.1,1.3 m -2.6,-0.1 0.4,0.3 0.5,0.3 0.5,0.1 0.4,0.1 0.3,-0.1 0.3,-0.1 0.1,-0.2 0.1,-0.3 m -2.6,-0.1 -7.8,-6 m -1.4,-1.8 0.1,0.2 0.1,0.2 0.1,0.3 0.2,0.2 0.2,0.2 0.2,0.3 0.2,0.2 0.3,0.2 m -1.4,-1.8 0,-0.2 -0.1,-0.2 0,-0.2 -0.1,-0.1 -0.1,-0.2 -0.1,-0.2 0,-0.2 -0.1,-0.2 m 0.2,-1.3 -0.2,0.1 -0.1,0.1 -0.1,0.1 0,0.2 0,0.2 0,0.2 0.1,0.2 0.1,0.2 m -17.4,124.3 -0.4,0.4 m 2.5,1.2 0.3,-0.4 m 0,0.6 -0.3,-0.2 m -2.7,-1.9 -0.4,0.4 m 0.6,0.3 -0.6,-0.3 m 1.7,-1.7 0.2,0.1 0.3,0.1 0.4,0 0.3,-0.1 0.1,-0.1 m 0.2,-5.5 0.6,0.3 m 0.2,-0.3 -0.2,0.3 m 1.1,0.2 -0.9,-0.5 m 1.2,0.1 -0.3,0.4 m 2.4,0.7 -0.3,0.3 m 0,0 0.8,0.5 m 0,0 -1.4,1.6 m 0,0 -0.9,-0.4 m 0,0 -0.6,0.7 m 0,0 -2.2,-1.1 m 0.7,-0.7 -0.7,0.7 m -0.2,-1.1 0.9,0.4 m -0.6,-0.7 -0.3,0.3 m 0.3,-0.3 -0.6,-0.2 m 4.8,-0.2 0,0.5 m 0,-0.5 0,0 m -4.2,0 0,0.4 m 0,-0.4 -0.3,-0.2 m 0.9,0.8 0,0.5 m -0.6,-0.8 0.6,0.3 m 3,1.5 0,0.5 m 1.2,-1.8 -1.2,1.3 m -1.5,0.3 0,0.5 m 0,-0.5 -1.9,-0.9 m 2.5,0.2 0,0.5 m 0.9,-0.1 -0.9,-0.4 m 0,0 -0.6,0.7 m -4.9,3.3 0,0.5 m 0.1,-0.6 -0.1,0.1 m 3.1,1.5 0,0.5 m 0,-0.5 0,-0.1 m 89.5,11.7 0,-0.3 m 0,0.3 -0.2,0 m 0,-0.4 0,0.4 m 0,-0.4 0.2,0.1 m 12.9,-16.3 0,0 m 0.1,0.1 -0.1,0 m 0,-0.1 0,0 0.1,0 0,0.1 m -0.1,-0.1 0,0 m 1.5,5.6 0.2,-0.1 m -0.2,0.1 0,-0.1 m 0,0 0.2,-0.1 m 0,0.1 0,-0.1 m -11,4.4 0.1,0 m 0,0 0,0.1 0.1,0 0,0.1 0.1,0 0,0.1 0.1,0 0,0.1 m 0,0 0.5,0.3 m -0.5,-0.8 0,-0.1 -0.1,0 0,-0.1 m 0.8,0.5 -0.7,-0.3 m 0.4,0.5 0.2,0.1 m -0.1,0.2 -0.1,-0.3 m -0.4,0 0,0 m 0.2,0.5 -0.4,-0.2 m -0.3,-0.4 0,0 0.1,0 0,0.1 0.1,0 0,0.1 0.1,0.1 0,0.1 m -0.3,-0.4 -0.1,-0.1 m 0.4,0.5 0,0 m 0.6,0 0,0 m -0.7,-0.7 -0.2,0.3 m 0.3,0.4 0.2,-0.3 m -0.2,0.3 0.2,-0.3 m 0.2,0.5 0.3,-0.2 m -0.2,-0.7 0,-0.1 -0.1,-0.1 m -0.2,0 0,-0.1 m 11.8,-6.6 0.2,-0.2 m -0.2,0 0,0.2 m 0,-0.2 0,0 m 0.2,0 -0.2,0 m 2.2,1.3 -2.2,-1.1 m 2.3,0.9 -0.1,0.2 m -2,-1.3 2.1,1.1 m 0,-0.2 0,0.2 m -2.2,-1.3 2.2,1.1 m -2.1,-0.9 -0.1,-0.2 m 0,0 -0.1,0.2 m 0.1,-0.2 -0.1,0.1 m 0,0.1 0,-0.1 m 0,0.1 0,0 m 2.6,1.1 1,0.5 m -1.1,-0.3 0.1,-0.2 m -0.1,0.2 1,0.5 m 0,0 0.1,-0.2 m -2,0.3 -0.1,0.2 m 0.1,-0.4 0,0.2 m 1,-1.5 0,0.7 m 0,-0.7 -0.2,0 m -0.3,0.4 0.3,-0.4 m -0.5,0.8 0,0 m -0.2,0 0.2,0 m -0.5,0.4 0.3,-0.4 m -0.5,0.7 0,0 m 0,0.7 0,-0.7 m 0,0.7 0.1,0 m 0.5,-0.5 -0.5,0.5 m 0.6,-0.8 -0.1,0.3 m 0.3,-0.3 -0.2,0 m 0.6,-0.5 -0.4,0.5 m 0,0 0.9,0.5 m 0,0 0.5,-0.5 m 0,-0.9 -0.9,-0.5 m 1,1.2 -0.1,-0.7 m -4.2,0.1 0.2,-0.2 m -0.3,0 0.1,0.2 m 0,-0.3 -0.1,0.1 m 0.3,0 -0.2,-0.1 m 2.2,1.4 -2.2,-1.1 m 0.2,-0.2 2.1,1.1 m -2.2,-1.3 2.2,1.1 m -2.1,-0.9 -0.1,-0.2 m 0,0 -0.1,0.1 m 0.1,-0.1 -0.1,0.1 m -0.1,0 0.1,0 m -0.1,0 0.1,0 m 3.6,1.6 -1,-0.5 m 1,0.5 0.1,0 m -0.2,0.3 -1,-0.5 m 1,0.5 0.1,-0.3 m -0.6,0.8 -1,-0.5 m 1,0.5 0.5,-0.5 m -0.6,0.5 -1,-0.5 m 1,0.5 0.1,0 m -18.9,11.3 0.1,0.1 m -0.1,-0.1 0,0 m 0,0.1 0,-0.1 m 0.1,0.1 0,0 -0.1,0 m 0.6,-0.6 -0.2,0.2 m 0,0 0,-0.4 m 0,0 0.2,-0.2 m 0,0 0,0.4 m 5,-6 0,-0.7 m 0,0.7 0.2,0 m 0.2,-0.3 -0.2,0.3 m -0.2,-0.7 0,0 m 0.2,0.1 -1.1,-0.5 m 0.2,-0.2 0.5,0.3 m -0.4,-0.4 0.2,0 m 1.3,1.7 -0.7,-0.3 m 0.8,0.4 -1,-0.4 m 1,0.4 0,0 m 10.7,-5.2 0.2,0.1 m 0,0 0.4,-0.4 m 0,0 -0.2,-0.1 m -0.4,0.4 0.4,-0.4 m -0.4,-0.5 0.3,-0.4 m -0.3,0.4 0,0.9 m 0.3,-1.2 0.1,0.8 m 0.2,0.1 0.2,0.1 m -0.2,-0.3 0,0.2 m 0.2,-0.1 0,0.2 m 0,0 -0.4,0.4 m -0.2,-0.1 0.2,0.1 m 0.1,-1.3 -0.1,0.1 m 0,0.2 0.1,-0.1 m -2.5,3.4 -0.1,0.1 m 0,0 0,0 m 0.1,-0.1 0,0.1 m -8.2,-12.3 0.3,0 0.3,-0.1 0.4,-0.2 0.4,-0.4 0.4,-0.5 0.4,-0.5 0,-0.1 m -2.6,0.5 1.2,-1.3 m 0,0 -1.2,1.3 m 1.4,-1.2 0.1,1.3 m 0,0 0,0 m 0,0 -0.1,-1.3 m -1.4,1.2 0,0 m 0,0 0,0 m 8.3,10.6 0,0 m 0,0 0,0 m -10.4,7.3 -0.1,-0.3 m 0,0 0.2,-0.2 m 0,0 0.1,0.3 m -4.8,4.4 0,0 0,-0.1 m 0,0.1 0,0.3 m 0.1,0 0,0 -0.1,0 m 0,0 0,0 m 0,-0.4 0.1,0.4 m -0.3,-0.2 0.2,-0.1 m 0,0.3 -0.2,0.2 m 0,0 0,-0.4 m 0.2,-0.2 0,0 m 0,0 0,0 m 0,0 0,0 m 0,0 0,0 m 0,0.4 0,0 m -0.2,-0.1 0,0 m 0,0 0,0 m 0.2,-0.3 -0.2,0.3 m 0.4,-0.2 -0.2,-0.1 m 0.2,0.2 0,0 0,-0.1 m -0.1,0.2 0.1,-0.1 m -0.4,0.1 0,0 0,-0.1 m 0.4,0 -0.1,0.1 m 0.1,-0.2 0,0 0,0.1 m -0.2,-0.2 0.2,0.1 m 0.4,-0.7 0,0 m 0,0 -0.2,0.2 m 0,0 0,0 m 0.2,-0.2 -0.2,0.2 m 17.4,-8.5 0.1,-0.1 m 0.1,0 0,0 0.3,0.1 m -2.4,-3 0,0 m -0.2,-0.3 0,0 m 0.2,0.2 -0.1,0 m 0,0 0,0 0,-0.1 -0.1,0 0,-0.1 m 0,0 0,0 m 0,0 0,0 m 0,0 0,0 m 0,0 0,0.1 0.1,0 m 0,0 0.1,0.1 m 0,0 0,0 m 0,0.1 0,-0.1 m 0,0 0,0 m -1.1,0.4 0.7,-0.7 m -0.2,0.5 0,0 m 0.3,-0.2 -0.2,0.1 m 0.4,-0.3 -0.1,0 m 0,0 -0.1,0.1 m 0,0 0,0.1 m -0.2,0.1 0,0 m 0,0 -0.1,0.1 m 0,0 -0.1,0.2 m 0,0 0,0 m 0,0 -0.2,0.1 m 0,0 0,0 m 0,0 0,0.1 m 0,0 -0.2,-0.2 m 0.7,-0.7 0.3,0.1 m 0,0.4 0,0 m 0,0 0.1,-0.1 m -0.2,0 0.2,-0.1 m -0.2,0.1 0,0 m 0.1,-0.1 -0.1,0.1 m -0.1,-0.1 -0.1,0.1 m -0.5,0.5 0.2,0 m -0.1,-0.1 -0.1,0.1 m 0.2,-0.2 -0.1,0.1 m 0.2,-0.2 -0.1,0.1 m 0.3,-0.3 -0.1,0 m 0.3,-0.2 -0.1,0.1 m 0.2,-0.2 -0.1,0 m 0.2,0.1 -0.1,-0.1 m -1,0.3 0.7,-0.7 m 0,0.3 0,-0.3 m -0.7,0.7 0,0.3 m 0.6,-0.3 0.1,0 m 0.1,-0.1 0,0 m -0.2,0.4 0,0 0,-0.1 -0.1,0 0,-0.1 m 0,0 0.1,-0.1 m 0.1,0.1 0,0 -0.1,0 0,-0.1 m 0.1,0.1 -0.1,0.2 m 0.1,0 0,0 m -0.2,-0.2 0,0 m 0.2,0.2 -0.1,0 m 0.1,0.1 0,-0.1 m 0,0.1 0,0 m 0,-0.1 0,0 m 0,0 0,0 m -0.1,0 0.1,0 m 0,0 0.1,-0.1 m 0,0 0,0 m -0.1,0.1 0.1,-0.1 m -0.1,-0.7 0,0 m 0,0 0,0 m 0,0 0.2,-0.2 m 0,0 0,0 m 0,0 0,0 m 0,0 -0.2,0 m -3,2.1 0.3,-0.2 m -0.3,-0.1 0,0.3 m 0.2,-0.5 -0.2,0.2 m 0.3,0.1 -0.1,-0.3 m -7.9,6.7 0,0 m -0.2,0.2 0.2,-0.2 m -0.2,0.3 0,-0.1 m 0.2,-0.2 -0.2,0.3 m -4.7,4.2 -0.1,0 m 0.4,-0.1 0,0 m 0,0 -0.2,0.1 m 0,-0.2 0.2,0.1 m -0.4,0.1 0.2,-0.2 m 0.6,-0.2 -0.2,0.2 m 0,0.1 0,0 0,-0.1 m 0.2,-0.2 -0.2,0.3 m 0.2,-0.3 0,0 m 0.2,0.1 -0.2,-0.1 m 0,0.4 0.2,-0.3 m -0.4,0.2 0.2,0.1 m 19,-7 0,0.4 0,0.6 m 0.1,-0.7 -0.1,0.7 m -6.8,-4.8 0,-0.1 m 0,0 0,0 m -0.2,0.2 0.2,-0.2 m -0.2,0.2 -0.1,0 m 0.1,0.1 -0.1,-0.1 m 0.1,0.1 0.2,-0.2 m -0.5,0.1 -0.2,0.2 m 0.2,0.1 0,-0.3 m -0.2,0.5 0.2,-0.2 m -0.2,-0.1 0,0.3 m -10.1,6.3 0.1,-0.1 m 0,0.1 -0.1,0 m 2.7,-1 0,0 m 0,0 -0.2,0.3 m 0,-0.1 0,0.1 m 0.2,-0.3 -0.2,0.2 m -4.3,5.1 -0.2,-0.2 m 0,0.4 0.2,-0.2 m -0.4,0.1 0.2,0.1 m 0,-0.4 -0.2,0.3 m 15.8,-10.5 0.3,0.1 m 0,0 0,-0.1 m 0,0 -0.3,-0.1 m 0,0 0,0.1 m 0.1,-0.6 -0.3,0.3 m -0.1,0.1 0.1,-0.1 m -0.2,0 0.1,0.1 m 0.3,-0.5 -0.4,0.4 m 0.6,-0.4 -0.2,0 m 0.1,0.1 0.1,-0.1 m -3.3,-0.4 0.2,-0.2 m -0.2,0.2 0,0.1 m 0.2,-0.3 0,0.1 m 0,0 0,0 m 0,0 0,0 m 0.2,0 0,0 m -0.1,0.1 -0.1,0 m 0.2,-0.1 -0.2,-0.1 m -0.4,0.5 -0.2,0.2 m 0.2,-0.2 0,0.1 m 0,0 0,0 m 0,0 0,0 m -0.2,0.1 0,0.1 m -10,7.6 0,0.2 m 0,-0.2 0.1,-0.2 m 0,0 0,0.2 m -0.1,0.2 0.1,-0.2 m 2.8,-1.4 -0.2,-0.1 m 0,0.3 0.2,-0.2 m -0.4,0.1 0.2,0.1 m 0,-0.3 -0.2,0.2 m -5.7,5.2 0.1,0 m -0.1,0 0,0 m 8,-24.6 -0.2,0.5 -0.1,0.5 -0.1,0.5 0.1,0.4 0.2,0.2 0.3,0.1 0.3,0 0.4,-0.3 0.4,-0.3 0.3,-0.5 0.3,-0.5 m 5.9,3 -0.2,0.4 -0.4,0.6 -0.4,0.4 -0.4,0.3 -0.4,0.2 -0.4,0 -0.1,0 m -5.5,-3.3 -0.1,0 0,-0.1 m 6.2,3.4 0.1,0.1 0.1,0.2 m 1.5,-0.3 0.4,-0.4 0.2,-0.3 m 0.2,-0.3 0.1,-0.2 m -0.3,8.7 0,0.2 m 0.2,-0.5 -0.2,0.3 m 0.2,-0.1 0,-0.2 m -0.2,0.5 0.2,-0.3 m 1,-3.7 -0.2,0.2 m -0.7,-0.3 0.2,-0.2 m -0.2,0.2 0.7,0.3 m -3.4,3 -0.2,-0.1 m 0.2,0.2 0,0.3 m 0,0 0,0 m -0.1,0 0.1,0 m -0.2,-0.5 0.1,0.5 m 0.1,-0.3 0,-0.1 m -0.1,-0.1 0.1,0.1 m 0,0 0,0 m -0.1,-0.1 -0.1,0 m -0.3,1 -0.3,0.2 m 0.4,-0.2 -0.1,0 m -0.1,0.3 0.2,-0.3 m -0.2,0.3 -0.2,-0.1 m 0.3,-0.3 0,0 m 0,0.1 0,-0.1 m -0.3,0.3 0,-0.1 m 0,0 0,0 m 0,0 0.3,-0.2 m -9.1,6.1 0.2,0.1 m -1.3,1.1 1.1,-1.2 m -0.8,1.2 -0.3,0 m 0.3,0 1,-1.1 m 0,0 0,0 m 0,0 0,0 m -1,1.1 0,0 m 16.1,-12.5 0,0 m 0,0 0.1,0.1 m -0.1,-0.1 0,0 m -2.6,6 0,-0.1 m -0.4,0 0.4,0.1 m 0,0 0,0 -0.1,0 m 0,0 -0.3,-0.1 m 0,0 0,0 m 0,0 0,0 m 0,0 -0.1,0 m 0,0 0,0 m 0,0 0.1,0 m 0.4,0.1 0,0 m 0,-0.1 0.1,0 m -0.5,-0.1 0,0.1 m 0.3,0 -0.3,-0.1 m 0.4,0.2 -0.1,-0.1 m 0.1,0.1 0,-0.1 m 0,0 0,-0.1 m 0,0 0,0.1 m -0.4,-1 -0.1,-0.2 m 0.1,0.2 0,0 m 0,0 0,0 m 0,-0.3 0,0.3 m 0,-0.3 -0.1,0.1 m 0,0 0,0 m 0.3,0 -0.2,-0.1 m 0.2,0.3 0,-0.2 m 0,0.2 -0.2,0 m -1.1,-7.2 0,0 0,0.1 0,0.1 m 0,0 0,0 m -0.2,-0.1 0,0 m 1.1,0.3 -0.8,-0.3 m 0.8,0.3 0,0 m 0,0.1 0,-0.1 m -0.6,0 0.6,0.2 m -0.8,-0.5 0.1,0.2 m 0,0 -0.1,0 m 0,-0.2 0,0 m -0.1,-0.1 0.1,0.1 m -2.1,7.1 -0.1,-0.1 m 0,0 -0.1,0 m 0,0 0.1,0.5 m 0,0 0.1,0 m 0,0 0,-0.1 m 0,-0.3 0,0.3 m -13.6,11.5 0,-0.1 m 0,0 0,0.1 M 179.1,-97.8 179,-98 m -0.1,0.4 0.2,-0.2 m -0.3,0.1 0,0.1 m 0.2,-0.4 -0.2,0.3 m -9.3,11.3 0,-0.1 m 0,0 0,0 m 0,0.1 0,-0.1 m 0,0 -0.2,0.1 m 7.3,-8.4 0.1,0.8 m 0.1,0.1 -0.1,-0.1 m 0.1,0.1 0,-0.9 m -0.2,0 0.2,0 m -0.4,1.4 0.4,-0.5 m -0.1,-0.1 -0.5,0.5 m 0,0 0.2,0.1 m -0.3,-1 0.5,-0.4 m -0.4,1.3 -0.1,-0.9 m 0.5,-0.3 0,0 -0.1,0 0,0.1 0.1,0 0,-0.1 m 0.3,0.9 -0.5,0.5 m 0.4,-0.6 0.1,0.1 m -0.5,0.5 0,-0.1 m 0.5,-1.3 -0.1,-0.1 m 0.1,1 0.3,0.1 m -0.3,-0.1 0,-0.5 m 0,0 -0.1,-0.5 m 0.3,0.2 0,0.2 m 0,0.2 0,0.1 m 0,0.1 0.1,0.3 m -0.5,0.5 -0.3,-0.1 m 0.8,-0.4 -0.5,0.5 m 0.1,-1.5 0,-0.1 m 0,0.5 0.1,0 m -0.1,-0.5 0,0 m 0,0 0.1,0 m 0,0 0,-0.2 m 0,0 -0.2,0.2 m -0.2,-0.1 0.1,-0.1 m 0,0 0,0 m 0,0 0,0 m -0.1,-0.1 0.1,-0.1 m -0.1,0.1 0,0.2 m 0.1,-0.1 0,0 m 0,0.2 0,0 m 0,0 -0.1,-0.1 m -11.8,5.8 -1,-0.5 m -0.2,0.3 0.5,0.2 m 0,0.2 0,-0.1 0.1,0 -0.1,0 0,-0.1 m 0,0.2 -0.1,0.1 m -0.1,0 0,0 0.1,0 m -0.1,0 -0.6,-0.3 m -0.2,0.3 0.5,0.3 m 0,0.1 0.1,0 0,-0.1 -0.1,0 m 0,0.1 -0.1,0.1 m -0.1,0 0,0 0.1,0 m -0.1,0 -0.6,-0.3 m -0.2,0.3 0.5,0.3 m 0.1,0.1 0,0 0,-0.1 -0.1,0 m 0.1,0.1 -0.2,0.1 m -0.1,0 0,0 0,0.1 0.1,-0.1 m -0.1,0 -0.6,-0.2 m -0.2,0.2 1,0.5 m 0,0 1.7,-1.8 m 0,0 -0.1,-1.5 m -1.4,1.9 0.1,0.4 m 0.1,0 0,-0.3 m 0.1,0.1 0,0.1 m 11.7,-11.6 -0.4,0.4 m 2.8,0.8 0,0 m -0.6,-0.3 -0.1,0 m -1.4,-0.8 -0.3,-0.1 m -0.4,0.4 0,0 m 0,-1.9 0.1,0 m 0.4,1.6 0,-0.2 m -0.2,0.1 0,0 m -0.3,0.4 -0.1,-0.1 m 2.4,0.4 0,0 m 0.5,-1.7 -0.1,0.1 m 0.5,-0.2 -0.1,0 m 0.1,0.3 0.1,0 m -0.3,1.9 0,0 m -11.1,8.8 0.1,0.3 m 0,0 0.2,-0.2 m 0,0 -0.1,-0.3 m 0,0 -0.2,0.2 m -2,0.2 0,0 m 0.1,0.6 -0.1,-0.6 m 0.1,0.6 0,0 -0.1,0 m 0,0 0,0.1 m 0,0.1 0,0.2 m 0,0 0.2,-0.1 m 0,0 0,0 m 0,0 0.1,-0.1 m 0,0 0,0 m 0,-0.1 0,0.1 m 0,-0.1 0.1,0 0,-0.1 m -0.1,-1.2 0.1,1.2 m -0.1,-1.2 0,0 0,-0.1 0,0.1 m 0,0 -0.1,0 m 0,0 0,0 m 0,0 -0.1,0.1 m 0,0 0,0 m 0,0 -0.2,0.2 m 0.1,0.3 0,0 m 0.4,0.6 0.1,0.1 m -0.1,-1.3 -0.1,0 m 0.2,1.3 -0.1,-1.3 m -0.2,0 0,0 m -4.5,6.9 -0.2,-0.1 m 0,0 0,0.1 m 0.1,0 -0.1,0 m 18.9,-14.5 0,0.1 m 0,0 0,0 m 0,0.2 0,-0.2 m 0,0.2 0,0 m 0.1,-0.1 -0.1,0.1 m 0.1,-0.1 -0.1,-0.1 m -2.1,4 0.3,0.1 m 0,0 0,-0.1 m 0,0 -0.3,-0.2 m 0,0 0,0.2 m -0.2,-1.3 0.1,0 m -0.1,-0.2 0,0 m -1.1,-5.4 0,0 0,-0.1 m 0.2,0 0,0 m 0,0 0,-0.1 0,0.1 0,0.1 0.1,0 m 0.2,0.2 0.6,0.2 m -0.8,-0.4 0,0.1 m 0.8,0.3 0,0.1 m 0.1,0 -0.1,-0.1 m -0.7,-0.4 0,0.1 m 0.7,0.2 -0.7,-0.3 m 0.7,0.3 0.1,0 m 0,0.2 0,-0.2 m -1.8,-0.2 -0.1,0 m 0,0 0.1,0 m 0,0 0,0 m -0.2,-1.4 0.1,1.4 m 0.1,0 -0.1,-1.4 m -0.1,0 0.1,0 m -0.2,0.8 0.1,-0.1 m -0.2,-0.1 0.1,-0.3 m 0.1,0.7 -0.1,0.1 m 0.1,0.1 0,-0.2 m -0.1,0.1 0.1,0.1 m 0,0 0,0 m 0,0.2 0,-0.1 m 0,0 0,0.1 m 0,0 0,0.1 m 0,-0.1 0,0.1 m -0.2,0.1 0,-1 m 0.1,-0.3 0.1,-0.3 m 0,1.6 -0.2,0 m 0.1,-1.1 0.1,-0.1 m 0,0 -0.1,-0.1 m 0,0 0,0.1 m 0,0.1 0,-0.1 m 0.1,0.3 0,-0.2 m 0,0 -0.1,0.1 m 0,0.2 0,-0.2 m 0.1,0.3 -0.1,0.1 m 0.1,-0.1 0,-0.1 m 0,0 -0.1,0.1 m 0,0 0,0.1 m 2,-0.1 -0.1,0 m 0,0 0,0.1 m 0.2,0.3 0.1,-0.1 m 0,0 0,-0.1 m -0.2,0.2 0.2,-0.2 m -0.2,0 0,0.2 m 0,-0.2 0.1,-0.1 m 0,0 0,-0.1 m -0.1,0.1 0.1,-0.1 m -0.1,0 0,0.1 m 0,-0.1 0,0 m 0.3,0.5 0,-0.4 m -0.4,-0.3 -0.1,0.1 m -1.4,0.5 -0.1,-0.1 m -0.2,0 -0.1,-0.1 m 0.3,0 0,0 m 0.1,-0.1 -0.1,0.1 m 0.5,0 0.2,0.1 m 0.1,0.1 0.2,0 m -1,-0.4 -0.1,0 m 2.8,0.8 -0.1,0.1 m -0.6,-0.5 0.1,0.1 m -2.1,-0.7 -0.1,0.1 m 0,0 0,0 m -0.2,-0.5 0,0 m -0.1,0.3 0,0 m 0.3,-0.6 0,0 m 0,0 0,0 m 0.1,0.4 -0.1,0 m 0,-0.4 0.1,0 m 1.3,0.7 0.1,0.1 m 0.2,0.1 0.1,0 m -0.1,0 0.1,0.1 m 0,0 0.1,0 m 0.2,0.1 0.1,0 m -0.5,-0.1 0.2,0.1 m 0,0 0.1,0 m 0.1,0.1 0.1,0 m -2.3,-0.6 -0.1,0 m -0.1,-0.1 0,0 m 3.1,1.2 -0.1,0.1 m 0.1,-0.1 0,0 m -0.1,7.1 0,-0.1 m 0,0 0,0.1 0.1,0 0,0.1 0,0.1 0.1,0 0.1,0 m 0.7,-4.4 0,0 m 0.1,0 -0.1,0 m -1.4,3.7 0,-0.2 m 0,0 0,0 m 0,0 0.1,0.1 m -0.1,0.1 0.1,-0.1 m -0.5,-0.8 0,-0.2 m 0,0.2 0,0 m 0.1,-0.1 -0.1,0.1 m 0.1,-0.3 0,0.2 m 0,-0.2 -0.1,0.1 m 0,0 0,0 m 0.2,0.2 -0.1,-0.1 m 0.1,0.1 0,-0.2 m 0,0 -0.1,-0.1 m -0.1,0.3 0,0 m 0,0 0.1,-0.1 m 0,0 0.1,0.1 m 0,0 -0.1,0.1 m 0,0 0,0 m 0,0 0.1,-0.1 m -2,-6.1 0,0 0.1,0 m -0.4,0.4 0.3,-0.4 m -0.4,0.4 0.1,0 m -0.1,0 0,0 -0.1,0 m -0.3,0.4 0.3,-0.4 m -0.4,-0.5 0.1,0.8 m -0.1,0.2 -0.1,-0.9 m 0.1,0.9 0,0 0.1,0 m 0.3,-0.3 -0.3,0.3 m 0.3,-0.4 0.1,0 m 0,0 0.1,0 m 0,0 0.4,-0.3 m 0,0 0,-0.1 0,-0.1 0.1,0 0,-0.1 m -0.2,-2.1 0.2,2.1 m -0.2,-2.1 0,0 0,-0.1 -0.1,0 0,0.1 m 0,0 -0.3,0.3 m 0,0 0,0 -0.1,0 0,0.1 0,0.1 m 0,0 -0.1,0.2 m -0.3,0.3 0.3,-0.3 m -0.3,0.3 -0.1,0 0,0.1 0,0.1 -0.1,0 0,0.1 m 0.1,0.9 -0.1,-0.9 m 0.2,-0.1 0,0.9 m 0.3,-1.3 -0.3,0.3 m 0.3,-0.3 0,0 0,-0.1 0.1,0 m 0.1,-0.2 -0.1,0.2 m 0.4,-0.6 -0.3,0.3 m 0.3,-0.3 0,0 m 0.2,2.1 -0.2,-2.1 m -0.3,0.3 0,0 0,0.1 m -0.5,0.6 0,0 0,0.1 m 0,0.9 -0.1,0.1 m 0.4,-1.5 0,0 m 0.1,2 0,0 0,0.1 m -0.5,-0.6 0.1,-0.1 m 0.1,0.8 0,0.1 m 0.5,-0.4 0,0 m 4,1.3 -3.5,-1.8 m 3.3,2.1 -3.4,-1.8 m 3.6,1.5 0,0 0,0.1 -0.1,0 0,0.1 -0.1,0.1 m -3.1,-1.2 -0.7,-0.3 m 0.7,0.3 0.1,0.1 m 0.1,0 -0.7,0.7 m 0,0 2.2,1.1 m 0.7,-0.3 -1.2,-0.6 m 0.2,-0.3 -0.2,0.3 m 0.2,-0.3 1,0.4 m -1,-0.4 0,0 m -0.2,0.3 0,0 m 1.2,0.6 0,0 m -0.1,0.4 0.2,-0.2 m -2.3,-1.7 0,0 -0.1,0 m 3,1.1 -0.1,0.1 m -1.3,-1.9 -1.5,-0.8 m -0.1,-0.1 0.6,0.3 m 0,-0.5 0,0.5 m 0,-0.5 -0.6,-0.3 m 0,-0.1 1.6,0.8 m 0.1,0.1 0,0.5 m -1.7,-1.6 1.1,0.6 m 0,-0.4 -1.1,-0.6 m -0.5,-0.3 3.5,1.8 m -2.9,0 1.1,0.6 m 0,0.3 -1.1,-0.6 m 2.5,-0.1 0,0.4 m 0,0.3 0,0.6 m -0.6,-0.7 0.3,0.2 m -0.4,-0.3 0,-0.6 m 0,0.6 0,0 0.1,0 0,0.1 m 0.3,0.2 0,0 0.1,0 m 0,0 0,0.3 m 0,0 0,0 0,0.1 m 0.2,0.1 -0.2,-0.1 m 0.2,0.1 0,0 m 0,-0.6 0,-0.3 m -0.3,-0.3 0,-0.2 m 0,0.2 0,0 m -0.4,-0.2 0.4,0.2 m -0.4,-0.2 0,0 m -0.7,0.8 0.1,0 0,0.1 0,-0.1 m 0,0 0,-0.3 m 0,0 0,0 -0.1,0 m -1.1,-0.6 0,0 -0.1,0 m 0,0.3 0,-0.3 m 0,0.3 0,0 0.1,0 m 3.1,1.8 -0.2,-1.6 m 0,-0.5 0,0 m -3,-1.5 -0.1,0 m 0,0 0,0.3 m 0,0 0,0 0,0.1 0.1,0 m 1.1,0.6 0,0 0.1,0 m 0,-0.2 0,-0.1 m 0,0 0,0 -0.1,0 0,-0.1 m 0.6,0.9 0,0 -0.1,0 0,-0.1 m -1.6,-0.8 0,0 -0.1,0 m 0,0 0,0 m 0,0 0,0 0.1,0.1 m 0,0.5 0,0 m 0,0 0,0 m 0,0 0,0 0,0.1 0.1,0 m 1.5,0.8 0,0 0.1,0 0,-0.1 m -2.3,1.4 0.6,-0.6 m 1.3,0.9 0.1,0 m 0.6,0.3 0,0 m -0.4,-2 -0.1,-0.3 m 0,-0.1 -0.7,-0.4 m -0.2,-0.7 -0.3,-0.1 m -0.2,-0.1 -0.2,-0.1 m 0.8,1.8 -0.4,-0.2 m 0,-0.1 -0.3,-0.1 m 2.5,1.3 0,-0.4 m 0,-0.4 -0.1,-0.4 m -0.2,0.2 -0.3,-0.1 m 0.3,0.1 0,0 m 0,-0.2 0,0.2 m 0.2,-0.2 0,0 m 0.1,0.8 0,-0.1 m -1.3,0 0,0 m -0.1,-1.4 0,-0.1 m 0.4,0.8 0,-0.1 m -2.4,0.8 0.6,0.3 m 0.2,0 -0.1,0 m 0,0 0,0 -0.1,0 m 0,0 -0.1,0 m 0,0 -0.6,-0.3 m 0.3,0.7 -0.6,-0.3 m 0.3,-0.3 0.6,0.2 m 0,0 -0.3,0.4 m 0.1,0.4 0,-0.1 m 0.7,-0.6 0,0 m -0.6,-0.1 0,0 m 1.7,-0.6 -0.1,0 m -1.1,-0.6 0.1,0 m -0.8,1.6 0,0 -0.1,0 m -0.2,-1.1 0,0 0,-0.1 m 0,0.2 0,-0.1 m 0,0.2 0,0 0,-0.1 m 0.2,0.2 0,-0.1 m -0.1,0 -0.1,0 m 0.9,0.6 0,-0.1 m -0.1,0.1 0,0 0.1,0 m -0.2,-0.1 0.1,0.1 m -1.1,-0.2 0,0.1 m 0.3,-0.8 -0.4,-0.1 m 2,-0.3 0.1,0 0,0.1 0.1,0 0,0.1 m -0.8,-0.5 0,0 m 1.1,2.5 0,0 0.1,0 0.1,0 m 0,-0.3 0.1,0 m 0.1,0.1 -0.2,0.2 m -1.8,-0.9 0,0 m 0.2,0.1 0,-0.2 m 2.6,1.6 0,0 m 0.2,0.3 0.2,0.3 m -0.2,-0.3 -0.1,-0.1 m -1.6,-3.2 0,-0.1 -0.1,-0.1 -0.1,-0.1 m 1.4,3.1 0.1,0 0,0.1 0.1,0 0.1,0.1 m -0.3,-0.2 0.2,-0.3 m -1.1,-2.4 0,0 -0.1,0 -0.1,0 m 0,0 0,0 m 0.2,0.4 0,0 0,-0.1 m -0.2,0 0,-0.3 m 0.2,0.3 0,-0.3 m -0.3,0.1 0,0 0.1,0 m 0,-0.1 0,0 -0.1,0 0,-0.1 m 1.6,3.2 0,0 m -2.4,-3.8 0,-0.1 m 1.6,0.8 -0.1,0.2 m 1.1,1.4 0,0 m -0.1,-0.5 0.1,-0.1 m -1.1,-0.7 0.2,-0.2 m 0,0.5 0,0.1 m -2.7,0.1 0.1,0 m 0.1,0 0,0.1 m -0.2,-0.2 0,0 0,0.1 m 0,-0.2 0,0.1 m 0,-0.2 0,0 0,0.1 m -0.4,-0.2 0.4,0.1 m 0.1,-0.7 -0.5,-0.3 m -0.1,1 0,0 m 2.6,-0.4 0,0 m 0,0 0,0.1 m 0,0 0,-0.2 m 0.9,0.6 0,0.2 m 0,0 0,0 0.1,0 m 0.4,-0.1 -0.5,-0.2 m 0,0 0,0 0,0.1 m 0.6,0.4 -0.1,-0.3 m -0.4,0.1 0.5,0.2 m -0.6,-0.1 0.1,-0.1 m -0.1,-0.2 -0.1,0.1 m 1.1,-0.7 0,0 0,0.1 m -3.1,-1.4 0.1,-0.1 m 1,0.7 0.1,-0.1 m 1.5,1.5 -0.1,0 m 0.1,0 0,0 -0.1,0 m -0.9,-0.4 -0.1,0 m -0.2,-0.1 -0.1,0 m 0,0 -0.1,-0.1 m -1.6,-0.5 -0.1,0.1 m -0.1,0.1 0,0.1 m 0,0 0,0 m 0.1,0 0,0 m -0.3,-1.2 0.4,0.2 m 2.9,1.8 0.1,-0.1 m -0.4,0.4 0.1,-0.1 m -1.3,-0.9 0.1,-0.1 m -1.9,-1.1 0.4,0.2 m 2.9,1.3 0,0 m -3.8,-0.9 0.5,0.3 m 0.1,0 0.1,-0.1 m -0.3,0.1 0.1,0 m 0.2,0.1 0,0.1 m 1.7,0 0,0 0,0.1 m 0.2,0.1 0,0 m 0,0 0,0 m 0.1,0.1 0,0 m 0.2,0.1 0,0 m 0.4,0.2 0,0 0.1,0 m -10.7,11.3 -0.1,0 m 0.1,0 0.2,-0.2 m 0,0 -0.1,-0.1 m 0,0 -0.2,0.3 m 0,-0.1 0.2,-0.3 m -0.2,0.3 0,0 m 0,0.1 0,-0.1 m 0.2,-0.2 0,-0.1 m 0,0 0,0 m 7.2,-2.9 0.1,-0.1 m 0,0 0,0 m 0,0.1 0,-0.1 m -0.1,0 0,0 m 0,0 0.1,0 m -0.1,-0.3 -0.1,0.2 m 0.1,0.1 0,-0.3 m 5.7,-7.8 0.1,0 m -0.1,0 -0.1,0 m 0,0 0,0 m 0,0 0,-0.1 m -19,17 0.2,0.1 m 0,0.3 0,-0.3 m 0,0.3 -0.2,-0.1 m 0,-0.3 0,0.3 m -0.2,-0.1 0.2,-0.2 m 0,0 0,0.3 m -0.2,0.2 0,-0.3 m 0.2,0.2 0,0.1 m 0.2,-0.4 -0.2,-0.1 m 0,0 -0.2,0.2 m 0.2,0.2 0,0 m -0.2,-0.1 0,0 m 0,-0.1 0,0 0,0.1 m 0.2,-0.3 0,0 m 0.2,0.1 0,0 m -0.2,0.3 0,-0.1 m 0.2,-0.1 0,-0.1 m -0.4,0.2 0,-0.1 m 0.2,0.1 0,0 m 0.2,-0.2 0,0 m -0.2,0.2 0,0 m 0.2,-0.2 0,0 m -0.2,-0.1 0,0 m 0.2,0.1 0,-0.1 m -0.2,-0.1 0,0.1 m 0.2,0 -0.2,-0.1 m -0.2,0.3 0.2,-0.3 m 0,0 0,0.1 m -0.2,0.2 0,0 m 17.1,-9.5 -1,1.1 m 1,-1.1 0,0.1 0,0.1 0.1,0 0,0.1 0.1,0 m -1,1 0,0 -0.1,-0.1 -0.1,-0.1 m 0.9,-1.6 -0.9,1 m 0.9,-1 0.1,0.5 m -1,1.1 0,-0.3 m 0,-0.3 0,0 m 1.1,-1.2 0,0 -0.1,0 0,0.1 -0.1,0.1 m -0.9,1 0,-0.1 m 2.5,-4.6 -0.2,0.2 m 0.2,-0.4 -0.3,0.4 m 0.4,-0.3 -0.1,-0.1 m 0,0.2 0.1,-0.1 m -12.4,7.4 -0.2,0.3 m 0.2,-0.3 0.1,0.1 m 0,0 0,0 m 0,0 -0.1,0 m -0.2,0.2 0,0 m 0.4,-0.2 -0.2,0.1 m 0.2,-0.1 -0.2,-0.1 m 7.3,-2.9 0,0 m 0,0 0,0 m 0,-0.1 0,0.1 m 0,-0.1 -0.1,0.2 m 0.3,-0.1 -0.2,-0.1 m 0.2,0.2 0,-0.1 m 0,0.1 0,0 m 0,-0.1 0,0.1 m -0.2,-0.2 0.2,0.1 m -0.1,0 -0.1,-0.1 m 0,0.1 0.1,0 m 0.1,0 0,0 m -0.1,0.1 -0.1,0 m -13.6,9.5 0.2,-0.2 m 0,0.1 0,-0.1 m -0.1,0.2 0.1,-0.1 m 12,-19.4 -0.1,0.5 -0.3,0.8 -0.4,0.7 -0.5,0.7 -0.4,0.7 -0.5,0.5 -0.5,0.4 -0.4,0.2 m -4.4,-5.5 0.4,-0.6 0.3,-0.7 0.2,-0.6 0,-0.1 m 4.7,6.7 -0.5,0.4 -0.4,0.4 -0.3,0.1 m 3.2,-4.5 0,0.1 -0.3,0.7 -0.3,0.8 -0.4,0.7 -0.5,0.7 -0.5,0.6 m 8.9,9.9 0,-0.1 0.2,-0.4 0.1,-0.4 0.1,-0.4 m 1.4,0.7 0.1,0 m -1.5,-0.7 1.4,0.7 m -1.7,-0.6 0.3,-0.1 m -0.7,1.4 0.1,-0.2 0,-0.2 0.1,-0.1 0.1,-0.2 0,-0.2 0.1,-0.2 0,-0.2 m 1.5,-2.6 0.2,3.2 m -0.2,-3.2 -0.3,0.5 m -0.2,1.7 0,0 0,0.5 0,0.1 m 1.1,-2.4 -0.6,-0.4 m 0.6,0.4 0.2,2.7 m -2.5,-3.3 1.4,0.7 m 0.3,-0.5 -1.4,-0.7 m 0,0 -0.3,0.5 m 0,0 -0.1,0 0,-0.1 -0.1,0 -0.1,-0.1 -0.1,0 -0.1,0 -0.1,0 m 0.9,-0.3 -0.2,-0.1 -0.1,-0.1 -0.2,0 -0.2,-0.1 -0.2,0.1 -0.3,0 -0.2,0.1 -0.3,0.1 m 0.1,0.5 -0.1,-0.5 m 0.8,0.4 -0.1,0 -0.1,0 -0.1,0 -0.1,0 -0.1,0 0,0.1 -0.1,0 -0.1,0 m 0.7,-0.2 0,0 m 0,0 0,0.1 m 2.7,0.5 0,0 0.2,0.2 m -2.8,-0.8 -0.1,0 m 0,0 0,0 m -0.7,0.2 0,0.1 m 0.8,-0.2 -0.1,0 m -0.7,0.2 0.1,-0.1 0.1,0 0.1,0 0.1,-0.1 0.1,0 0.1,0 0.1,0 0.1,0 m -1.3,0.5 0,-0.1 m 0,0 -0.2,-1.5 m 0.4,1.2 0.2,0.1 m -0.2,-0.1 -0.2,0.3 m 0.1,-1.8 0.1,1.5 m -0.1,-1.5 -0.3,0.3 m 1.7,0.4 -1.4,-0.7 m -1.8,3.9 -0.4,-0.2 m 0,0 -0.1,0.3 m 0.1,-0.3 0.1,0.5 m 0.5,-2.4 0,0.6 m 0,0.3 0.1,0.6 m 0,0 0,0 m 0.2,-0.2 0,0 0,-0.1 -0.1,-0.1 0,-0.1 m 0,0 -0.1,-0.2 m 0.2,-0.6 -0.3,-0.2 m 0.2,1 0,0 m -0.1,-0.1 -0.1,0 m 0.1,0 0,0 m 0.1,0.1 0.1,-0.2 m -0.8,1.6 0,0 m 0.2,-2.1 0.3,-0.3 m -0.2,1.8 -0.1,-1.5 m 0.1,1.5 0.3,-0.3 m 0.2,-0.9 0,-0.3 m -0.3,0.6 0.3,-0.3 m 0,-0.3 -0.3,0.3 m -0.1,1.3 -0.1,-0.1 m -0.2,0.6 0,0 m -0.1,0 0,0 0.1,0 m -0.1,0 0,0 m 0.7,-1.4 0.1,-0.2 m -9.3,2.1 0,-0.3 m 0,0 -0.3,0.2 m 0,0 0.1,0.3 m 0,0 0.2,-0.2 m -1.1,0.8 0,0.3 m 0,0 0.2,-0.2 m 0,0 0,-0.3 m 0,0 -0.2,0.2 m 8.1,-3.6 0,0.3 m 0,0.1 0,-0.1 m -0.1,0 0.1,0.1 m -0.2,-0.5 0.1,0.4 m 0.1,-0.4 -0.2,0 m 0.2,0.1 0,-0.1 m 2.9,-4.1 0.2,-0.3 m -0.2,0 0,0.3 m 0.1,-0.4 -0.1,0.1 m 0.2,0 0,-0.1 m 1.6,0.2 -0.1,0.1 m -0.1,0.4 0,0 m 0.2,-0.3 0,-0.2 m -0.2,0.5 0,0 m 0.2,-0.5 0,0 m 0,0 0,0 m -18.3,13.8 0,0 m 0,0 0.1,0 m -0.1,0 -0.1,0.1 m 6.7,-5 0,0 -0.1,0 0,0.1 -0.1,0.1 0,0.1 m 0,0.1 0.1,0 m 9.8,-9.1 -0.1,0 m 0,0 0.1,0.4 m 0,0 0,0 m 0,-0.4 0,0.4 m -10,6.4 0,0.1 m 0,-0.1 0.3,-0.2 m 0,0 0,0.1 m 0,0 0,0 m 0,0 0,0 m -0.9,0.8 -0.2,0.2 m 0.2,-0.2 0,0.1 m 0,0 0,0 m 0,0 0,0 m -0.2,0.1 0,0.1 m 11,-8.2 0,0.1 m 0,-0.1 0,-0.1 m -1.2,1.4 0,0 m 0,0 0.1,0.4 m 0,0 0.1,0.1 m 0,0 0,-0.1 m -0.1,-0.2 0.1,0.2 m 2.5,-1 0,0.1 m -1.2,-5.7 -0.2,0.2 m 0,0 2.2,1.1 m 0.2,-0.2 -0.2,0.2 m 0.2,-0.2 -2.2,-1.1 m 0,0 0,-0.2 m 2.2,1.1 0,0.2 m -2.2,-1.3 2.2,1.1 m -2.4,-0.9 0.2,-0.2 m -0.2,0.4 0,-0.2 m 2.6,1.2 1.1,0.6 m 0,-0.2 -0.9,-0.5 m 0,0 -0.1,0 -0.1,0.1 m 0,0 0,0 m 1.1,0.6 0,-0.2 m -1.1,-1.2 0,0 0.1,0 0,0.1 m -0.1,-0.1 0,0.8 m 0.1,-0.7 0.1,0.6 m -0.2,-0.7 0,0 m 0,0 0,0 m -1.2,2.1 0,0 m 0.2,-0.3 -0.2,0.3 m 0.9,-1 -0.6,0.6 m 0.9,-0.9 -0.3,0.3 m -0.9,-1.9 0,0 m 0.2,0.7 -0.1,0.1 m 0.1,-0.2 0,0.1 m 0.8,0 -0.2,0.2 m 0.1,-0.4 0.1,0.2 m -0.8,0.8 -0.1,0.2 m 0.1,-0.3 0,0.1 m 0.1,0.8 -0.2,0.1 m 0.2,-0.3 0,0.2 m 0.6,-0.4 0,0 m -0.6,0.6 -0.1,0.1 m 1.2,-0.5 -0.7,0.8 m 0.3,0.6 -1,-0.6 m 1.5,-0.7 0.4,0.2 m 0.2,-0.2 0.1,0 m -0.3,0.2 0.2,-0.2 m -1.3,0.7 0.7,-0.7 m -0.3,0.9 -0.4,-0.2 m 0.2,0.4 0.2,-0.2 m -0.1,0.3 -0.1,-0.1 m 0,0.2 0.1,-0.1 m -0.4,-0.5 -0.5,-0.3 m 0.7,-0.7 0.5,0.2 m 0.8,0.1 0.1,0 m -1,-1.3 1,0.5 m 0,0 0,0.6 m -4.2,-0.9 -0.2,0.2 m 0.2,-0.2 0,-0.2 m -0.2,0.2 0.2,-0.2 m -0.2,0.4 0,-0.2 m 2.4,1.2 -2.2,-1.2 m 0,-0.2 2.2,1.2 m -2.4,-0.8 2.2,1.1 m -1.3,-2.8 -0.1,-0.2 m 2.3,1.3 -2.2,-1.1 m -0.1,-0.2 2.2,1.1 m -2.1,-0.9 -0.2,0.2 m 0,0 2.2,1.1 m -2.2,-1.3 0.1,-0.2 m -0.1,0.4 0,-0.2 m 2,3.1 0.6,-0.6 m 0,0 -0.3,-0.2 m -0.3,0.8 -0.3,-0.2 m 0.4,0.4 -0.1,-0.2 m 0.6,-0.6 0.2,0 m 0.4,0.3 -0.3,-0.2 m 0.3,0.2 0.1,0 m -0.4,-0.2 0,0 m -0.2,0.8 0.5,-0.6 m -0.5,0.6 -0.4,-0.2 m 0.6,-0.6 -0.6,0.6 m 1.4,-1.6 -1,-0.5 m 0,0 0,0 -0.1,0 0,0.1 m 1,0.5 0.1,-0.1 m 0,0 0,0 m -4.3,-0.9 -0.1,0.2 m 0.1,-0.2 0,-0.2 m -0.1,0.2 0.1,-0.2 m -0.1,0.4 0,-0.2 m 0,0.2 2.2,1.2 m 0.1,-0.2 -2.2,-1.2 m 0,-0.2 0.6,0.3 m 1.4,2.6 1,0.5 m -1,-0.6 -0.1,0 0,0.1 0.1,0 m 1,0.5 0,0 m -0.1,-0.5 0,-0.2 m 0,0 -0.1,0 m -0.1,-0.1 -0.4,-0.2 m -2.3,-2.9 -0.2,0.1 m 0.2,-0.1 0,-0.2 m -0.2,0.1 0.2,-0.1 m -0.2,0.3 0,-0.2 m 2.4,1.2 -2.2,-1.1 m 0,-0.2 0.6,0.3 m -0.8,0 1,0.5 m 2.2,2.5 0,0 m 0,0 0,0 m -3.2,-3.8 0,0.1 m 0,0 0.9,0.4 m -0.9,-0.4 -0.1,-0.2 m -16.3,20.6 0,0.1 m 0,0 -0.1,0.1 m 0.1,-0.2 0,0 m 0,0 0,0 m 22.4,-6.7 -0.9,-11.2 m -15,9.9 0,0 0.1,0.1 0,0.1 -0.1,0.1 0,0.1 m 0,0 0,0 -0.1,0.1 -0.1,0.1 m 0,4.6 0,-0.2 0.1,-0.3 0.1,-0.3 0.2,-0.2 0.1,-0.1 0.2,-0.1 m 0,0.7 0,0 -0.1,0.3 -0.2,0.2 -0.1,0.1 -0.2,0.1 -0.1,-0.1 0,-0.1 m 1.9,0.4 0,0 m 9.6,-13.8 0,0 0.1,-0.1 0,0.1 m 0,0 0,0 m 2,-1.1 0,0 m 0.1,0.7 0,0.1 -0.1,0.1 -0.1,0 m -1.9,2.1 0.1,-0.1 m 0.4,-0.2 0,0 0,0.2 -0.1,0.1 -0.2,0.1 -0.1,0 -0.1,-0.1 m 5.1,7.4 -0.9,-10.7 m -13.7,12.7 -0.1,0.1 0,0.1 -0.1,0 0,0.1 m 0.2,0.1 0.1,-0.1 0,-0.1 0.1,-0.1 0,-0.1 -0.1,-0.1 m -0.2,0.5 0,0 0.1,0 m 4.6,-6.7 0,0 m 0,0 0,0 m 0,0 0,0 m 3.8,-2.5 0,0 m -0.1,0.1 0,0 m -9.7,7.2 0.2,-0.2 m -0.1,0.3 0.2,-0.3 m -0.2,0.3 -0.1,-0.1 m 0.3,-0.2 -0.1,0 m -0.2,0.2 0,-0.1 m 0,0 0,0 m 0,0 0.2,-0.2 m 0,0 0,0 m 0,0.1 0,-0.1 m -1.1,1.1 0.3,-0.2 m -0.3,0.2 0,0 m 0,0.1 0,-0.1 m 0.3,-0.1 -0.3,0.2 m 0.3,-0.2 0,-0.1 m 0,0 0,0 m 0.1,0.1 -0.1,0 m -0.1,0.3 0.2,-0.3 m -0.2,0.3 -0.2,-0.1 m 11.4,-8.3 -0.1,-0.1 m -0.3,0.3 0.3,-0.3 m -0.1,0.3 -0.2,0 m 0.2,0 0.2,-0.2 m -0.4,0.2 0,-0.1 m 0,0 0,0 m 0,0 0.2,-0.3 m 0,0 0,0 m 0.1,0.1 -0.1,-0.1 m -1.4,1.5 0,-0.3 m 0,0 -0.2,0.2 m 0,0 0,0.3 m 0,0 0.2,-0.2 m 3.1,-1.2 0,0 m 0,0 0.1,0 m 0,0 -0.1,0 m 0,0 0,0 m -12.1,9 0.2,1.6 m 0,0 0,0.1 m 0,0 1.5,-1.6 m 0,0 0,0 0.1,-0.1 0,-0.1 m 0,0 -0.1,-0.8 m -0.4,-0.6 -1.2,1.3 m 0,0 0,0 0,0.1 -0.1,0 0,0.1 m 1,0.5 -0.2,0.1 -0.2,0.1 -0.1,0 m 0.8,-1.5 0,0.1 0.1,0.1 0,0.3 -0.1,0.3 -0.2,0.3 -0.1,0.2 m 0.5,-1.7 0,0 -0.1,0.1 -0.1,0 m -0.8,2.1 0,0 0,0.1 0,0.1 0,0.1 -0.1,0.1 -0.1,0 0,0.1 m -0.1,-1.4 0,0 m 1.4,0.1 -0.1,0 -0.1,0 m 0.3,-0.5 0,0.1 0,0.1 0,0.1 -0.1,0.1 0,0.1 m 0.1,-0.1 1.4,0.7 m 0,0 0,0 m 0,0 -1.3,1.4 m 0.9,-1.9 0.1,0.1 m -0.1,-0.2 0,0.1 m 0.1,0.1 0,0 m -0.1,-0.1 0,0 m -2,0 0.1,-0.2 0.1,-0.1 0.1,-0.2 0,-0.1 0,-0.1 0.1,-0.2 -0.1,-0.2 -0.1,0 -0.1,0 -0.2,0.2 m 0,0 -0.1,0.1 -0.1,0.2 -0.1,0.1 0,0.1 0,0.1 0,0.2 0,0.2 0.1,0 0.1,0 0.2,-0.1 m 0.4,-1.2 0,0 m -0.7,1.5 0,0 m -0.2,0.8 0,0 m 0.3,-0.4 -0.1,0 -0.1,0 0,0.1 -0.1,0.1 0,0.1 m 1.1,-2.8 0,0 0,0.1 0,0.1 0,0.1 m 0,0.1 0,0 m -0.3,3.4 0.1,0.1 m -0.2,-0.2 0.1,-0.1 m 0,0.2 -0.1,0 0,-0.1 m 0.2,0 -0.1,0 m 0,0 0,0 m 0.3,0.1 -0.3,-0.1 m 0.3,0.1 -0.2,-0.1 m 8.6,-11 0.1,0 m 0,0 0.1,-0.2 m 0,0 0,0 m 0.2,0.2 -0.1,-0.2 m -9.9,7.2 0,0 m 0.1,-0.1 0,0 m 10.1,-7.3 0,0 m -0.1,0.2 0,-0.1 m -1.2,1 0,0 m 0,0 0,0 m 0,-0.1 0,0.1 m -0.2,0.2 0.2,-0.3 m -0.2,0.3 0,0 m 3.2,-1.2 0.1,-0.1 m 0,0 0.1,0 m 0,0 -0.1,0.1 m -0.1,0.1 0.1,-0.1 m -6.1,2.5 -0.2,0 m 0,0.3 0,-0.3 m 0,0.3 0.3,0.1 m -0.1,-0.4 0.1,0.4 m -0.3,-0.1 0,0 m 0.3,0.1 -0.1,0.1 m 0,0 0,0 m 0,0 -0.1,0 m 0.2,0.3 0.1,-0.1 m 0,0.1 0,-0.1 m -0.3,-0.2 0.1,0 m 0.1,0.1 0,0 -0.1,0 0,-0.1 m 0.1,0.1 -0.1,0.1 m 0.2,-0.2 -0.1,-0.1 m -0.1,0.1 0,0 m 0.1,-0.1 -0.1,0.1 m 0.2,-0.3 -0.1,-0.2 m 0,0 0,0.4 m -0.4,-0.2 0.1,-0.2 m 0.2,0.1 0.1,-0.1 m 2.9,-1.1 0,-0.1 m 0,0 0,0 m -0.2,0.3 0.2,-0.3 m -0.2,0.3 0,0 m 0,0.1 0,-0.1 m 0,0.1 0.2,-0.3 m 0,0.3 0.2,-0.2 m -0.2,0.2 -0.2,0 m 0.4,-0.2 -0.2,-0.1 m -14.2,11.1 0,0 m -0.2,0.2 0,0 m 0,0 0,0 m 17.1,-10.9 0,0 m 0.1,0.1 0,-0.1 m 0,0.1 -0.1,-0.1 m -92,-12.9 0,0.4 -0.1,0.4 -0.1,0.4 -0.2,0.4 -0.2,0.5 -0.3,0.4 -0.2,0.4 -0.3,0.4 m -46.9,1 9.1,4.5 m 0,0 2.5,-2.9 m 0,0 7.7,3.8 m -2.5,2.9 2.5,-2.9 M 70.4,-88.5 55.3,-96 m 30.1,-9.3 -15,16.8 m -2.7,-10.6 6.1,3 m 0,0 -2.1,2.5 m 0,0 -6.1,-3.1 m 0,0 2.1,-2.4 m -0.7,5.8 -0.3,-0.2 -0.1,-0.3 0,-0.2 0.1,-0.3 0.3,-0.2 0.3,-0.1 0.4,0 0.3,0.1 0.3,0.2 0.1,0.3 0,0.2 -0.1,0.3 -0.3,0.2 -0.3,0.1 -0.4,0 -0.3,-0.1 m 4.4,-5 -0.3,-0.2 -0.1,-0.2 0,-0.3 0.1,-0.2 0.3,-0.2 0.3,-0.1 0.4,0 0.3,0.1 0.3,0.2 0.1,0.2 0,0.3 -0.1,0.2 -0.3,0.2 -0.3,0.1 -0.4,0 -0.3,-0.1 m 1.9,-7.1 6.1,3 m 0,0 -3.3,3.8 m 0,0 -6.1,-3.1 m 0,0 3.3,-3.7 m 13.4,-13.7 0.1,10.5 m 0.4,-11.9 1.3,0.7 m -20.4,-18.7 25.4,13 m -24.9,-13.7 25.5,13.1 m -6.9,5.6 -0.1,0.2 -0.1,0.1 -0.1,0.2 -0.1,0.2 0,0.2 -0.1,0.2 0,0.1 0,0.2 m -10.6,19.5 0,1 m 2.7,-4.1 -2.7,3.1 m 0,0 -5.5,-2.7 m 1.9,3 -0.1,0.1 -0.3,0.1 -0.4,0 -0.3,-0.1 -0.2,-0.1 m -15.9,2.3 0,1 m 0,-1 2,-2.2 m 14.4,4.6 0,1 m 0,-1 -5.6,-2.7 m 7.1,0.9 -1.5,1.8 m -3.5,0.2 -0.2,0.1 -0.3,0.1 -0.4,0 -0.3,-0.1 -0.1,-0.1 m -85.7,-19.6 0.1,-0.4 0,-0.3 -0.2,-0.3 0,-0.1 m -0.9,2.2 1,-1.1 m -2.3,1.5 0.1,0 0.5,0 0.4,-0.1 0.3,-0.3 m 55.4,27.3 -0.2,0.3 0,0.3 0.2,0.3 0.3,0.3 0.4,0.1 0.5,0 0.4,-0.1 0.3,-0.3 m -0.9,-2.1 -1,1.2 m 2.9,-0.2 0.2,-0.3 0,-0.4 -0.2,-0.3 -0.3,-0.2 -0.4,-0.1 -0.5,0 -0.4,0.1 -0.3,0.2 m 0.9,2.1 1,-1.1 m 0.3,13.2 -66.2,-32.3 m 66.2,32.3 1.3,-1.4 m 4.5,-5.1 -0.8,-0.2 -0.9,-0.2 -0.8,0.1 -0.9,0.1 -0.7,0.3 -0.7,0.4 -0.6,0.5 -0.3,0.6 -0.3,0.6 0,0.6 0.1,0.7 0.3,0.6 0.5,0.5 0.6,0.5 m 4.5,-5.1 4.8,-5.5 m 0,0 -20.2,-9.9 m 0,0 1.8,-2.1 m 0,0 0.2,0.1 0.1,0 0.2,0.1 0.1,-0.1 0.1,0 0.1,-0.1 m -50.6,-17.9 0,0.5 m 0,-0.5 0.1,-0.2 m -1.1,1.4 0,0.4 m 0,-0.4 1,-1.2 m -1.9,1.6 0.2,-0.1 0.4,-0.1 0.3,-0.2 m 69.2,28.2 0,0.5 m 0,-0.5 -19.9,-9.8 m 9,8.6 0,0.5 m 0,-0.5 0.2,-0.2 m -1.2,1.3 0,0.5 m 0,-0.5 1,-1.1 m -3.1,0.9 0.2,0.2 0.3,0.3 0.4,0.1 0.5,0 0.4,-0.1 0.3,-0.3 m 2.6,11.2 0,-0.5 m -1.5,-2.3 0,0.1 0.1,0.6 0.3,0.6 0.5,0.5 0.6,0.5 m 16.8,-0.7 -0.3,0.3 -0.5,0.1 -0.4,0 -0.4,-0.1 -0.3,-0.2 -0.2,-0.4 0,-0.3 0.1,-0.3 m 0,0 1.1,-1.1 m 0,0 0.3,-0.3 0.4,-0.1 0.4,0 0.5,0.1 0.3,0.3 0.1,0.3 0,0.3 -0.1,0.3 m 0,0 -1,1.1 m 108,-29.6 3.5,-3.7 M 67.6,-75.6 50.2,-84.2 m 0,0 -4.8,5.5 m -4.5,5.1 0.8,0.2 0.8,0.1 0.9,0 0.8,-0.2 0.8,-0.3 0.7,-0.4 0.5,-0.5 0.4,-0.5 0.2,-0.7 0.1,-0.6 -0.2,-0.6 -0.3,-0.6 -0.4,-0.6 -0.6,-0.4 m -4.5,5.1 -1.3,1.4 m 0,0 17.3,8.5 m 14.1,-25.5 0,11 m 35.7,-62.2 -20,22.6 m -41.3,39.1 0,-0.5 m 4.8,-5.5 0,0.5 m -4.8,5 4.8,-5.5 m 0,0 17.7,8.7 m -27,2.4 0,-0.5 m 0,0 0.8,0.2 0.8,0.1 0.9,0 0.8,-0.2 0.8,-0.3 0.7,-0.4 0.5,-0.5 0.4,-0.5 0.2,-0.6 0.1,-0.2 m 11,-0.3 0,0.5 m 0.1,-0.7 -0.1,0.2 m -1,1.2 0,0.4 m 1,-1.6 -1,1.2 m 0,0 -0.3,0.2 -0.5,0.1 -0.4,0 -0.4,-0.1 -0.3,-0.2 -0.2,-0.3 m -15.2,3.2 0,0.5 m 0,-0.5 1.3,-1.4 m -17.4,-114.8 0.1,0.4 0.2,0.5 0.4,0.4 0.5,0.4 0.5,0.2 0.5,0.1 0,-0.1 m -2.2,-1.8 -0.1,0.1 0,0.3 0.1,0.3 0.3,0.4 0.3,0.3 0.3,0.3 0.4,0.2 0.3,0 0.1,0 m 2,-3.5 -0.4,-0.3 -0.3,-0.3 -0.2,-0.3 -0.1,-0.3 0.1,-0.3 0.2,-0.1 0.1,0 m 1.6,1.3 0,0.1 -0.1,0.2 -0.2,0.1 -0.4,0 -0.3,-0.1 m -1.1,-1.3 0,-0.1 0.2,-0.2 0.3,0 m -0.8,5 0,0 -0.1,0.1 -0.1,0 -0.1,0 -0.1,0 -0.2,0 -0.1,-0.1 m -1.6,-2 0,0.1 0,0.4 0.3,0.5 0.4,0.5 0.5,0.3 0.4,0.2 m 1.3,-4.8 -0.1,0.2 0.1,0.3 0.2,0.3 0.2,0.3 0.4,0.2 0.3,0.1 0.3,0 0.2,-0.1 m -3.6,3.4 -0.4,-0.2 -0.3,-0.3 -0.2,-0.4 0,-0.2 m 1.5,1.3 -0.2,0 -0.4,-0.2 m 1,0.2 0,0 -0.3,-0.1 m -2.3,-0.7 0,0.3 0,0.3 0.2,0.3 0.3,0.3 0.4,0.3 0.4,0.1 0.3,0 0.2,-0.1 m -2,-0.8 0.2,0.7 m -0.7,-1.3 0.4,0.5 0.1,0.1 m -2.1,1.3 1.6,-1.9 m -1.3,2.7 0,-0.1 -0.3,-0.7 m 0.8,1.4 -0.5,-0.6 m 0.5,0.6 1.5,-2 m -0.2,-0.7 -0.1,-0.2 -0.1,-0.2 0,-0.1 0,-0.1 0,-0.2 0,-0.1 0.1,-0.1 0.1,0 m 1.1,2.1 -0.2,-0.1 -0.1,-0.2 -0.2,-0.1 -0.2,-0.1 -0.1,-0.2 -0.1,-0.1 -0.2,-0.2 0,-0.1 m 2.3,1.2 -0.1,0 -0.1,0.1 -0.2,0 -0.1,0 -0.2,-0.1 -0.1,0 -0.2,-0.1 -0.2,0 m 1.3,-0.7 0.1,0.1 0,0.1 0,0.2 0,0.1 -0.1,0.1 0,0.1 -0.1,0.1 m -2.3,-2.2 0.1,-0.1 0.1,0 0.1,0 0.2,0 0.1,0 m -0.4,1.8 0.7,0.3 0.2,0.1 m 0,0 0.6,0.4 0.1,0.1 m -2.4,1.6 -0.2,-0.1 -0.5,-0.4 m 1.5,0.8 -0.1,-0.1 -0.7,-0.2 m 0.8,0.3 1.6,-1.9 m -1.8,-2.6 -0.1,0.1 -0.4,0.3 m 2.3,2.2 0.4,-0.3 0.1,-0.1 m 0,0 0.2,-0.2 0.1,0 m -2,2.3 -0.1,0 -0.3,0.2 m 0.9,-0.6 -0.2,0.1 -0.3,0.3 m 0.5,-0.4 1.5,-1.9 m 0,0 -0.1,-0.3 -0.1,-0.3 m -1.8,-1.5 -0.3,-0.1 m 0,0 -0.1,0 -0.2,0.2 m -0.6,-0.4 -0.2,-0.1 -0.2,0 -0.2,0.1 -0.1,0.1 -0.1,0.1 0,0.1 m 1,0 0,-0.1 -0.1,-0.1 -0.1,-0.1 m -75,93.7 -0.2,-0.5 -0.1,-0.3 m 0.7,1.4 -0.3,-0.4 -0.1,-0.2 m 1.8,-1.1 -1.4,1.7 m 1.1,-2.5 0.1,0.2 0.2,0.6 m -0.7,-1.4 0.1,0.2 0.3,0.4 m -0.4,-0.6 -1.4,1.7 m 1.8,-1.1 0,-0.2 -0.1,-0.1 0,-0.2 0,-0.1 0,-0.1 0.1,-0.1 0,-0.1 0.1,-0.1 m 1,2.1 -0.2,-0.1 -0.1,-0.1 -0.2,-0.2 -0.1,-0.1 -0.2,-0.1 -0.1,-0.2 -0.1,-0.1 -0.1,-0.2 m 2.3,1.1 -0.1,0.1 -0.1,0 -0.2,0 -0.1,0 -0.2,0 -0.1,0 -0.2,-0.1 -0.2,0 m 1.3,-1 0.1,0.1 0,0.2 0,0.1 0,0.2 0,0.1 0,0.1 -0.1,0.1 -0.1,0.1 m -0.3,-1.5 0.1,0 0.1,0.2 0.1,0.1 0.1,0.2 m -2.3,-1.1 0.1,-0.1 0.1,0 0.2,0 0.1,0 0.2,0 0.2,0 0.1,0.1 0.1,0 m 0.4,1.4 0,0 -0.1,0 -0.2,0 -0.1,0 -0.2,-0.1 -0.1,-0.2 -0.1,-0.1 0,-0.2 0,-0.1 m -0.5,1.1 0.1,0 0.7,0.3 m -1.5,1.9 -0.6,-0.4 -0.1,-0.1 m 1.5,0.7 -0.7,-0.2 -0.1,0 m 2.2,-1.5 -1.4,1.7 m 0.7,-2.1 0.2,0 0.5,0.4 m -1.7,-2.5 -0.3,0.2 -0.2,0.2 m 2.2,2.1 0.5,-0.4 m -1.6,1.9 -0.3,0.2 m 0.8,-0.6 -0.4,0.4 -0.1,0 m 2,-2.1 -1.5,1.7 m 1.1,-1.5 0,0 0.4,-0.2 m -0.3,-5.2 0,-0.1 0,-0.2 -0.2,-0.1 -0.2,0 -0.2,0 -0.1,0 -0.2,0.1 0,0.2 m 1.2,5.3 -0.2,-0.6 -0.1,-0.2 m -1.2,-1.1 -0.6,-0.2 -0.1,0 m 0,0 -0.3,0.1 -0.1,0.1 m -1.1,4.4 0.3,0.2 0.4,0 0.2,-0.2 m -1.7,-1.4 -0.1,0.3 0,0.3 0.2,0.3 0.3,0.3 0.4,0.2 m -1.5,-0.5 0.1,0.1 0.1,0.1 0,0.1 0.1,0.2 0.1,0.1 0.1,0.1 0.1,0.1 0.2,0.1 m 0,-1.9 -0.2,0 -0.2,0.2 -0.2,0.3 0,0.3 0.1,0.4 0.2,0.4 0.3,0.3 m -0.1,-1.8 0,-0.1 m -0.7,1 0,-0.4 0.1,-0.3 0.2,-0.2 0.3,-0.2 0.2,0.1 m 1.7,1.3 0,0.1 0,0.2 -0.1,0.2 -0.3,0.1 -0.3,0 -0.4,-0.1 -0.3,-0.3 -0.3,-0.3 -0.2,-0.3 -0.1,-0.3 0,-0.3 0.2,-0.2 m 4.2,-1.9 -0.3,-0.5 -0.1,-0.1 m -2.7,5.1 -0.1,0.2 -0.2,0.2 -0.5,0 -0.5,-0.2 -0.4,-0.3 -0.4,-0.5 -0.3,-0.5 0,-0.4 0.1,-0.4 0.2,-0.1 m 2.4,1.6 0,0.3 -0.3,0.1 -0.5,0 -0.4,-0.2 -0.5,-0.3 -0.4,-0.5 -0.2,-0.4 -0.1,-0.5 0.2,-0.4 m 2.6,1.3 0,0.2 -0.1,0.3 -0.3,0.2 -0.4,-0.1 -0.5,-0.1 -0.4,-0.3 m 1,0 -0.1,0 -0.4,-0.2 -0.3,-0.2 -0.3,-0.3 -0.2,-0.4 0,-0.4 0.1,-0.2 m 1.1,2.8 0,0 -0.3,0.2 -0.4,-0.1 -0.5,-0.1 -0.5,-0.4 -0.4,-0.4 -0.2,-0.5 0,-0.5 0.1,-0.3 m 2.5,1.7 0,0 -0.3,0.2 -0.4,0 -0.5,-0.2 -0.5,-0.4 -0.4,-0.4 -0.2,-0.5 0,-0.5 0.1,-0.3 m 2.5,1.7 0,0 -0.3,0.2 -0.4,0 -0.5,-0.2 -0.5,-0.3 -0.3,-0.5 -0.3,-0.4 m 0.6,-0.9 0.1,0 m 81.9,-98.7 0.2,0.2 0.2,0.2 0.1,0.2 0.1,0.2 -0.1,0.1 -0.1,0.1 -0.2,0 -0.2,-0.1 -0.3,-0.1 -0.2,-0.2 -0.1,-0.3 0,-0.1 0,-0.2 0.2,-0.1 0.2,0.1 0.2,0 m -0.6,-0.1 -0.2,0 -0.2,0.1 -0.1,0.2 0.1,0.3 0.2,0.3 0.2,0.3 0.4,0.2 0.3,0.1 0.3,0 0.2,-0.1 0.1,-0.2 -0.1,-0.2 m -84.5,103.5 0,0 -0.2,0.1 -0.3,0 -0.3,-0.1 -0.3,-0.2 -0.3,-0.3 -0.1,-0.3 -0.1,-0.2 0.1,-0.2 m 0.1,0.7 0.1,0.2 0.1,0.2 0.3,0.1 0.2,0.1 m 81.5,-99.9 8,4.2 m 0,0 0.9,-2 m 0,0 -9.4,-4.8 m 0,0 0.5,2.6 m -2.2,-0.5 1.2,1.6 m 0,0 1,-1.1 m -0.5,-2.6 -1.7,2.1 m 0.1,-1.9 1.7,-2.1 m -1.8,4 0.1,-1.9 m 1.6,-0.2 0.1,-1.9 m 9.3,6.7 0,-1.8 m -9.3,-4.9 1.7,0.9 m 1.9,1 5.7,3 m -6.2,-2.5 0.1,0.2 -0.1,0.3 -0.3,0.1 -0.3,0 -0.4,-0.1 -0.5,-0.3 -0.3,-0.4 -0.2,-0.4 -0.1,-0.3 0.1,-0.3 0.2,-0.1 0.3,0 m 0.5,5.9 -2.7,-1.4 m 3.7,4.9 0.3,-0.5 0.2,-0.4 0,-0.5 -0.1,-0.5 -0.2,-0.5 -0.3,-0.4 -0.4,-0.4 -0.5,-0.3 m -2.4,7.7 3.4,-4.2 m -0.8,5.6 -2.6,-1.4 m 8.7,-6 -6.1,7.4 m 0.8,-6.1 0.1,-0.2 0.1,-0.3 0.1,-0.2 0,-0.2 0,-0.1 -0.1,0 -0.1,0 -0.1,0.1 m 0,1.4 0,-0.5 m -3.4,4.7 0.1,-3.8 m 3.3,-1.8 -0.1,0.2 -0.2,0.2 -0.2,0.4 -0.1,0.3 0,0.2 0.1,0.1 0.1,0 0.2,-0.2 0.2,-0.3 m -2.7,1 0,0.2 0.1,0.1 0.2,-0.1 0.1,-0.2 0.2,-0.2 0.2,-0.3 0.1,-0.3 0,-0.2 0,-0.2 -0.1,0 -0.1,0 -0.2,0.2 -0.2,0.2 -0.1,0.3 -0.1,0.3 -0.1,0.2 m -0.6,-0.1 2.9,-3.5 m -69.7,92.6 -2.6,-1.2 m 0,0 -3.1,3.8 m 0,0 -0.4,0.3 -0.4,0.3 -0.5,0.2 -0.6,0.1 -0.6,0.1 -0.6,-0.1 -0.6,-0.1 -0.5,-0.2 m 0,0 -2.6,-1.2 m -0.8,1 0.8,-1 m 7,4.7 -7.8,-3.7 m 7.8,3.7 5.5,-6.7 m 0.3,-3.8 -0.3,3.8 m 0.3,-3.8 -2.6,-1.2 m 0,0 -0.3,3.8 m 0.3,-3.8 -3.1,3.8 m 0,0 0,0.4 m -0.1,1 0.1,-0.2 0.2,-0.2 0.2,-0.3 0.1,-0.3 0,-0.2 -0.1,-0.2 -0.1,0.1 -0.2,0.1 -0.1,0.2 m -0.1,1 -0.2,2.4 m 2.6,-4 0,-0.2 -0.1,-0.1 -0.1,0.1 -0.2,0.1 -0.1,0.3 -0.2,0.2 -0.1,0.3 0,0.2 0,0.2 0.1,0.1 0.1,-0.1 0.1,-0.1 0.2,-0.3 0.1,-0.2 0.1,-0.3 0.1,-0.2 m -2.3,0.6 -0.2,0.3 -0.1,0.2 -0.1,0.2 0,0.2 0.1,0.1 0,0.1 0.2,-0.1 m 0.1,-1.4 -0.4,0.3 -0.4,0.3 -0.5,0.2 -0.6,0.1 -0.6,0.1 -0.5,-0.1 -0.5,0 m -3.6,2.3 -1.2,-1.6 m 0,0 -1.5,1.9 m 1.9,0.7 -1.9,-0.7 m 1.7,-3.8 1.3,-0.3 m -1.3,0.3 -0.2,1.9 m 2.2,-1.9 -0.7,-0.3 m -3,4.1 9.1,4.4 m 0,0 0.6,0 m -9.5,-6.3 1.5,-1.9 m -1.5,1.9 -0.2,1.9 m 261,-6.1 0.2,-0.3 m 0,0 -0.3,-3.8 m -2,2.1 2,-2.1 m 0.3,3.8 0.3,0.1 m -0.6,-3.9 4.9,2.6 m -22.4,-67.2 -0.2,0.2 -0.5,0.1 -0.5,0 -0.5,-0.2 -0.7,-0.3 -0.6,-0.3 -0.6,-0.5 -0.6,-0.6 -0.4,-0.5 -0.4,-0.6 -0.2,-0.6 -0.2,-0.5 0.1,-0.5 0.1,-0.3 0.1,-0.1 m 0.9,-0.6 -0.4,0.1 -0.3,0.3 -0.1,0.3 -0.1,0.5 0.1,0.5 0.3,0.6 0.4,0.5 0.4,0.6 0.6,0.6 0.6,0.4 0.6,0.4 0.6,0.3 0.6,0.2 0.5,0 0.4,-0.1 0.3,-0.2 0.2,-0.4 0,-0.4 -0.1,-0.5 m -3.8,-4.3 0.5,0.2 m -1.1,-0.1 0,0 0.1,-0.1 0,-0.1 0.1,0 0.1,0 0.1,0 0.1,0 0.1,0.1 m -0.6,0.4 0,-0.3 m -0.2,0.5 0.1,0 0.1,0 0,-0.1 0,-0.1 m 0.7,-0.1 -0.1,-0.1 -0.1,0 -0.1,0.1 m -0.4,-0.2 -0.3,0.4 m 0,0 0.1,0.1 m 0,-0.3 0,0 -0.1,0.1 0,0.1 m -98.7,-50.1 -0.1,0.1 -0.3,0.2 -0.5,0.1 -0.5,0 -0.7,-0.2 -0.6,-0.3 -0.7,-0.4 -0.6,-0.5 -0.6,-0.6 -0.5,-0.6 -0.3,-0.6 -0.2,-0.5 -0.1,-0.6 0.1,-0.4 0.1,-0.3 m 1.2,-0.7 -0.5,0.1 -0.4,0.2 -0.2,0.4 0,0.4 0,0.5 0.3,0.6 0.3,0.6 0.5,0.6 0.6,0.6 0.6,0.4 0.6,0.5 0.7,0.3 0.6,0.1 0.6,0.1 0.5,-0.1 0.3,-0.2 0.2,-0.4 0.1,-0.4 -0.1,-0.5 0,-0.1 m -3.8,-4.3 0.3,0.2 m -1,0 0,-0.1 0.1,-0.1 0.1,-0.1 0.1,0 0.1,0 0.2,0.1 0.1,0 m -0.7,0.4 0,-0.2 m -0.2,0.4 0,0 0.1,0 0.1,-0.1 0,-0.1 m 0,-0.2 -0.3,0.3 m 0,0 0,0.1 m 0.1,-0.3 0,0 0,0.1 -0.1,0.1 m 0.5,0.5 0.1,0.5 0.2,0.5 0.3,0.5 0.5,0.5 0.5,0.5 0.6,0.3 0.6,0.3 0.5,0.1 0.5,0 0.3,-0.1 0.3,-0.3 0,-0.4 0,-0.4 -0.3,-0.5 -0.3,-0.6 -0.5,-0.5 -0.5,-0.4 -0.6,-0.4 -0.6,-0.2 -0.5,-0.2 -0.5,0 -0.3,0.2 -0.3,0.2 0,0.4 m 2.1,3.1 0.6,0.3 0.6,0.2 0.5,0 0.3,-0.2 0.3,-0.2 0.1,-0.4 0,-0.5 m -3.8,-3.1 -0.1,0 -0.4,0.1 -0.3,0.2 -0.2,0.3 -0.1,0.4 0.2,0.5 0.2,0.5 0.4,0.6 0.5,0.5 0.6,0.5 0.6,0.3 m -3.1,-2.3 0.1,0.5 0.2,0.6 0.4,0.5 0.4,0.5 0.6,0.5 0.6,0.4 0.6,0.3 0.6,0.2 0.5,0 0.4,-0.1 0.3,-0.2 m -4.5,-3.7 -0.1,0.1 -0.1,0.4 m 104.3,54.8 0.1,0.5 0.3,0.5 0.3,0.5 0.5,0.5 0.5,0.4 0.6,0.4 0.5,0.2 0.5,0.1 0.4,0 0.3,-0.2 0.2,-0.3 0,-0.3 -0.1,-0.5 -0.2,-0.5 -0.4,-0.5 -0.5,-0.5 -0.5,-0.5 -0.5,-0.3 -0.6,-0.2 -0.5,-0.2 -0.4,0.1 -0.3,0.1 -0.1,0.3 -0.1,0.4 m 2.1,3.1 0.6,0.2 0.5,0.1 0.5,0 0.3,-0.1 0.2,-0.3 0.1,-0.4 -0.1,-0.3 m -3.5,-3.2 -0.2,0 -0.4,0.1 -0.3,0.2 -0.1,0.3 0,0.5 0.1,0.5 0.3,0.5 0.4,0.5 0.5,0.5 0.6,0.5 0.5,0.4 m -3.1,-2.3 0.1,0.5 0.3,0.5 0.3,0.5 0.5,0.5 0.6,0.5 0.5,0.4 0.6,0.3 0.5,0.1 0.5,0.1 0.4,-0.2 0.1,-0.1 m -4.2,-3.8 -0.1,0.3 -0.1,0.4 m -134.2,88.1 -0.4,-0.1 -0.2,0 m 3,-18.5 0.5,0.3 0.4,0.3 0.5,0.4 0.4,0.3 0.2,0.1 m -5.1,18 -0.6,-0.2 m 5.6,-12.4 -0.2,-0.3 m -1.7,-2.4 0,0.1 0.3,0.2 0.4,0.3 0.3,0.2 0.4,0.1 0.3,0.1 0.4,0.1 0.3,0 m 0,-3 -0.3,-0.3 -0.3,-0.2 -0.4,-0.3 -0.3,-0.2 -0.4,-0.1 -0.3,-0.1 -0.3,-0.1 -0.1,0 m 2.4,4.3 -0.5,0.6 m 0.5,-0.6 0,-3 m -0.5,1.2 -0.1,0.3 -0.2,0.1 -0.2,0 -0.3,-0.1 -0.4,-0.2 -0.2,-0.3 -0.2,-0.3 0,-0.3 0,-0.2 0.2,-0.1 0.3,0 0.3,0.1 0.3,0.2 0.2,0.3 0.2,0.3 0.1,0.2 m -7.5,19.7 -0.1,0 -0.2,0.3 -0.3,0.3 -0.5,0.2 -0.5,0 -0.5,0 -0.4,-0.2 -0.4,-0.3 -0.2,-0.4 m 0.7,-0.5 0.2,-0.2 m 1.3,0 0.2,0.3 0.1,0.2 -0.1,0.3 -0.2,0.2 -0.3,0.1 -0.4,0.1 -0.3,-0.1 -0.3,-0.2 -0.2,-0.2 -0.1,-0.3 0.1,-0.2 m 1.8,0.3 0,0 -0.1,0.3 -0.2,0.2 -0.3,0.1 -0.4,0.1 -0.3,-0.1 -0.3,-0.2 -0.2,-0.2 -0.1,-0.2 m 0.3,-0.3 0.1,-0.2 0.2,-0.1 m 0.7,0 0.2,0.1 0.2,0.2 0,0.2 -0.1,0.3 -0.1,0.1 -0.3,0.1 -0.3,0.1 -0.3,-0.1 -0.2,-0.1 -0.2,-0.2 0,-0.2 0.1,-0.2 m -3.5,-8.8 0,0.1 -0.2,0.2 m -0.1,0.1 -0.3,0.3 -0.5,0.2 -0.5,0 -0.5,-0.1 -0.4,-0.2 -0.2,-0.1 m 2,-1.1 0.1,0.1 0,0.3 -0.1,0.3 -0.2,0.2 -0.3,0.1 -0.4,0 -0.3,-0.1 -0.3,-0.1 -0.1,-0.1 m 1.7,-0.3 0,0 -0.1,0.3 -0.2,0.2 -0.3,0.1 -0.4,0 -0.3,-0.1 -0.3,-0.1 -0.1,-0.1 m 1.4,-0.8 0.1,0.2 0,0.2 0,0.2 -0.2,0.2 -0.3,0.1 -0.3,0 -0.3,0 -0.2,-0.2 -0.1,-0.1 m -55.6,-27.5 -0.1,0.1 -0.5,0.2 -0.2,0 m 77.9,36.8 -0.1,0.3 -0.4,0.3 -0.4,0.2 -0.5,0.1 -0.5,0 -0.5,-0.2 -0.2,-0.2 m 1.9,-1.1 0,0 0.1,0.3 0,0.3 -0.2,0.2 -0.2,0.2 -0.4,0 -0.3,0 -0.4,-0.1 -0.2,-0.2 m 1.7,-0.3 0,0.2 -0.2,0.2 -0.2,0.2 -0.4,0 -0.3,0 -0.4,-0.1 -0.2,-0.2 m 1.5,-0.7 0,0 0.1,0.2 -0.1,0.3 -0.1,0.1 -0.2,0.2 -0.3,0 -0.3,0 -0.3,-0.1 -0.1,-0.1 m -15.2,3.2 -0.5,-0.3 m 3.9,-2.1 -0.3,0.3 -0.4,0.1 -0.6,0.1 -0.5,-0.1 -0.4,-0.2 -0.4,-0.2 -0.2,-0.4 0,-0.4 0.1,-0.3 0.3,-0.4 0.4,-0.2 0.5,-0.1 0.5,0 0.5,0.1 0.4,0.3 0.3,0.3 0.1,0.4 0,0.3 -0.3,0.4 m 1.9,-3.6 -0.5,-0.2 m 2.5,-2.9 0.5,0.3 m -68.3,-30.7 -0.4,0.1 -0.2,0 m 1.5,-1.9 0.1,0.2 0.2,0.3 m 56.1,29.5 -0.3,0.1 -0.5,-0.1 -0.5,-0.2 -0.3,-0.3 -0.2,-0.1 m 2.5,-1.4 0.1,0.1 0.3,0.3 0.1,0.3 m 18.2,10.8 -0.4,0.1 -0.5,-0.1 -0.4,-0.2 -0.4,-0.3 -0.1,-0.1 m 2.5,-1.3 0.1,0 0.2,0.4 0.2,0.2 m -5.4,-17.1 -0.1,0.3 -0.3,0.2 -0.3,0.1 -0.5,-0.1 -0.4,-0.3 -0.5,-0.3 -0.3,-0.4 -0.3,-0.4 0,-0.5 m 0,0 0.1,-5.6 m 0,0 0,-0.3 0.3,-0.2 0.3,0 0.5,0.1 0.4,0.2 0.5,0.3 0.3,0.4 0.3,0.5 0,0.4 m 0,0 0,5.6 m -5.9,13.3 -0.5,0 -0.1,-0.1 m 6.5,-18.8 -0.8,0.9 m 0,5.3 0,-1 m 0,-4 0,-0.3 m 0,0 0,-0.4 -0.3,-0.4 -0.3,-0.5 -0.4,-0.3 -0.5,-0.2 -0.3,-0.1 m -15.3,-120.7 -0.2,8.5 m -0.7,23.3 0,0.8 m -0.1,3.8 -0.2,6.6 m 0.7,-0.8 -0.7,0.8 m 1.8,-41.4 -0.2,6.9 m -0.6,23.9 -0.3,9.8 m 161.4,84.6 -162.1,-83.8 m 163.4,83.4 -162.7,-84.2 m 153.6,73.8 -0.1,-0.1 -0.2,-0.2 -0.2,-0.2 m -30.8,-15.7 -0.1,-0.2 -0.2,-0.2 -0.2,-0.2 -0.3,-0.1 m 45.7,20.2 0.5,5.6 M 50,-177.1 l 0.1,0 0.3,0.2 0.2,0.2 0.1,0.1 m 32.3,16.7 0.1,0 0.3,0.1 0.2,0.2 0.2,0.2 0.1,0.1 m 33,18.1 -0.4,-0.2 -0.3,-0.4 -0.2,-0.3 -0.1,-0.3 0.1,-0.2 0.2,-0.2 0.3,0 0.3,0.2 0.4,0.2 0.3,0.3 0.2,0.3 0,0.4 0,0.2 -0.2,0.1 -0.3,0 -0.3,-0.1 m -163.7,58 1,0.5 m 79.2,-95.6 -79.2,95.6 m 78.1,-96.1 1.1,0.5 m -1.1,-0.5 -79.1,95.6 m 4.5,-53.9 -0.5,6.1 m -3.6,43.4 -0.4,4.4 m 80.5,-141.3 -0.4,12.7 m -0.6,22.2 -0.1,0.4 m -0.1,6 -0.2,4.4 m 2.3,-42.7 -0.2,8.8 m -0.7,23 0,1 m -0.1,4.1 -0.2,6.3 m 83.4,37 0,0 -0.3,-0.3 -0.3,-0.2 m -158.5,4.7 0.3,-0.6 m 243.5,35.7 0.5,5.5 m -248.4,14.6 0.7,-0.7 m 0,-0.1 0,0.1 m -0.6,-0.3 -0.1,1 m 83.8,39.2 -83.1,-39.9 m 15.8,1.1 0.2,0.2 0.2,0.2 0.1,0.2 0.1,0.2 -0.1,0.2 -0.1,0.1 -0.2,0 -0.3,-0.1 -0.2,-0.1 -0.2,-0.2 -0.2,-0.3 0,-0.2 0.1,-0.2 0.1,-0.1 0.2,0 0.3,0.1 m 32.3,15.6 0.2,0.1 0.2,0.3 0.2,0.2 0,0.2 -0.1,0.2 -0.1,0.1 -0.2,0 -0.3,-0.1 -0.2,-0.2 -0.2,-0.2 -0.1,-0.2 -0.1,-0.2 0.1,-0.2 0.1,-0.1 0.3,0 0.2,0.1 m 32.5,16.9 -0.3,-0.2 -0.3,-0.3 -0.2,-0.4 -0.1,-0.3 0.1,-0.2 0.2,-0.1 0.3,-0.1 0.3,0.1 0.4,0.3 0.3,0.3 0.1,0.3 0.1,0.3 -0.1,0.2 -0.2,0.2 -0.3,0 -0.3,-0.1 m 1.8,7 -83.1,-39.9 m 80.5,32.1 0.2,0.1 0.3,0.2 0.3,0.3 0.2,0.2 M 69.4,-76.4 40.3,-43.9 M 11,-11.2 0.1,1 m 158.6,-103.9 -87.9,25.5 m -0.9,0.5 -0.1,0.1 m 0.1,-0.1 0.3,-0.1 m -57.5,73.4 3.1,-1 m 137.7,-90.4 -0.9,1 m -4.7,5 -7.6,8.2 m -23.3,-3.7 0.2,-0.2 m -2.9,-3.2 0.2,-0.2 M 12.3,-2.9 16.1,-4.2 M 0.4,1.3 0.2,1.5 M 152,-94.9 152.2,-95 m -2.8,-3.2 0.2,-0.2 m 4.4,3.6 -0.9,0.9 m -4.3,4.6 -8.2,8.9 m 23.3,-21.1 0.1,-0.2 m 46.4,4 0.2,-0.1 M 81.2,-57 l 0.3,-0.3 m 132,-28 -30.4,31.4 M 144,-13.6 126.9,4 m 19.2,-135.9 0,-0.3 M -60.6,-74.7 -50,-87.5 m -9.9,13.4 10.7,-13 m 51.8,42.7 8.6,-9.9 m -8,10 8.5,-9.7 m 29,-132.8 0,-0.3 m 78.8,186.2 0.1,0.1 m -2.6,1.9 0,0 -0.1,-0.1 m 66.2,-68.6 0.4,-0.2 0.3,-0.1 0.2,0 0,0.2 -0.1,0.2 -0.3,0.3 -0.4,0.4 -0.4,0.3 -0.4,0.4 -0.4,0.2 -0.4,0.2 -0.2,0 -0.1,-0.1 0,-0.2 0.2,-0.3 0.3,-0.3 0.4,-0.4 0.3,-0.1 m 32,-44.1 -0.4,0.4 -0.5,0.3 -0.3,0.2 -0.3,0.1 -0.2,-0.1 m 2.6,-2.1 0,0.1 0,0.1 -0.2,0.3 -0.3,0.4 -0.4,0.3 m -136.1,86.3 0.5,-0.3 0.5,-0.3 0.4,-0.1 0.3,-0.1 0.1,0.1 0,0.2 -0.2,0.3 -0.3,0.4 -0.5,0.4 -0.5,0.3 -0.4,0.3 -0.5,0.3 -0.3,0.1 -0.2,-0.1 -0.1,-0.1 0.1,-0.3 0.3,-0.3 0.2,-0.2 m -43.1,47.9 -0.1,0.3 -0.3,0.3 -0.4,0.4 -0.4,0.3 -0.5,0.4 -0.5,0.2 -0.3,0.2 -0.3,0 -0.1,-0.1 m 2.8,-2.1 0.1,0 0,0.1 m -75.9,-124.2 66,-80.2 m 0,0.3 -65.9,80.2 m 42.2,-47.1 -0.3,-0.2 m 0,0.8 -0.5,-0.2 m -17.3,21.5 -0.3,-0.2 m 0,0.9 -0.5,-0.3 m -18.1,22.5 -0.3,-0.1 m 0,0.8 -0.5,-0.3 m 218.6,-54.9 -0.8,0.8 m -12.5,-12.4 1.1,-1.2 m 7.6,11.1 4.1,-4.4 m -4.4,-4.6 -4.2,4.7 m 7.5,-1.9 -4.5,4.9 m -7.6,-24.7 -2.8,3.1 m 9,20.2 4.5,-5 m 8.2,6.5 0.9,-0.9 m 1.2,-0.1 -2,2.2 m 0.2,2.4 3.6,-3.9 m 7.6,5.8 -3.8,4.1 m -18.7,-23 -0.4,0.5 m -0.5,0 1.3,-1.4 m -0.3,-1.6 -2.4,2.6 m -8.3,-3.4 5.7,-6.5 m 31,25.4 -0.6,0.7 m -11.3,-10.8 0.2,-0.3 m 2,4.7 5.1,-5.5 m -3,-1.6 -3.9,4.3 m -15.4,-17.5 1.1,-1.2 m 12.2,6.7 -4.4,4.8 m -106.7,-39.3 -0.6,0.7 m -12.9,-12.3 1.2,-1.5 m 8.2,12 4.1,-4.9 m -4.4,-4.7 -4.3,5.2 m 7.7,-2.4 -4.6,5.5 m -7.1,-25.4 -4.1,4.9 m 9.8,19.2 4.6,-5.6 m 8.5,7 1,-1.2 m 1.4,0 -2.4,2.8 m 0.1,3.1 4.3,-5.1 m 7.8,6 -3.2,3.8 m -20,-23.4 -0.3,0.4 m 0.6,-2.8 -2.2,2.6 m -8.5,-2.8 5.8,-7.2 m 32.2,26.3 -0.6,0.6 m -11.9,-10.9 0.4,-0.4 m 2.9,5.5 5,-6 m -3.2,-1.7 -4.3,5.1 m -15.7,-18.6 1.1,-1.4 m 13,7 -4.1,5 m 85.5,120 0,0.1 -0.2,0.6 -0.2,0.5 0,0.5 0.1,0.4 0.2,0.2 0.2,0.1 0.3,-0.1 0.4,-0.2 0.2,-0.2 m 11,14.1 0,0.6 -0.1,0.8 -0.1,0.1 m -0.3,-2.6 0.2,0.1 0.2,0.5 0.1,0.5 m -0.7,2.9 0.3,-0.7 0.2,-0.8 0.1,-0.8 0,-0.6 m 0,0 -0.1,-0.5 -0.2,-0.4 -0.3,-0.3 -0.4,-0.1 -0.5,0 -0.5,0.3 -0.5,0.4 -0.5,0.4 -0.5,0.6 -0.5,0.7 -0.3,0.5 m 4.5,-2.4 0,0 0.2,0.3 0.2,0.5 0,0.6 0,0.7 -0.1,0.4 m -12.3,-14.8 0.1,0.1 0.3,0 0.4,-0.2 0.4,-0.3 0.4,-0.5 0.4,-0.5 0.3,-0.4 m 6.7,3.6 -0.1,0.2 m -0.3,0.4 -0.1,0.2 m -0.2,0.2 -0.2,0.2 m -0.7,0.1 0,-0.1 m -12.1,13.3 0.1,0.4 m 0.2,-0.3 0,0.2 m -0.1,0.1 0,-0.3 m -1.1,0.9 0,0.4 m 0.2,-0.2 0.1,0.1 m -0.2,0.1 0,-0.3 m 11.9,-11.5 0.2,0.2 m -0.2,-0.2 0,0 m 1.1,-1.2 0.1,-0.1 m -1,0.1 -0.1,0.2 m -14.2,14.2 0,0.1 -0.3,0.6 -0.4,0.6 -0.4,0.5 -0.4,0.5 -0.4,0.3 -0.3,0.1 -0.4,0 m 20.1,-14.8 -0.2,0.2 m -0.1,-0.2 0.1,-0.1 m -2.5,-4.1 0,0 m 1.2,0.6 0.1,0 m 1.2,3.8 0.3,-0.2 m -0.7,-2 0,-0.1 m -2.6,-2.4 0,0 m -0.4,0.6 0.5,0.2 m -0.2,0.1 -0.4,-0.2 m 3,1.3 0,0 m 0,0 0,0 m 0.3,7 -0.1,0.1 m -11.1,-12.7 -0.1,0.5 -0.3,0.7 -0.3,0.7 -0.4,0.7 m 0.4,0.5 0.4,-0.6 0.4,-0.8 0.3,-0.7 0.2,-0.8 0.2,-0.7 0,-0.3 m 4.3,8.3 0.5,-0.6 0.4,-0.7 0.4,-0.7 0.4,-0.8 0.2,-0.7 0.1,-0.1 m -3.5,4.6 0,-0.1 0.5,-0.1 0.5,-0.4 0.5,-0.4 m 2.1,-3.6 -0.1,0.5 -0.3,0.8 -0.4,0.7 -0.5,0.7 -0.5,0.7 -0.5,0.5 -0.4,0.4 -0.5,0.3 -0.3,0.1 m 4.1,-4.7 0,0 -0.2,0.5 m -0.2,0.5 -0.2,0.5 -0.3,0.8 -0.5,0.7 -0.5,0.6 -0.5,0.6 -0.5,0.4 -0.4,0.2 -0.5,0.1 -0.1,0.1 m 7.2,4.2 0.1,-0.2 m 0,-0.2 -0.1,0.1 m -16.9,10.1 0,-0.1 m 6.4,-4.6 0,0 0,0.1 0.1,0 0,-0.1 0.1,0 m 12.6,-14.1 0,0.2 m -1.3,1 -0.1,-0.3 m 0.2,1.4 -0.1,-0.6 m 1.4,-1.7 0,0.1 m -20.1,18.9 0.2,-0.2 m 0,0 0,0 m 8.2,-4.6 0.1,0.1 0.1,-0.1 0.1,-0.1 0,-0.1 0,-0.1 0,-0.1 -0.1,0 0,0.1 m 1.3,0.6 -1,-0.5 m -0.3,2.4 -1.3,-0.6 m 0.6,-1.3 0.2,-0.2 0.1,-0.3 0.1,-0.3 0,-0.2 0,-0.2 -0.1,-0.1 m -0.7,1.5 0.1,0 0.1,0 0.2,-0.2 m -0.6,1 0.1,0.1 0,-0.1 0.1,0 0,-0.1 0.1,-0.1 0,-0.1 0,-0.1 m -0.3,0.3 0,0 0,0.1 0.1,0 0.1,-0.1 0,-0.1 0.1,-0.1 0,-0.1 m 0.8,-2.2 0,0 0,0.1 0.1,-0.1 0.1,-0.1 m -0.2,0.2 0,0 0.1,0 0,-0.1 0.1,0 m -0.6,3.4 0,-0.1 m -114.6,-35.2 32,16.2 m -29.7,-19 31.1,15.7 m -24.7,-23 24.6,12.5 m -23.6,-13.7 24.1,12.3 M 80.5,-154 31,-96.6 m 91.2,-35.8 -47.8,53.2 m 46.4,-53.9 -49,54.7 m -121.1,-19.2 -0.1,-0.1 0,-0.1 -0.2,-0.1 -0.2,-0.1 -0.1,0 -0.2,0.1 -0.1,0.1 -0.1,0.1 0,0.1 m 78.5,-86.5 0.1,-1.2 m -79.8,92.3 -0.3,3 m 233.9,-81 0.2,-0.2 M 79,-226.5 l 0.2,-0.2 M 71,-78.2 32.4,-97.3 m 17.7,12.7 -0.7,-0.4 m 3.2,-9 -0.5,0.6 m 82.5,-85.8 -19.6,-10.5 m -82.4,-40.4 -45.7,56.7 m -20.9,26 -8.3,10.3"
     style="fill:none;stroke:#000000;stroke-opacity:1;stroke-width:0.709;stroke-linecap:round;stroke-linejoin:round;stroke-miterlimit:10;stroke-dasharray:none"
     id="path3965" /></g><text
   xml:space="preserve"
   style="font-size:32px;font-style:normal;font-weight:normal;line-height:125%;letter-spacing:0px;word-spacing:0px;fill:#000000;fill-opacity:1;stroke:none;font-family:Sans"
   x="389.26245"
   y="-83.597839"
   id="text3853"
   sodipodi:linespacing="125%"
   transform="scale(1,-1)"><tspan
     sodipodi:role="line"
     id="tspan3855"
     x="389.26245"
     y="-83.597839"
     style="font-size:11.19999981px;font-style:normal;font-variant:normal;font-weight:normal;font-stretch:normal;font-family:Sans;-inkscape-font-specification:Helvetica">Battery Area</tspan></text>

<path
   style="fill:none;stroke:#000000;stroke-width:0.80000001px;stroke-linecap:butt;stroke-linejoin:miter;stroke-opacity:1"
   d="m 383.46666,86.933309 -32.53333,0 -65.06667,83.733341"
   id="path3239"
   inkscape:connector-curvature="0"
   sodipodi:nodetypes="ccc" /><text
   transform="scale(1,-1)"
   sodipodi:linespacing="125%"
   id="text3241"
   y="-103.14947"
   x="404.72913"
   style="font-size:32px;font-style:normal;font-weight:normal;line-height:125%;letter-spacing:0px;word-spacing:0px;fill:#000000;fill-opacity:1;stroke:none;font-family:Sans"
   xml:space="preserve"><tspan
     style="font-size:11.19999981px;font-style:normal;font-variant:normal;font-weight:normal;font-stretch:normal;font-family:Sans;-inkscape-font-specification:Helvetica"
     y="-103.14947"
     x="404.72913"
     id="tspan3243"
     sodipodi:role="line">Battery Connections</tspan></text>

<path
   style="fill:none;stroke:#000000;stroke-width:1px;stroke-linecap:butt;stroke-linejoin:miter;stroke-opacity:1"
   d="m 498,398.16294 -33.33333,0 L 352,265.49628"
   id="path3245"
   inkscape:connector-curvature="0"
   transform="matrix(0.8,0,0,-0.8,0,425.197)" /><path
   style="fill:none;stroke:#000000;stroke-width:1px;stroke-linecap:butt;stroke-linejoin:miter;stroke-opacity:1"
   d="m 290,370.82961 104,78.66667 55.33334,0"
   id="path3247"
   inkscape:connector-curvature="0"
   transform="matrix(0.8,0,0,-0.8,0,425.197)"
   sodipodi:nodetypes="ccc" /><text
   transform="scale(1,-1)"
   sodipodi:linespacing="125%"
   id="text3249"
   y="-62.616135"
   x="365.79581"
   style="font-size:32px;font-style:normal;font-weight:normal;line-height:125%;letter-spacing:0px;word-spacing:0px;fill:#000000;fill-opacity:1;stroke:none;font-family:Sans"
   xml:space="preserve"><tspan
     style="font-size:11.19999981px;font-style:normal;font-variant:normal;font-weight:normal;font-stretch:normal;font-family:Sans;-inkscape-font-specification:Helvetica"
     y="-62.616135"
     x="365.79581"
     id="tspan3251"
     sodipodi:role="line">Internal Access Latches</tspan></text>

<path
   style="fill:none;stroke:#000000;stroke-width:2.4000001;stroke-linecap:butt;stroke-linejoin:miter;stroke-miterlimit:4;stroke-opacity:1;stroke-dasharray:none;marker-start:url(#TriangleInM);marker-mid:none;marker-end:none"
   d="M 182.3447,345.26772 C 158.44118,329.85998 134.1627,290.15521 149.97339,231.60568"
   id="path3376"
   inkscape:connector-curvature="0"
   sodipodi:nodetypes="cc" /></g></svg>