<?xml version="1.0" encoding="UTF-8" standalone="no"?>
<!-- Created with Inkscape (http://www.inkscape.org/) -->

<svg
   xmlns:dc="http://purl.org/dc/elements/1.1/"
   xmlns:cc="http://creativecommons.org/ns#"
   xmlns:rdf="http://www.w3.org/1999/02/22-rdf-syntax-ns#"
   xmlns:svg="http://www.w3.org/2000/svg"
   xmlns="http://www.w3.org/2000/svg"
   xmlns:sodipodi="http://sodipodi.sourceforge.net/DTD/sodipodi-0.dtd"
   xmlns:inkscape="http://www.inkscape.org/namespaces/inkscape"
   id="svg3004"
   version="1.1"
   inkscape:version="0.48.4 r9943 custom"
   width="761.81125"
   height="988.5825"
   xml:space="preserve"
   sodipodi:docname="cover-page.svg"><metadata
     id="metadata3010"><rdf:RDF><cc:Work
         rdf:about=""><dc:format>image/svg+xml</dc:format><dc:type
           rdf:resource="http://purl.org/dc/dcmitype/StillImage" /><dc:title /></cc:Work></rdf:RDF></metadata><defs
     id="defs3008"><clipPath
       clipPathUnits="userSpaceOnUse"
       id="clipPath3020"><path
         inkscape:connector-curvature="0"
         d="M 0,0 792,0 792,612 0,612 0,0 z"
         id="path3022" /></clipPath></defs><sodipodi:namedview
     pagecolor="#ffffff"
     bordercolor="#666666"
     borderopacity="1"
     objecttolerance="10"
     gridtolerance="10"
     guidetolerance="10"
     inkscape:pageopacity="0"
     inkscape:pageshadow="2"
     inkscape:window-width="867"
     inkscape:window-height="679"
     id="namedview3006"
     showgrid="false"
     inkscape:zoom="0.5"
     inkscape:cx="420.63894"
     inkscape:cy="476.17369"
     inkscape:window-x="303"
     inkscape:window-y="32"
     inkscape:window-maximized="0"
     inkscape:current-layer="g3012" /><g
     id="g3012"
     inkscape:groupmode="layer"
     inkscape:label="Jackal"
     transform="matrix(1.25,0,0,-1.25,0,988.5825)"><flowRoot
       xml:space="preserve"
       id="flowRoot3145"
       style="font-size:40px;font-style:normal;font-weight:normal;line-height:125%;letter-spacing:0px;word-spacing:0px;fill:#000000;fill-opacity:1;stroke:none;font-family:Sans"
       transform="matrix(0.8,0,0,-0.8,19.2,789.65423)"><flowRegion
         id="flowRegion3147"><rect
           id="rect3149"
           width="498"
           height="172"
           x="92"
           y="676.58252" /></flowRegion><flowPara
         id="flowPara3151"
         style="font-size:72px;font-style:normal;font-variant:normal;font-weight:bold;font-stretch:normal;font-family:DINPro;-inkscape-font-specification:DINPro Bold">JACKAL</flowPara></flowRoot><flowRoot
       xml:space="preserve"
       id="flowRoot3161"
       style="font-size:40px;font-style:normal;font-weight:normal;line-height:125%;letter-spacing:0px;word-spacing:0px;fill:#ee8426;fill-opacity:1;stroke:none;font-family:Sans"
       transform="matrix(0.8,0,0,-0.8,19.033478,721.11495)"><flowRegion
         id="flowRegion3163"><rect
           id="rect3165"
           width="498"
           height="172"
           x="92"
           y="676.58252"
           style="fill:#ee8426;fill-opacity:1" /></flowRegion><flowPara
         id="flowPara3167"
         style="font-size:24px;font-style:normal;font-variant:normal;font-weight:bold;font-stretch:normal;fill:#808080;font-family:DINPro;-inkscape-font-specification:DINPro Bold;fill-opacity:1">UNMANNED GROUND VEHICLE</flowPara></flowRoot><flowRoot
       transform="matrix(0.8,0,0,-0.8,18.068629,665.86617)"
       style="font-size:40px;font-style:normal;font-weight:normal;line-height:125%;letter-spacing:0px;word-spacing:0px;fill:#ee0000;fill-opacity:1;stroke:none;font-family:Sans"
       id="flowRoot3171"
       xml:space="preserve"><flowRegion
         id="flowRegion3173"><rect
           y="676.58252"
           x="92"
           height="172"
           width="498"
           id="rect3175"
           style="fill:#ee0000;fill-opacity:1" /></flowRegion><flowPara
         style="font-size:36px;font-style:normal;font-variant:normal;font-weight:bold;font-stretch:normal;font-family:DINPro;-inkscape-font-specification:DINPro Bold;fill:#ee8426;fill-opacity:1"
         id="flowPara3177">USER MANUAL</flowPara></flowRoot><g
       id="g3018"
       clip-path="url(#clipPath3020)"
       style="stroke-width:2.74348593;stroke-miterlimit:4;stroke-dasharray:none"
       transform="matrix(0.87479948,0,0,0.87479948,-52.32268,179.86865)"><g
         id="g3024"
         transform="matrix(0,-1,1,0,0,612)"
         style="stroke-width:2.74348593;stroke-miterlimit:4;stroke-dasharray:none"><path
           d="m 373.439,508.72 -2.88,0.12 -5.4,0 -5.28,-0.36 -5.28,-0.48 -5.16,-0.72 -5.16,-1.08 -5.04,-1.32 -4.92,-1.56 -4.68,-1.8 -4.68,-2.04 -4.44,-2.4 -4.2,-2.52 -3.96,-2.88 -3.72,-3 -3.6,-3.36 -3.24,-3.48 -2.88,-3.6 -2.76,-3.84 -2.28,-4.08 -2.16,-4.2 -1.68,-4.32 -1.44,-4.44 -1.2,-4.56 -0.84,-4.68 -0.48,-4.68 -0.12,-4.8 0.24,-4.92 0.48,-4.92 0.84,-5.04 1.2,-5.04 1.68,-5.04 1.92,-5.04 2.28,-5.04 2.64,-5.04 3,-4.92 3.36,-4.92 3.72,-4.68 4.08,-4.68 4.32,-4.56 4.68,-4.32 4.92,-4.2 5.16,-3.96 5.52,-3.72 5.64,-3.6 5.88,-3.24 6,-3 6.24,-2.76 6.36,-2.4 6.48,-2.16 6.48,-1.8 6.6,-1.44 6.6,-1.2 6.6,-0.84 6.6,-0.48 6.6,-0.12 6.36,0.24 6.36,0.48 6.24,0.96 6,1.2 5.88,1.56 5.52,1.92 5.4,2.28 5.04,2.4 4.8,2.88 4.56,3 4.2,3.24 3.84,3.6 3.48,3.6 3.24,3.96 2.88,4.08 2.52,4.2 2.16,4.32 1.8,4.44 1.44,4.56 1.08,4.68 0.84,4.68 0.36,4.68 0.12,4.8 -0.24,4.92 -0.6,4.8 -0.84,4.8 -1.32,4.8 -1.56,4.8 -1.8,4.68 -2.16,4.68 -2.52,4.56 -2.76,4.56 -3,4.32 -3.24,4.32 -3.48,4.08 -3.72,3.96 -3.84,3.84 -4.08,3.6 -4.2,3.6 -8.88,6.48 -4.68,3 -4.8,2.76 -4.8,2.64 -5.04,2.52 -5.04,2.28 -5.16,2.04 -5.16,1.92 -5.28,1.68 -5.28,1.44 -5.4,1.32 -5.28,1.08 -5.4,0.84 -5.4,0.6 -5.4,0.48 -2.4,0 m -100.44,-320.52 0.72,-0.48 3.72,-2.4 3.96,-2.04 3.96,-1.92 3.96,-1.68 4.2,-1.44 4.2,-1.2 4.2,-0.96 4.32,-0.72 4.32,-0.48 4.32,-0.12 4.2,0 4.32,0.36 4.2,0.6 4.08,0.72 4.08,1.08 3.84,1.32 3.84,1.56 3.72,1.68 3.48,1.92 3.48,2.16 3.24,2.4 3,2.52 2.88,2.76 2.64,2.88 2.52,3 2.28,3.12 2.04,3.24 1.8,3.48 1.68,3.48 1.44,3.48 1.08,3.72 0.96,3.6 0.84,3.84 0.48,3.72 0.24,3.84 0.12,3.72 -0.12,3.84 -0.36,3.84 -0.6,3.72 -0.12,0.6"
           style="fill:none;stroke:#000000;stroke-width:2.74348593;stroke-linecap:round;stroke-linejoin:round;stroke-miterlimit:4;stroke-opacity:1;stroke-dasharray:none"
           id="path3026"
           inkscape:connector-curvature="0" /></g><g
         id="g3028"
         transform="matrix(0,-1,1,0,0,612)"
         style="stroke-width:2.74348593;stroke-miterlimit:4;stroke-dasharray:none"><path
           d="m 324.599,643.48 -2.28,0.12 -4.2,0.24 -4.08,0.12 -4.2,0 -4.08,-0.24 -4.08,-0.36 -3.96,-0.48 -4.08,-0.72 -3.84,-0.84 -3.84,-1.08 -3.72,-1.32 -3.6,-1.56 -3.48,-1.68 -3.36,-1.92 -3,-2.16 -2.88,-2.4 -2.64,-2.52 -2.28,-2.64 -2.04,-2.76 -1.8,-2.88 -1.56,-3 -1.32,-3.12 -0.96,-3.12 -0.72,-3.24 -0.48,-3.36 -0.12,-3.24 0,-3.36 0.36,-3.36 0.6,-3.36 0.84,-3.36 1.08,-3.24 1.44,-3.36 1.56,-3.36 1.92,-3.24 1.08,-1.68 m 45.84,-33.72 4.44,-1.56 4.68,-1.56 4.92,-1.32 4.8,-1.2 4.92,-0.96 4.92,-0.84 4.8,-0.6 4.92,-0.36 4.8,-0.24 9.6,0.24 4.68,0.48 4.56,0.72 4.44,0.84 4.32,1.08 4.2,1.44 3.96,1.56 3.84,1.8 3.48,1.92 3.36,2.16 3,2.4 2.76,2.4 2.52,2.64 2.28,2.76 1.92,2.88 1.8,2.88 1.32,3 1.2,3.12 0.96,3.12 0.6,3.24 0.36,3.12 0.12,3.24 -0.12,3.24 -0.36,3.24 -0.6,3.12 -0.96,3.24 -1.08,3.12 -1.32,3.12 -1.68,3.12 -1.92,3.12 -2.16,3 -2.28,3 -2.64,2.88 -2.76,2.76 -3,2.76 -3.12,2.52 -3.24,2.52 -3.36,2.28 -3.48,2.16 -3.6,2.16 -3.6,1.92 -3.84,1.92 -3.84,1.68 -3.96,1.68 -3.96,1.56 -3.96,1.32 -4.08,1.32 -4.2,1.08 -4.08,1.08 -8.4,1.68 -4.2,0.6 -3.96,0.48 -0.84,0.12 m 41.88,-68.4 -0.48,-0.12 -2.16,-0.36 -2.52,-0.24 -2.64,-0.24 -2.88,-0.12 -3,0.12 -3.24,0.12 -3.36,0.24 -3.48,0.48 -3.48,0.6 -3.48,0.72 -3.6,0.84 -3.48,0.96 -3.48,1.2 -3.36,1.2 -3.36,1.32 -3.12,1.44 -3,1.44 -2.76,1.56 -2.64,1.44 -2.4,1.56 -2.04,1.56 -1.92,1.56 -0.96,0.84 m 74.28,-84.48 -7.8,20.88 m -13.08,-322.2 81.12,130.44"
           style="fill:none;stroke:#000000;stroke-width:2.74348593;stroke-linecap:round;stroke-linejoin:round;stroke-miterlimit:4;stroke-opacity:1;stroke-dasharray:none"
           id="path3030"
           inkscape:connector-curvature="0" /></g><g
         id="g3032"
         transform="matrix(0,-1,1,0,0,612)"
         style="stroke-width:2.74348593;stroke-miterlimit:4;stroke-dasharray:none"><path
           d="m 211.559,183.64 20.64,-17.04 m -22.2,19.92 0.12,-0.36 0,-0.48 0.24,-0.36 0.12,-0.48 0.24,-0.36 0.24,-0.24 0.24,-0.36 0.36,-0.24 m -21,258.84 19.44,-255.96 m 74.88,12.6 65.28,6.6 m -144.72,411.36 -0.48,-0.24 -0.72,-0.72 -0.24,-0.36 -0.36,-0.48 -0.36,-1.44 m 18.48,11.28 -16.32,-8.04 m -2.16,-3.24 -12.72,-170.88 m 62.04,162.24 -5.4,0.48 m 102.96,-399.96 0.48,0 0.36,0.12 0.48,0.12 0.72,0.48 0.24,0.36 0.36,0.24 0.24,0.36 m -162.48,235.56 0,-0.48 m 196.56,-32.28 0.84,1.92 m 0.84,16.44 -8.16,-18.84 m -24.36,27.84 -2.52,-6.72 m 77.04,-25.08 6.72,12.48 m -20.64,9.84 -11.16,-22.8 m -36.72,11.16 8.64,21 m -0.36,-26.04 9.12,21.24 m 21.48,-5.16 -2.88,-6.12 m -22.2,14.04 -9.24,-21.96 m 31.2,0.96 6.84,14.16 m -61.08,21.36 8.52,24.36 m 88.8,-46.2 1.08,2.04 m -11.04,25.2 -10.08,-20.28 m -52.32,14.64 3.12,8.04 m -11.28,14.52 -8.4,-22.68 m 58.68,-1.2 -0.96,-2.16 m 4.08,-7.68 9.12,18.6 m -19.44,4.2 4.92,10.8 m -32.4,7.8 -2.04,-5.4 m -50.76,120.84 -2.64,-10.2 m -22.44,17.16 -1.08,-5.04 m 62.04,-16.08 1.68,5.4 m -15.6,6.84 -4.08,-14.28 m -29.52,7.92 3.36,13.92 m 3.24,-16.32 3.36,13.08 m 16.56,-4.2 -3.36,-12.24 m -15.84,18.24 -3.48,-14.28 m 21.72,-5.52 3.96,14.28 m -41.52,15.12 3.12,14.16 m 68.04,-30.96 0.12,0.36 m -6.6,15.12 -4.08,-13.56 m -43.68,15.72 0.6,2.64 m -8.04,9.12 -2.88,-13.08 m 41.28,-3.72 -0.6,-2.28 m 7.32,-5.88 3.72,12.6 m -11.64,4.92 1.2,4.56 m -25.32,6.48 -1.08,-4.32 m -13.56,-280.32 54.12,2.04 m 30.12,-6.6 -84.96,-3.48 m -66.24,272.4 5.04,-0.36 m 119.16,-95.88 -7.68,20.52 m -13.32,-323.4 81.12,131.4 m -81.12,-131.4 -65.4,-6.48 m 65.4,6.48 0.72,0.12 1.2,0.72 0.36,0.48 0.12,0.12"
           style="fill:none;stroke:#000000;stroke-width:2.74348593;stroke-linecap:round;stroke-linejoin:round;stroke-miterlimit:4;stroke-opacity:1;stroke-dasharray:none"
           id="path3034"
           inkscape:connector-curvature="0" /></g><g
         id="g3036"
         transform="matrix(0,-1,1,0,0,612)"
         style="stroke-width:2.74348593;stroke-miterlimit:4;stroke-dasharray:none"><path
           d="m 211.439,183.88 0,-0.24 0.12,0 m -21,258.84 0,0.24 m 159.6,-237 0.24,0 0.24,0.24 m -147.36,407.88 0,-0.24 m 2.16,3.48 0.36,0.12 0.6,0 0.6,-0.12 0.6,-0.24 m -17.04,-173.88 0,-0.24 m 190.92,44.16 -4.32,0 -4.2,-0.24 -4.2,-0.48 -3.96,-0.72 -3.72,-0.96 -3.72,-1.32 -3.36,-1.44 -3.24,-1.68 -2.88,-1.92 -2.76,-2.16 -2.4,-2.4 -2.04,-2.64 -1.8,-2.76 -1.56,-2.88 -1.08,-3.12 -0.72,-3.24 -0.36,-3.48 0,-3.48 0.36,-3.6 0.72,-3.6 1.2,-3.72 1.56,-3.72 1.92,-3.84 2.28,-3.72 2.64,-3.6 3,-3.6 3.36,-3.48 3.72,-3.36 3.96,-3.24 4.2,-3 4.44,-2.76 4.68,-2.64 4.92,-2.28 4.92,-2.16 5.16,-1.8 5.16,-1.44 5.16,-1.2 5.16,-0.84 5.04,-0.6 5.04,-0.24 4.92,0 4.8,0.48 4.56,0.6 4.32,1.08 4.08,1.32 3.72,1.56 3.6,1.92 3.12,2.04 2.88,2.4 2.52,2.52 2.04,2.76 1.8,2.88 1.32,3.12 1.08,3.24 0.6,3.36 0.24,3.36 -0.12,3.48 -0.48,3.48 -0.84,3.6 -1.2,3.48 -1.44,3.48 -1.92,3.48 -2.16,3.48 -2.4,3.36 -2.64,3.24 -3,3.24 -3.24,3 -3.36,2.88 -3.6,2.76 -3.84,2.64 -3.96,2.4 -4.08,2.16 -4.2,2.04 -4.32,1.92 -4.32,1.56 -4.44,1.44 -4.56,1.2 -4.44,0.96 -4.44,0.72 -4.56,0.48 -4.32,0.24 m -4.2,-35.52 -0.24,-0.48 -0.24,-0.36 -0.48,-0.36 -0.36,-0.24 -0.6,-0.24 -1.2,-0.24 -0.6,0 m 3.72,1.92 0.12,0.36 0.24,0.36 0.12,0.24 0.24,0.36 0.12,0.36 0.24,0.24 0.48,0.72 m -0.24,3.72 0.36,-0.48 0.24,-0.48 0.12,-0.6 0.12,-0.48 0,-0.48 -0.12,-0.48 -0.48,-0.72 m -0.24,3.72 -11.28,14.52 m -8.28,2.04 0.96,0.36 1.08,0.24 1.08,0 1.2,-0.24 1.2,-0.36 1.08,-0.6 0.96,-0.6 0.72,-0.84"
           style="fill:none;stroke:#000000;stroke-width:2.74348593;stroke-linecap:round;stroke-linejoin:round;stroke-miterlimit:4;stroke-opacity:1;stroke-dasharray:none"
           id="path3038"
           inkscape:connector-curvature="0" /></g><g
         id="g3040"
         transform="matrix(0,-1,1,0,0,612)"
         style="stroke-width:2.74348593;stroke-miterlimit:4;stroke-dasharray:none"><path
           d="m 359.039,474.28 -2.64,-1.68 -2.4,-2.04 -2.16,-2.16 -1.92,-2.4 -1.44,-2.52 -1.2,-2.76 -0.84,-2.88 -0.48,-3 m 6.6,-5.16 -1.32,0.12 -1.2,0.36 -1.2,0.48 -0.96,0.6 -0.84,0.84 -0.72,0.96 -0.36,0.84 0,0.96 m 6.6,-5.16 21,-0.24 m 4.08,-12 -21.36,0.12 m -3.48,-5.28 -0.48,0.96 -0.24,0.96 0.12,0.84 0.36,0.84 0.6,0.72 0.84,0.48 1.08,0.36 1.2,0.12 m -3.48,-5.28 2.4,-3.36 2.76,-3.12 3.12,-3.12 3.48,-2.88 3.6,-2.88 3.96,-2.52 4.08,-2.4 4.32,-2.16 m 7.44,2.28 -0.24,-0.96 -0.48,-0.72 -0.72,-0.72 -1.08,-0.36 -1.08,-0.24 -1.32,0 -1.32,0.24 -1.2,0.48 m 7.44,2.28 0.84,16.44 m -2.4,4.08 0.48,-0.48 0.6,-0.48 0.72,-0.96 0.36,-0.6 0.12,-0.48 0.12,-0.6 0,-0.48 m -2.4,4.08 -0.48,0.24 -1.44,1.08 -0.36,0.36 -0.48,0.36 -0.36,0.36 -0.48,0.36 m -5.16,2.04 0.72,0 0.6,-0.12 2.16,-0.72 1.2,-0.72 0.48,-0.48 m 22.32,-10.68 -0.48,-16.56 m 6.96,-5.76 -1.2,0.24 -1.32,0.36 -1.2,0.48 -1.08,0.84 -0.96,0.84 -0.72,0.96 -0.36,1.08 -0.12,0.96 m 6.96,-5.76 4.44,0.12 4.2,0.48 3.96,0.72 3.84,0.96 3.48,1.32 3.36,1.56 2.88,1.8 2.64,2.04 m -2.88,6.84 2.16,-1.44 0.72,-0.96 0.6,-0.96 0.24,-0.96 0,-0.96 -0.24,-0.84 -0.6,-0.72 m -2.88,6.84 -20.64,9.84 m -5.28,0.48 0.48,0.12 0.6,0.12 0.72,0.12 0.6,0 0.72,-0.12 0.72,-0.24 0.72,-0.12 0.72,-0.36 m -5.28,0.48 -0.48,-0.24 -0.36,-0.12 -0.48,-0.12 -2.4,-0.6 m -2.76,-2.76 0,0.48 0.48,0.96 0.24,0.36 0.48,0.36 0.96,0.48 0.6,0.12 m 13.92,10.44 20.4,-9.72 m 6.72,1.92 -0.12,-0.84 -0.48,-0.72 -0.6,-0.48 -0.96,-0.48 -0.96,-0.12 -1.2,0 -2.4,0.72"
           style="fill:none;stroke:#000000;stroke-width:2.74348593;stroke-linecap:round;stroke-linejoin:round;stroke-miterlimit:4;stroke-opacity:1;stroke-dasharray:none"
           id="path3042"
           inkscape:connector-curvature="0" /></g><g
         id="g3044"
         transform="matrix(0,-1,1,0,0,612)"
         style="stroke-width:2.74348593;stroke-miterlimit:4;stroke-dasharray:none"><path
           d="m 448.919,430.12 -0.24,3.24 -0.48,3.12 -0.96,3.24 -1.2,3.24 -1.56,3.12 -1.92,3.12 -2.16,3.12 -2.52,3 m -8.04,1.8 0.72,0.48 0.96,0.24 1.2,0 1.08,-0.24 1.2,-0.36 1.08,-0.48 0.96,-0.72 0.84,-0.72 m -8.04,1.8 -12.24,-8.76 m -0.6,-3.6 -0.24,0.6 -0.12,0.48 0,0.96 0.12,0.48 0.48,0.72 0.36,0.36 m -0.6,-3.6 0.24,-0.36 0.24,-0.48 0.12,-0.36 0.24,-0.36 0.12,-0.48 0.12,-0.36 0.12,-0.48 0.12,-0.36 m 3.48,-3.6 -0.6,0.24 -0.6,0.48 -0.6,0.36 -0.48,0.48 -0.72,0.96 -0.24,0.6 -0.24,0.48 m -13.08,16.2 12.36,8.52 m -2.28,5.88 0.96,-0.6 0.96,-0.72 0.6,-0.84 0.48,-0.84 0.24,-0.84 -0.12,-0.72 -0.24,-0.72 -0.6,-0.6 m -2.28,5.88 -3.96,1.68 -3.96,1.56 -4.08,1.32 -4.08,1.2 -4.2,0.84 -4.08,0.6 -4.08,0.48 -3.96,0.12 m -2.76,-4.56 -0.48,0.84 -0.36,0.84 0,0.72 0.36,0.72 0.48,0.6 0.72,0.48 0.96,0.24 1.08,0.12 m -2.76,-4.56 11.4,-14.4 m 4.68,-2.52 -0.72,0.12 -0.72,0.24 -1.2,0.48 -0.6,0.36 -0.6,0.48 -0.48,0.36 -0.36,0.48 m 4.68,-2.52 0.48,-0.12 0.6,-0.12 0.48,-0.12 0.6,-0.12 0.48,-0.12 0.6,-0.12 0.48,-0.24 0.48,-0.12 m 4.8,0.36 -0.96,-0.48 -0.6,-0.12 -0.6,-0.12 -0.6,0 -0.6,0.12 -0.72,0.12 -0.72,0.12 m -72.12,172.2 -3.48,0.24 -3.36,0.12 -3.36,-0.12 -3.24,-0.24 -3.12,-0.36 -2.88,-0.48 -2.88,-0.72 -2.64,-0.84 -2.52,-0.96 -2.16,-1.08 -2.16,-1.2 -1.8,-1.44 -1.56,-1.56 -1.32,-1.56 -1.08,-1.8 -0.72,-1.8 -0.48,-1.92 -0.24,-2.04 0.12,-2.04 0.36,-2.16 0.72,-2.16 0.96,-2.28 1.32,-2.16 1.56,-2.28 1.92,-2.16 2.16,-2.28 1.2,-1.08"
           style="fill:none;stroke:#000000;stroke-width:2.74348593;stroke-linecap:round;stroke-linejoin:round;stroke-miterlimit:4;stroke-opacity:1;stroke-dasharray:none"
           id="path3046"
           inkscape:connector-curvature="0" /></g><g
         id="g3048"
         transform="matrix(0,-1,1,0,0,612)"
         style="stroke-width:2.74348593;stroke-miterlimit:4;stroke-dasharray:none"><path
           d="m 366.479,575.08 1.68,0.36 2.88,0.84 2.76,0.96 2.4,1.2 2.16,1.2 1.92,1.44 1.68,1.56 1.44,1.68 1.08,1.68 0.72,1.92 0.6,1.92 0.24,1.92 -0.12,2.04 -0.36,2.04 -0.6,2.16 -0.96,2.04 -1.08,2.16 -1.44,2.16 -1.68,2.04 -1.8,2.04 -2.16,2.04 -2.28,1.92 -2.52,1.92 -2.64,1.8 -2.88,1.8 -3,1.56 -3.12,1.56 -3.24,1.44 -3.24,1.32 -3.48,1.2 -3.48,1.08 -3.48,0.96 -3.48,0.84 -3.6,0.72 -3.6,0.48 -3.48,0.48 m -5.76,-20.52 -0.48,-0.48 -0.72,-0.24 -0.48,-0.12 -0.48,0 -0.48,-0.12 -0.48,0.12 m 3.12,0.84 0.12,0.12 0.24,0.48 0.24,0.12 0.36,0.36 0.24,0.12 0.24,0.24 m 0,2.16 0.24,-0.36 0.12,-0.24 0.12,-0.36 0,-0.6 -0.24,-0.48 -0.24,-0.12 m 0,2.16 -8.04,9.12 m -6.36,1.56 0.72,0.24 1.8,0 0.96,-0.24 0.84,-0.24 0.84,-0.36 0.72,-0.48 0.48,-0.48 m -6.36,1.56 -2.28,-0.84 -2.04,-0.96 -1.8,-1.2 -1.68,-1.32 -1.32,-1.32 -1.08,-1.56 -0.84,-1.56 -0.6,-1.8 m 4.92,-3.24 -0.96,0.12 -0.96,0.24 -0.96,0.36 -0.72,0.48 -0.6,0.48 -0.48,0.6 -0.24,0.48 0,0.48 m 4.92,-3.24 16.56,-1.32 m 2.4,-7.2 -16.8,1.32 m -3,-2.76 -0.36,0.6 -0.12,0.48 0.12,0.6 0.36,0.36 0.48,0.36 0.72,0.24 0.96,0.12 0.84,0 m -3,-2.76 1.68,-2.04 2.04,-1.92 2.16,-1.92 2.52,-1.92 2.64,-1.68 2.88,-1.68 3.12,-1.68 3.12,-1.44 m 6,0.84 -0.24,-0.48 -0.48,-0.36 -0.6,-0.36 -0.84,-0.24 -0.84,0 -0.96,0.12 -1.08,0.12 -0.96,0.36 m 6,0.84 1.92,9.24 m -1.68,2.4 0.72,-0.48 0.36,-0.36 0.24,-0.36 0.12,-0.24 0.24,-0.72 0,-0.24 m -1.68,2.4 -1.08,0.72 -0.36,0.12 -0.24,0.24 -0.72,0.48 -0.24,0.24"
           style="fill:none;stroke:#000000;stroke-width:2.74348593;stroke-linecap:round;stroke-linejoin:round;stroke-miterlimit:4;stroke-opacity:1;stroke-dasharray:none"
           id="path3050"
           inkscape:connector-curvature="0" /></g><g
         id="g3052"
         transform="matrix(0,-1,1,0,0,612)"
         style="stroke-width:2.74348593;stroke-miterlimit:4;stroke-dasharray:none"><path
           d="m 321.839,601 0.6,0 0.48,-0.12 0.6,-0.12 0.48,-0.24 0.48,-0.12 0.48,-0.24 0.48,-0.36 0.36,-0.24 m 16.8,-7.32 -1.68,-9.24 m 5.16,-3.6 -0.96,0.12 -1.08,0.24 -0.84,0.36 -0.84,0.48 -0.72,0.6 -0.36,0.6 -0.24,0.6 -0.12,0.6 m 5.16,-3.6 3.36,-0.24 3.36,0 3.24,0.12 3,0.36 2.88,0.48 2.76,0.72 2.52,0.84 2.16,0.96 m -1.68,3.96 0.84,-0.36 0.72,-0.6 0.6,-0.48 0.36,-0.6 0.12,-0.6 -0.12,-0.48 -0.24,-0.48 -0.6,-0.36 m -1.68,3.96 -15.6,6.84 m -4.08,0.6 2.04,0 0.48,-0.12 0.6,-0.12 0.48,-0.12 0.48,-0.24 m -4.08,0.6 -0.72,-0.24 -0.72,0 -0.36,-0.12 -0.84,0 -0.36,-0.12 m -2.4,-1.32 0.24,0.48 0.48,0.48 0.72,0.24 0.48,0.12 0.48,0 m 11.88,5.16 15.36,-6.72 m 5.52,0.72 -0.12,-0.48 -0.96,-0.72 -0.84,-0.12 -0.84,0 -0.84,0.12 -0.96,0.12 -0.96,0.36 m 5.52,0.72 0.12,1.8 -0.12,1.8 -0.48,1.92 -0.72,1.92 -0.96,1.92 -1.2,1.92 -1.56,1.92 -1.68,1.92 m -6.36,1.56 1.44,0.24 0.96,-0.12 0.84,-0.12 0.96,-0.24 0.84,-0.48 0.72,-0.36 0.6,-0.48 m -6.36,1.56 -10.44,-4.44 m -0.72,-2.04 -0.24,0.36 0,0.84 0.12,0.24 0.48,0.48 0.36,0.12 m -0.72,-2.04 0.48,-0.96 0,-0.24 0.24,-0.48 0,-0.24 m 2.52,-2.28 -0.96,0.48 -0.36,0.24 -0.36,0.36 -0.36,0.24 -0.24,0.36 -0.12,0.24 -0.12,0.36 m -9.12,10.08 10.56,4.32 m -1.44,3.48 0.84,-0.36 0.6,-0.48 0.48,-0.6 0.36,-0.48 0.12,-0.48 -0.12,-0.48 -0.36,-0.36 -0.48,-0.24 m -1.44,3.48 -3,1.2 -3.12,1.2 -3.12,0.96 -3.24,0.96 -3.24,0.72 -3.24,0.6 -3.24,0.48 -3.12,0.36 m -2.52,-2.64 -0.36,0.6 -0.24,0.48 0.12,0.48 0.24,0.36 0.48,0.36 0.6,0.24 0.84,0.12 0.84,0"
           style="fill:none;stroke:#000000;stroke-width:2.74348593;stroke-linecap:round;stroke-linejoin:round;stroke-miterlimit:4;stroke-opacity:1;stroke-dasharray:none"
           id="path3054"
           inkscape:connector-curvature="0" /></g><g
         id="g3056"
         transform="matrix(0,-1,1,0,0,612)"
         style="stroke-width:2.74348593;stroke-miterlimit:4;stroke-dasharray:none"><path
           d="m 326.519,622.72 8.04,-9 m 3.48,-1.68 -0.48,0.12 -0.6,0.12 -0.48,0.24 -0.48,0.12 -0.36,0.24 -0.48,0.36 -0.36,0.24 -0.24,0.24 m 3.48,-1.68 0.48,-0.12 0.36,-0.12 0.48,-0.12 0.36,0 0.48,-0.12 0.36,-0.12 0.48,-0.12 0.36,-0.12 m 3.84,-0.12 -0.36,-0.12 -0.48,-0.12 -1.44,0 -0.48,0.12 -0.6,0 -0.48,0.24 m -27.96,-270 -23.16,37.56 m 12.36,-158.52 10.8,120.96 m -14.52,-129.12 3.72,8.16 m -3.72,-8.16 -46.92,-43.2 -13.68,5.16 m 51.96,204.72 -11.16,-39.72 m 34.08,8.52 -1.08,-1.2 m 2.4,-3.96 -2.4,3.96 m 1.32,-5.16 1.08,1.2 m -24.24,36.36 1.2,1.08 m 1.68,1.68 -1.68,-1.68 m 1.68,0.36 0,1.32 m 20.04,-33.96 -20.04,32.64 m 9.48,-159.96 0.84,1.2 11.04,120.96 m -49.92,170.28 -8.16,-45 m 35.04,-87.84 -26.88,132.84 42.12,30.36 m -54.72,32.16 54.72,-32.16 m -70.2,108.96 15.48,-76.8 m -14.04,76.08 -1.44,0.72 m 1.44,-0.72 15.48,-75.84 54.12,-31.8 m 0.36,-1.32 -0.36,1.32 m -41.16,-31.44 41.52,30.12 m -14.76,-160.8 -26.76,130.68 m 46.8,-164.64 -0.6,-1.92 m -4.68,196.68 -10.8,-45 m -23.76,-18.96 23.76,18.96 m -45.12,77.88 -6.6,-44.88 m 0.24,-1.32 22.44,-13.8 m 30.84,-303.12 0.96,1.2 3.6,8.16 m -66.96,430.56 -4.92,-43.44 m 3.84,44.04 -4.56,-40.44 m 4.56,40.44 1.08,-0.6 m 11.64,-10.56 -3.12,-24.72 m 3.12,24.72 -10.2,9.6 m 9.96,-45.48 0.48,35.28 -0.24,0.24 m 23.88,-337.32 -11.64,-85.8 -2.76,-8.28 m -25.32,-42.84 25.32,42.84 m -25.32,-42.84 -20.88,17.04 m 29.4,142.56 -29.4,-142.56 m 60.6,119.88 -31.2,22.68 m 41.88,-8.04 -22.32,-100.44 m 15.84,93.36 -0.6,-0.72 -0.72,-0.84 -1.2,-1.92 -0.48,-0.84 -0.48,-0.96 -0.36,-0.84 -0.24,-0.84 -0.12,-0.6 m 4.2,7.56 6.48,7.08 m -41.88,8.04 0.24,0.84 0.72,1.68 0.6,1.08 1.44,1.92 1.44,1.68"
           style="fill:none;stroke:#000000;stroke-width:2.74348593;stroke-linecap:round;stroke-linejoin:round;stroke-miterlimit:4;stroke-opacity:1;stroke-dasharray:none"
           id="path3058"
           inkscape:connector-curvature="0" /></g><g
         id="g3060"
         transform="matrix(0,-1,1,0,0,612)"
         style="stroke-width:2.74348593;stroke-miterlimit:4;stroke-dasharray:none"><path
           d="m 245.279,333.64 30.96,-22.32 m -68.64,305.52 16.2,8.04 5.4,-3 m -21.6,-5.04 37.68,-283.2 m 37.44,-15.24 -53.52,303.48 m 11.64,-295.44 -0.48,0.36 -0.36,0.48 -0.36,0.36 -0.36,0.48 -0.48,0.96 -0.24,0.96 m 6.72,3.6 -1.2,-0.12 -1.08,-0.24 -1.2,-0.36 -0.96,-0.48 -0.84,-0.48 -0.72,-0.6 -0.48,-0.72 -0.24,-0.6 -35.28,283.56 m 4.32,3.24 -0.84,0 -0.72,-0.12 -0.72,-0.36 -0.6,-0.36 -0.6,-0.48 -0.36,-0.6 -0.36,-0.72 -0.12,-0.6 m 8.16,-429.72 -0.24,0.36 -0.24,0.24 -0.48,0.72 -0.12,0.36 -0.24,0.36 0,0.36 -0.12,0.36 28.56,143.4 m -38.28,81.6 0,-0.48 -0.12,-0.72 0.12,-0.72 0,-1.08 0.12,-0.12 0.12,0.36 0,2.64 -0.12,0.36 0,0.24 -0.12,-0.12 0,-0.36 m -5.16,60.48 -0.12,-0.6 0,-1.32 0.12,-0.48 0,-0.48 0.12,0.12 0,0.36 0.12,0.6 0,0.6 -0.12,0.72 0,0.84 -0.12,0.12 0,-0.48 m 11.64,-136.2 -0.12,-0.24 -0.12,0.24 0,0.6 -0.12,0.72 0,1.44 0.12,0.6 0,0.36 0.12,0 0,-0.36 0.12,-0.48 0,-0.72 0.12,-0.84 -0.12,-0.72 0,-0.6 m 7.68,-89.04 -0.12,-0.24 -0.12,0.12 0,0.48 -0.12,0.72 -0.12,0.84 0,1.56 0.12,0.6 0.12,0.24 0,-0.12 0.12,-0.48 0.12,-0.72 0,-3 m -8.04,228.48 0.12,0.48 0,0.24 0.12,-0.24 0.12,-0.36 0,-2.88 -0.12,-0.48 -0.12,-0.24 0,0.24 -0.12,0.36 0,2.88 m -6.24,61.2 0,0.48 0.12,0.24 0,-0.12 0.12,-0.36 0,-2.64 -0.12,-0.48 0,-0.24 -0.12,0.12 0,0.36 -0.12,0.48 0,1.44 0.12,0.72 m 9.84,-349.92 -19.44,256.08 12.72,170.88 m 11.28,-216.6 0,3.24 -0.12,0.6 -0.12,0.24 -0.12,-0.12 0,-0.48 -0.12,-0.6 0,-1.8 0.12,-0.72 0,-0.6 0.12,-0.24 0.12,0.12 0.12,0.36"
           style="fill:none;stroke:#000000;stroke-width:2.74348593;stroke-linecap:round;stroke-linejoin:round;stroke-miterlimit:4;stroke-opacity:1;stroke-dasharray:none"
           id="path3062"
           inkscape:connector-curvature="0" /></g><g
         id="g3064"
         transform="matrix(0,-1,1,0,0,612)"
         style="stroke-width:2.74348593;stroke-miterlimit:4;stroke-dasharray:none"><path
           d="m 224.279,302.32 0.12,0.6 0,1.92 -0.12,0.96 -0.12,0.72 -0.12,0.48 -0.12,0 -0.12,-0.24 0,-3.6 0.12,-0.72 0.12,-0.48 0.12,0 0.12,0.36 m 9.96,-133.44 -0.48,-0.6 -0.36,-0.48 -0.96,-0.96 -0.12,-0.24 -0.12,0 0.12,0.24 m 1.92,2.04 4.68,5.88 18.72,34.92 m -33.84,415.2 -0.48,0.24 -0.48,0.12 -0.48,0 -0.48,-0.12 -0.12,0"
           style="fill:none;stroke:#000000;stroke-width:2.74348593;stroke-linecap:round;stroke-linejoin:round;stroke-miterlimit:4;stroke-opacity:1;stroke-dasharray:none"
           id="path3066"
           inkscape:connector-curvature="0" /></g></g></g></svg>